<mxfile host="app.diagrams.net" modified="2024-01-13T06:26:18.678Z" agent="Mozilla/5.0 (Windows NT 10.0; Win64; x64) AppleWebKit/537.36 (KHTML, like Gecko) Chrome/118.0.0.0 YaBrowser/23.11.0.0 Safari/537.36" etag="mtiJ5ILxtrL6YV2FmVH7" version="22.1.18" type="github">
  <diagram name="Страница — 1" id="jYG83gXn8RyZTV5Urvnb">
    <mxGraphModel dx="1493" dy="839" grid="1" gridSize="10" guides="1" tooltips="1" connect="1" arrows="1" fold="1" page="1" pageScale="1" pageWidth="1654" pageHeight="2336" math="0" shadow="0">
      <root>
        <mxCell id="0" />
        <mxCell id="1" parent="0" />
        <mxCell id="89qj2GyKi8MfEaNtumFj-1" value="" style="shape=image;verticalLabelPosition=bottom;labelBackgroundColor=default;verticalAlign=top;aspect=fixed;imageAspect=0;image=data:image/png,iVBORw0KGgoAAAANSUhEUgAABL8AAAJvCAYAAACaknOCAAAgAElEQVR4AezdB7gtSVU2YMIEJhKVIDknyVn8ERUwICIoUYKiKKggSk4igoACKoKAijgkEQkmRJGcYcg5ZxGQPORg/8/bzHeoac69ILPv2efu89Xz9OnuCqvW+mpV9VprV/c5xdRUBIpAESgCRaAIFIEiUASKQBEoAkWgCBSBIlAENhSBU2yoXBWrCBSBIlAEikARKAJFoAgUgSJQBIpAESgCRaAITA1+VQmKQBEoAkWgCBSBIlAEikARKAJFoAgUgSJQBDYWgQa/NnZoK1gRKAJFoAgUgSJQBIpAESgCRaAIFIEiUASKQINf1YEiUASKQBEoAkWgCBSBIlAEikARKAJFoAgUgY1FoMGvjR3aClYEikARKAJFoAgUgSJQBIpAESgCRaAIFIEi0OBXdaAIFIEiUASKQBEoAkWgCBSBIlAEikARKAJFYGMRaPBrY4e2ghWBIlAEikARKAJFoAgUgSJQBIpAESgCRaAINPhVHSgCRaAIFIEiUASKQBEoAkWgCBSBIlAEikAR2FgEGvza2KGtYEWgCBSBIlAEikARKAJFoAgUgSJQBIpAESgCDX5VB4pAESgCRaAIFIEiUASKQBEoAkWgCBSBIlAENhaBBr82dmgrWBEoAkWgCBSBIlAEikARKAJFoAgUgSJQBIpAg1/VgSJQBIpAESgCRaAIFIEiUASKQBEoAkWgCBSBjUWgwa+NHdoKVgSKQBEoAkWgCBSBIlAEikARKAJFoAgUgSLQ4Fd1oAgUgSJQBIpAESgCRaAIFIEiUASKQBEoAkVgYxFo8Gtjh7aCFYEiUASKQBEoAkWgCBSBIlAEikARKAJFoAg0+FUdKAJFoAgUgSJQBIpAESgCRaAIFIEiUASKQBHYWAQa/NrYoa1gRaAIFIEiUASKQBEoAkWgCBSBIlAEikARKAINflUHikARKAJFoAgUgSJQBIpAESgCRaAIFIEiUAQ2FoEGvzZ2aCtYESgCRaAIFIEiUASKQBEoAkWgCBSBIlAEikCDX9WBIlAEikARKAJFoAgUgSJQBIpAESgCRaAIFIGNRaDBr40d2gpWBIpAESgCRaAIFIEiUASKQBEoAkWgCBSBItDgV3WgCBSBIlAEikARKAJFoAgUgSJQBIpAESgCRWBjEWjwa2OHtoIVgSJQBIpAESgCRaAIFIEiUASKQBEoAkWgCDT4VR0oAkWgCBSBIlAEikARKAJFoAgUgSJQBIpAEdhYBBr82tihrWBFoAgUgSJQBIpAESgCRaAIFIEiUASKQBEoAg1+VQeKQBEoAkWgCBSBIlAEikARKAJFoAgUgSJQBDYWgQa/NnZoK1gRKAJFoAgUgSJQBIpAESgCRaAIFIEiUASKQINf1YEiUASKQBEoAkWgCBSBIlAEikARKAJFoAgUgY1FoMGvjR3aClYEikARKAJFoAgUgSJQBIpAESgCRaAIFIEi0OBXdaAIFIEiUASKQBEoAkWgCBSBIlAEikARKAJFYGMRaPBrY4e2ghWBIlAEikARKAJFoAgUgSJQBIpAESgCRaAINPhVHSgCRaAIFIEiUASKQBEoAkWgCBSBIlAEikAR2FgEGvza2KGtYEWgCBSBIlAEikARKAJFoAgUgSJQBIpAESgCDX5VB4pAESgCRaAIFIEiUASKQBEoAkWgCBSBIlAENhaBBr82dmgrWBEoAkWgCBSBIlAEikARKAJFoAgUgSJQBIpAg1/VgSJQBIpAESgCRaAIFIEiUASKQBEoAkWgCBSBjUWgwa+NHdoKVgSKQBEoAkWgCBSBIlAEikARKAJFoAgUgSLQ4Fd1oAgUgSJQBIpAESgCRaAIFIEiUASKQBEoAkVgYxFo8Gtjh7aCFYEiUASKQBEoAkWgCBSBIlAEikARKAJFoAg0+FUdKAJFoAgUgSJQBIpAESgCRaAIFIEiUASKQBHYWAQa/NrYoa1gRaAIFIEiUASKQBEoAkWgCBSBIlAEikARKAINflUHikARKAJFoAgUgSJQBIpAESgCRaAIFIEiUAQ2FoEGvzZ2aCtYESgCRaAIFIEiUASKQBEoAkWgCBSBIlAEikCDX9WBIlAEikARKAJFoAgUgSJQBIpAESgCRaAIFIGNRaDBr40d2gpWBIpAESgCRaAIFIEiUASKQBEoAkWgCBSBItDgV3WgCBSBIlAEikARKAJFoAgUgSJQBIpAESgCRWBjEWjwa2OHtoIVgSJQBIpAESgCRaAIFIEiUASKQBEoAkWgCDT4VR0oAkXgoEbgf//3f6dvfOMbk/N26atf/epW9le+8pWt669//euTI+lrX/vaFo0TTjhhzh5ppq026TPtnZXjQxr5+fKXv5wu5jq50Sb1xjrJT73vdF62Tf3wnj5yr3zExL2ysTw0nLV3SGSEk6Q+XnM/Z56YP/KUukv6oZl2aDn2l9CIPKn3xS9+cb4c6aWvJT1yL/nVeKyfcvTSV8qdU568YJn70Et++Ax/eArdMS/1nJMfWqmfssilz5S5Tn5o4XXkS91lnfQh3zH2rSx6P9aTh26wUKbteK88fY80t+s/MoxzKLTSNu1GHlOm7qhzaYsvdVIvdZKX/JzTLrLJjwxoJclLG3mux/Eey/CrTJtgGT6Uhf7Y5ktf+lK62mqn3DHyqG3uNdAu9NynP3n60q/r8Jr2uY8s6Ty0ctb/WFe98T48OidlfrofeR3rpJ06Y/3QSN20d8aTI7qobvhMubxg4Dr9KHc91ss4pc/ch2byc9ZWHWlZx/ND3pgfGdI+7VIHPSlntFMmf9k+/I90ojehMRM8sS0cRixSFhm0GcdSfrDV19g2Y4S/JV/ajXmuHelHv2M/oSU/9TI/3Kdu6OozuIzXkSdl6c85eaGVvnKfuvLTT+qEbuSHkwPNJc5p75wyMozXoUfG0JQ3ypr78J02OcvHuzapk3PqpE/5Yz3lyQuNtEnZktZY3usiUASKwMGOQINfB/sIlv8isMcRYKiNxtp4H6M2wSxQfepTn5o+85nPTO94xzvm461vfev07ne/e/roRz86l40G6Ug3RjRDMmksT572Md7ljfWV7Y/+WDf09ncOLXwwdpf8uEcT7+rmjGYM//3RH41jdNBzpN+x7bJ/9YKZerkf8+S7H+VGhxOnD22Upe+xv+X15z73ubm+fO1j/KO/5I3DhWbkSP/6k8YybcOjfNfBLn2k3Re+8IV57EMvvCinc3/6p386/eiP/uh0uctdbrrkJS85/cIv/ML0vOc9b+4PXXw5S6E5jkGCF2O5vhzqO/CkTXhL+Uz0xD/qqZM2zmPCQ3RYGRojH+rKC6/LtulfufY55zr11UtCL7yHn5zVwU/opM12PKERvkbHWptg4nrsm77oP/oQ+t/prH76Cn194Nuhj4985CPTm9/85nmN+eAHPzjfqzu2S9sxD52R39RJ2/A/6oSyJDKFB7I5xqT9KO+Ib8Yi/aevtE9+zskfz6GtzliPjHiTzJek6Fvurcd3vetdp0tf+tLTxS9+8ekyl7nM9Eu/9EvTe97znrlK5CEjmvrI/Ml96uQ88qFdUq4jd+qnPPS0H8tCDz7B2nXytXOEvvMyj9zaBOORvvrjPX7Ug60+MmapM571M+IbHtDQfqw7linXNuXBQH+Ry1mdJO1HuXPvPNJOG+3HfHTwlPLch77zxz/+8em2t73tdOUrX3m61KUuNa+fv/zLvzzPLeXGPvyFtrP8URZ13Kdu+lBX/3QzY8FueNCDHjRd9rKXnX7oh35ouvOd7zzPY20+/elPT8cdd9x0latcZebl5je/+Ty3jUloRx79uXYeeUnfOes34ysPnfCrXcpGGq7Rxr+6+M/cQ0N+jvST/NyHhrO6TUWgCBSBTUagwa9NHt3KVgQ2HIHtjLUYesqkGKKM52c961nTAx/4wOmmN73p7Ewxos9//vNPP/iDPzhd5zrXme5973tPxx9//NyOoYlWjFaZoek6Bqe8GKVzwxP/pK56ypdJXsrUHY1OZWm/bDfeRzZ0khjfDP7RAE6Zc+qqN/apzL1+R37SR84jjbGN6zGN/aM79pV+1NcX2tvJm3ojP+kj7cizpD/2nfoj/wmGLvsMNvCTQjvXoYW+IzRTP+XGL3nq4Y9Tcoc73GE6zWlOM53iFKeYTn3qU8+O/d/93d9Nn//859N0Pqu/XUrQQLm+txvDfWGJnjK8hX7O6QseIyZxnuEQLHIe27rWbsxDc7zXbslb9Fy9sW7k1CZpLJenrYRmykJPfvLGuq6jGyNt+VLaKINtkvzxSH7aKAs/8sLTy172sumWt7zldKELXWg63/nON1396lef/vIv/3KifxmLkQ+85d51dEfd0HVOXzBXNo5ZyuYGg0zuszZElpFW9FVeeHCNh9Ckp2NfyiV10FaWtvrItfbhVf3taKijjTJngUJrsnlizjgLGL/85S+f64x9fZOLb/8bvnMea+gDz/ALvikP36MMKXNWPvY/0leGXnR4O1lDC/1lCo5jPho5lm1GPpZyjDTQlYxVeIp+5V75koY6SUs5l7ykXs5oBUt54cG1tmO/ytCXnzbKrUH07r//+7+na1/72tPRRx89HXbYYfMaKiDleb3kK+tW+MgZP0v5tCXjSCP18cJeYCMcfvjh01nPetbp7ne/+/SUpzxlesADHjDr45FHHjmd/vSnn/MFbCPTiBt6kcl1cAg+Y9mSP/S24y00lS/HYbx3vawjzxHMw/Mo98hT8nsuAkWgCGwCAg1+bcIoVoYisEcRWBpoMerAkWuG83vf+97pLne5y3SJS1xiOsc5zjEb0IcccshsQCcQwYi1u+Cf/umftoxNNEaDeTRMGbdLozLGbIYj/KEjqR/DN3UYtuqNbVM/dfZ3RnPka+QJj8EhdZTrz/Hd9DMa8aGHn7SXF5nQ40Q764dsjsgW3tKvslyPPKVtyiJ/7p3Vl/Sf67Gf0EhbfW2XgstYFpnRSBrbJz/94idHyrQLv3SQYyT4dbrTnW7Wu0MPPXR2quibhJZ+tY984QOPwVjdsQ/3MB+DF3jVNmfX4SXtOefoLmnhQ762KctZW7Qid7ALv8ol92R2TtvQTF3n1HXeV3+pr45+0Uvbsf1YPuarn3ap4yzhyZE6ucbL/yVpP+LvWt7f/u3fTmc+85m31hnBdsGbkf9lP+M4pwytsU3qyJdyNjZwH5Oy8Ba5RlpkHu9znbPyJP2i58h45Tr1YZ1+0q86y6Segx6mrTr60F7w68d//MenI444Ymu+CB6+4hWv2CKlvRQe3Ad7fEe2UQZ9RY4tQougEHrh2Tm8OqOVsvQdPkZ6uc481IZcI0/yHPLCd9oJ4KQunvURnJyN88hHyrQfr8ma+5FPtHMfHrQNzZTlrEyb1FFPGfmSr5/IO1c8kZfQjD5oN9INf6GNxpjU/cAHPjBd//rX35pLpzzlKacrXvGK06tf/eqtQCNZk+BDt9JP+E15eIiuys/46B9P2rzlLW+ZbnOb28z9Crode+yx0/d93/dNP/ADPzAdddRRc1D2vOc97/S6171ubqPtyL9rfQUj/YSnyK2fXOcszzEm7dBDayzDN2zlj3XGtttdjzSUu0//29VvXhEoAkVgExBo8GsTRrEyFIE9isBovDHaxvtAwmi+3e1uNztRhx9++JbxLOjlkGdXgWu/8P77v//7tzmQobUdfU5KfuVXL4buWFeeY5liGCd/NMSVkWl/h3Yx+NXLtfylUzn2n1/G5eFzeaTPyBDD3X36wF9SaGuXNsrcjwmdyDXm53rZfqSljvslTXnowg5vaeM6eIY/5+RFpmWwILxETv0FL2Xqp23qOsN75M919EKfn/jEJ6bf/d3fnc5whjNs6aBg7L/8y7/M9Ebe0dMmfLsP3sFoycPYt/pLnJK3XT7awUW9Mak/jln6H+vkekkbT9vRlS+hG4zcjzqLlmOUM+OXstCRr558ecFt7BvtYJhz+HbWNint5KHlSJ/jPTpjXe3dq/PhD3943mFqXRHAcdz61ree/ud//uckMmuDzsiT9ss09jPKqF54G9uozyFW5to5KX2ln+BIB5M3Xmvntd2kBDHQDK2UOafcNToZm9xrl37SDg/hQ95//dd/TT//8z9/kvki+CV4iKbxjG6M7dAeZc31dnymnTq51je66o954TNnZWQIXfe5Tp39nTOeqYPWiEn4TvnyrDzyKxvnUfL1Mcow9jnyqv6yb+XpY8QHvbEvZdo6jylt0E5Z+gwf4VP7XKOhvjU39ZW/733vm653vetNfrTyzHa+0pWuNL3hDW/Yoj+u0+kzPC3vkz+eR6zk0zPpne9853S3u91t+omf+InJj2Tm9KlOdap559dv//ZvTy95yUu25pr6+gotWKVvcgfnnNV37YDBiMPc+Yl/xvrpYyxPH2OeNvhYHuo69JWy1E377eilrOciUASKwMGMQINfB/PolfcisMcRGA00Rtx4z7DzLS8OlNcS7LTJLgKvTpzlLGeZLnCBC0wXvehFp3Of+9zT2c9+9vmX5Gc/+9nza0mgZfzGYE2QJPcxUvWbNBqoMfBjXKKV8hjVKUt792kX+inb1zk0lY9tgkWMWmUpH3nRTt3UH/tJXmROWepzTvDs3qtckUt9efpTxzHyqU3qcg5GZ0rbOD3hNzxql4Q+Gs4pd07b1BvLXAffkVbqhtfcb1cnZeGNXLlWFn7k6ytYfPazn51+67d+azrmmGNmXeS80T2v0KQf59HpG+ml39TVD9zGvl2nf/Xcp75zsB3zXDsihzau5aWP8CE/Kf1k/Nxrs+Q/Y4Su/tEYndTQSx9oSOpL242n/OgMeo7wMzcaxsH9yLf79C8//eRVWOUJGrmOXK6l4HLi7Un4w1P48Dprdn0Z64tc5CLTC17wgi2s1UtdtEY5w9OYp657GIYPvER2OEfOsV34zHxTFoxTP+fUHc/6Uz/tlY31x+vwNrbPNZnSb+R2lo/GKDMeBTuuda1rzUEGO25gaKfPq171qq26oaPfkX6Cb/oz1s7Kw5/7XKdffKZeeHafA4+51m/6jvy5d0ZbfjCTp600yhp6oeFe24yfdmiEV+Vkyz166jhGGiP/43V4UD8pPLpPecqcR3ySn3qZg/L1j+/QDga5D3+pG9ryM3baj7KlP+WCyde85jXn3VZ0QQDq//2//ze/9jjOV/TyrNa3tmiGD/LSCfcOZcFA2/CZ9UB7edbvd73rXdNrX/va6Y1vfOP0mte8Zr5PW32ip27ahv+claMnBStYypcie87qpmzkLXTkhZ72rtNGWdrOxP+Pf8LD/7FZqxeBIlAEdj0CDX7t+iEqg0WgCOwLgdG4G41IBiAD9NGPfvQc4IqxzInyi62PKD/pSU+aX6FhyHqV5h//8R/n7/G8/vWvnw3TN73pTZNA2L/927/N3wr7j//4j3n3jp1kDGA7xJ72tKdNL33pS+d8xiYDOMYwnvFhp4ddDOrZ5fPMZz5zeu5znzt98pOf3DK040SgwZC3y+L5z3/+9K//+q/7PfK9E/3EYYrR64O8XsV4znOesyWHazsn8EluMpHvn//5n+dDf/hz4BUm6pDBh7vxLf/pT3/6/HqoenB44QtfOOf/53/+5+yMoL2v5B8OKMeL/nyHzbeROLtxWrUlhyNpHF/5HBjy4wcNZ3QEPOFhjNAngwOfdl9JyuR55VC+ANTHPvaxuZ3x9RF6bdF0Jrs+jS0nSL/awkG5a/g74njhAU2v5aD35Cc/efrpn/7pre/VeG3nXOc61/ytGLzA1j9fGNtH5le+8pVzP/g0VnD3DRy8GE98Gid6TNfwGucFDYckjxNpp8I//MM/zHwbO//8gc6lXpwrcwjv5gE5yUtfInfwQcOrxelTX7Ci13ZNmFP02TihRU98BN6roBLc9G1O6C/6Rya0yYmWcdC/A+YO8tMbMguMyMMr+VIWTN/2trfN441/eMOS7OE3vPiouted9I+Wes7jtTKyZb6TAQ8S3HxXUKAz3yfyQWxjo55EXnLBBSawfMYznjFjZF1xH3yVq59De1gbJ+NJb9SBG3rmgfFURxtn3zwUfMN3xhC22dFlTOTjQf/KyGFMzBd4wVYfT33qU7fmEgzkmUfK8aFN1iRjRt9gR8+Nr37M3+BFHvd0Gu/KH/e4x80fGT/8xF0+1u0LX/jC8z+NwCP+yI5HfQUTZ3Lqj6zGDm90xKuUdIIs8ozxhz70oRkj7YxHxkd993RG/YwHfOkMncq6TQe0M99h4YADPPDgHj8wdo3G+9///q32M/MnfkSdTFkz9IlPzw6BF//UY0zW+Miov9TFN0xgr190YKaOOYJfuKFrnmhnbiojB50xHp6BaU8WdMwN5erRP33hzbihoz4Z0TOODnnGHtbGXLtx7COTvMwnzwl6bbzg5XntteE8w/Pa+EMf+tC5D7IZF2OCvhRa9N8zDO9khBn+8GVt9cwIPxl/zwrzwHOK7PTIeoUWbOAbXRLoJjM9h7k6kjN+XvziF8/4ZxwyZsEWbe1f9KIXnYRvcuAHLxkLOGjnGeRZRa4kPBkb64y+0HVWP33l3riwD4xJ1s+0D72ei0ARKAKbiECDX5s4qpWpCOwRBBh6STF43TN6OWAcTq80OjhPjh/5kR+ZnRkGZQxedBiqHAJJvu8z2Rlm94ZdYnZu/P7v//78H59+6qd+av74rQ9ZX+xiF5u8+sCZT9Ke0cpx+uM//uPp537u5+adZejY7eO/R/nPVQx2feo7sjBA5evPB3b3d9z4xjfeMn7jiHFmGca+ceaD0RxG3yfxup1vk5Cf8+8VPPe+gYYvcp7tbGeb6zq7V+Y/E3I0OQuXv/zl53y75ARu0D3jGc84X6Mvn2w3u9nNZseAk5Bx4dgywO90pzvNPOhbW2d9wOhP/uRPZsyCRfBEY8wjK2f+Fre4xbxrD5+nPe1p5/+kyLFQ9453vOP8GitZznnOc868cz6NizJtYOuMd44Cutpf7WpXm77/+79/xkV7jniSsfmxH/uxWVbyog0HTlQSp1Sgymtu/rujnYW+E0NeOmjXguAXvZQHa+P9sz/7s9N973vfk3zXCE365YPp+NSX8aJX97jHPWYsz3Oe88zlcISvYAXM6JJkPtipoA2doLPGj+xe9aUT/rMeR8+8SdJGfTJGP4wXPuQFP/RucIMbzA4q2SXO65//+Z9Pv/qrvzq/LkQP8a3PC17wgpM5dJ/73Gce78w7rzD5rg/M1YWZV504weaI8aNf8jOuv/ZrvzY7tQIbt7rVreZ8eCv3sXny0Aflv/mbvzn3DUO7QfWBB0EFc9bcMb6/8iu/MvcDc2OsXuaha3nKrAcJqGb+4VPwwngm8GXHKQdawCTzwVnAwHet0EOfXPCN7uFTvg97C5YkkYcec5Z/7/d+b9YbNLSzvqjvw9zWAXNQ4ihf9apXnfvy3Tnj8DM/8zNb3yq6xjWuMefp06GuoAaHH65o4y/lnHEy/NVf/dXWPFNujRDgiv498YlPnHds0TeYw81/7MNP9JMD/qhHPWr+b45eZYOdeSHAkX8QYc74xpJ8vNAD/y31z/7sz7bWXmOI31/8xV+cZaED6sPwMY95zPzqGv7oB/npvQ+a40UydpL5AluvupmTdBe+2sCXTt7rXvfaChZlTOmOAI1+M4ba4OFMZzrT1pzx48tv/MZvzEE6gQeJjv/hH/7hzLv/IOjZAk+4+W+XPvZuPkUP8Gie44U85qd+zB/BZsk4+I5lsFfPf8w0FwQtrXPmMnzIeM973nMOhJDH+JrT2io37mQz3nRPovvWxhve8IbTFa5whZmGuviAAZ4c2vqnMk94whNOsr7ox5hFD1xLnhX6sXbAwlpDdwSTrZt57ZBuWPeVkxO//qOuoOb4vBDkMc/pOz7poPEhGz267nWvO6/Xnil4yFqj76x7XlH3Db8EID0PzV39m7PkptfWUPIYH8l4eR7CA5+ZQ+rLox/6UHajG91ofq4FB4FFQSrrv+eIddP6YxzpkPrkZWekP7zDObZL+tGX69zTZ1jQ8QRE8WtMRuxmIfqnCBSBIrBBCDT4tUGDWVGKwF5DgKEWwzmOSwxHjjtjnaHs8K0ODojgAuNuWd99jHo4cqB83Dbt7UDg+DA+OWXyc0abE86pQJvDqX/GOKNd2/zHMm0Y8Bw5zsff//3fbwXdMn6PeMQjZqM6hr6+BE3QcZ1vlDHaGexxcPHvF35OHacmPKadHXAc8Uc+8pGTfxMf+dJPzpFLe0Yzx90v94xueQ51U989uvjSF6ff66bwkARE/ELP0dBnHNrIoT+ODadJO84LY974SjB1ZGzloy0wk1198BGEwadAhPFAUx/45KDYmSAAIbiRviODX9Q5onZCcDLIlODFX/zFX8xlftUXQCGr/tBwuDbe+EPjYQ972Oy85uP2yjPu+A3P+gid9GfcOFUJppJV8EF5xsVZgMDYyA89/HLqBEXtQpHMD0EQwUWOV3SB3Pp2yPMqMGfvr//6r+fAlbZkElDLd2705QimzuGJPvsmDodb4sx7Tc1Y6yNjHjnwzHEUrBP8EACzc813ndQJ9rCwo0Kih5xE9MKLHVaCNHbMCBBEPuXu5UvGRJBQ/siLQKj54xD4hIHyyKW+a2PuOmOOPwFkQb4kemf8BVTUS33BqOwaSV3rjd0ekSf1tYneuCaPsebgmgOSuUFPvRaIVziqmzno2rpjzAVx6JBghgCHsuCHLwEUOsK5J1PKrHXmoZ0l6OAvY0J36BQZHv7wh888pJ0+yAUL4ynIGezSXvBB8IU86P/BH/zBPDYZl/CRsZQ/4kN3jIl6Agfms7kJF7o0fhg94yiAZO0mP3qZ94IPD3rQg+ZADhzIZA1JYAgPZNO/s3byrFV2cgrom/f6tlNIUEEfeNRGfTyEhjKHdZDu2o1EZ2AmYGEsw1vO4Rn/dCs/3AhaCGDgJ/jg287ayKFN6KgnYAL7t7/97fM6lzLtBcAFi8liXpJReTCkl41uzjUAACAASURBVIKNAkDG92/+5m9m3UQ3dVxH/siKhrXHfzoV0EnK+o5Xydl8vd/97jcHzKwpaES20E5f4R3W8HXWjx9FBNAksjz2sY+d10r6slzL6CZ61gaB2sxna42xjM6yHTw3rROC5De5yU221hp84C26bzzzrDK/vJ6pj/BLnhzy9OHseWY+eEY5BIQFuazNmRvRBWc0yWsdyI5nMrMfRuyCmz6Cnfb6VSboSabof9aZGcD+KQJFoAhsGAINfm3YgFacIrBXEYixyYBjvNklIljD4HMw9vzqz5FmuCfQFcM7uGkv+WWeMe2IAcxQ5FQyigVW0IyjKujg1TbGNufkh3/4h2cDVxsHHvzSLLjhmkHrbBeRX6bxE57sOtMGff3ojzHLAA4tRuxP/uRPnmTXAqfNL+yRF99xHEbjmdMiuJc8NNXTzkFmfTtzgjlmnIEED9RRn4x+6RYwCR7aOewognWcQk5mZEIX/xwP1+FXO06M4A1nNmMaJylGuXvBL8G/kW99eq3DmHKA0x+6dh/gVbKjIHym7+2CX+rAiHwcmvvf//7zuKWtcxxiO7+MH5wE+YK7MXAYw9GxVY42J5hOJFgZmnZoCHhI/mFD+gxdesexJfPo6ISuV9M4al4FEpTKmKZ9nKDob+gLTNgFB3s7kwRItEn7S17yktPjH//4eSeNvpWFpmBcsOKMCdqYFwKPdJ/+CPYkWKNP15xiyWtYnPkES5SbH9lVB1vBDvnhf3/BL86knRfaC4xqZ7zSnkwcfg6vILJdEOal8TI2HGX8wZkcmS/aGy/fcKMXjuimXV8CEDBBS38PechD5jUnepw1xm4kAQZ19cmR1Q/6xjRjY04LXiXpQ556eNTWOeuEtmjiVxBYIJUuCXBp48CXwKZXtyTjmjJnAWC6Y54J8oxlsOfU05E/+qM/mvnMumGeCyIIkNDb6Hx0BE/WYfxYhwXPyJl1QDn6dCnzN3MUntZ0a428jAdZ7IDTp7XXbi39pU/6pA+6h78EQLTXFn4wMj5ecRS0Td/Kya4/15HTGX075LyWJ1kn7axJGzLZsSMo9uAHP3iWiWyZS4Ilaet5ld06eDRW5ot1K33pz5yyG0gS/BKsxX/Gxw8fgo5ksRbiR59oqOMHGYEv88L8VRZ8jJd8P6DoNzRzpp/mt8CM4Dqc5QVneuf5qE/XaAcLem6eZ+cU/vO884zAr3khcGMOhCbZrJF0O+ONH3Tdw8gZpsZMn8oF0PJKoB9erBt4tQ55pgmGmsPo4NXZN8XsPpUS/EILbTL5EcRaIViqH/3qM3wZN8/grAXkoxPBWR/amVtwypjoQ75Av2CodNxxx239CJNy+u/aoS16+ndtF2R2MJqT6Keus2cevbFm0f/IrL1dc/mxRd/mdWSYmemfIlAEisAGIdDg1wYNZkUpAnsVAYazQ2K0ufZqH2OXwRiDWFDCTghOlyRI4mDsOZIYrYxJThbjkPHI0LSLQQBFsEpwZXQ61LUriFOgbwY8ozR1vCKlnV/OBRjQZOBzDn2bLInzJjAVB0k9r2wIOHAA0s7Zq0rqk9cv3QImDPo4d+TGhwAG3hn3dnGQwa/KdsZwzsbdAeg6YMWRsqtCEItDJIihDG9kS/8wVcZJSXtOIYPajhevn6Vd5OIACJ4JbiSgoSwHDOMUBZuMsfMY/IoTwDHUzlgaC9hyTByw44hwsOx6C0bkwNt2wa+UCVJwarLLAj1ljvDL4bRrwk6iYODMsfS6DfzgEH2iF5wwTjGninOV+uTh5HNW8MtxiTOojn7tJsCT3VnocmZSpq5AHey9loSW/hJUwgPs0eA86o9MmSfGXDDI664J5GijHp2ws4STaJdW+FLGicKT+WUecEC9qkV3OeIcOoFdjjB66c9rPeatQIzAQ/gkp6CV12GNqzlkBwY50+/+gl/027gIZKe/zEc08MwZFGg1572KPOLk+s53vvMcZLATxjzRDlb6t/PLrkZ6KllLjGd4VJfOCCIKkEnkNKZ2uhmjyEqPfv3Xf33WQxhom8PuDzxKApqc7ziwqSOg7XU3rzsnOKTMnIC9uehVOjLDFf92jFgLzCcBqQTr1KGbAiF2UtmNiWbGSzmZJPLiBU35glZ2Q3ltLesFHDNeeJIvsGbHnp1IysmvTD92Opqr9Gt0+AV6zEW7d81t9fGkb2uc784J7Ah6KsscR19AXWDL7j7BYPqgTtYsO3BhbK3Fg7Lw5DlirbN+jmtV5oSdawJC5FaedvjynBCEMZesQTAK32h6JggICWTZ1SW45EcU/JAV39Zw7WBIXtjSIfMFJvL15TAHvT4JvwTr5evTAVu4Cz5mJyB+0b/97W8/YwS/6BAZ0x7mnhsCQILbcAxdZ8FFfdI1r0LS7WDhuST4lVec6Zz5Mq7pdqTZUYUWmRzG3+cLBOThH17QNS+s215BzfqnLYzos92n5iYs7Py0A8zr6IKz9NaPJ+Zy2ngmGUM8WseyNurTmuXZ7XXHfe2GFVAz14yNQ7JbjI6RRT/GnC4YW+tJ8HH2nDDfPL/GgHPWCOu45zUcord4Q9vzAxbWXmuusTKm6qlz73vfe34+WSeyYxg/cGMTaAer8J31ahaif4pAESgCG4RAg18bNJgVpQjsNQQSsMqZ/DGmBRsYiwy8OCkcaQ4QRzdBr2DG6IsTK48jGkMbDU4NJ4dxKnFSEoxSztHiDPjYLAc/Rq2+Gae3uc1tZuddWXbMhD6HNTLYUSEghCaj18FoZ/xzgtDVF5qMVkEvr5L4xZijrZ2Dw6e+HRECJD4ory4Hj8Pu9RJnDjNjWpsY6Ixmv8ALngiuwYpRn90AnAt14Ik+59jOCnl+ccaHgIdgkOCDQMvoxPqFXDleyCu4EywY4/jwfSpOSIxxmGdsnY0DJy1OMP7z2ol2nKg4NsoY/Bx9OCsjg/z0u13wK3U4SrCGqUM7x3jNEbU7hwMTfVNHwIGuwJ5OcUbiqNED4woHupOdPtpxjARFYeibMTCBb/oVEBJgIg9HmfOjTuThPBlbgb6RrvZ0EK/GFx07TuRn/AU+6YsdRgJkydc/B1ewTcBKUEA7jrKdKpxuAROJM8XJe8ADHjAHZTmaAqLZgRWaxk+wFwYCKnHmgz36+jH/yJj5JN+xv+CXQJ05m6BDsNGOLA47vxLA4iCaM8ZV/+QS/BK8sHsrO0XQwYeAWHaXGAfOOz0J3sbZbrLU4VBaeyTBA059+jFvzCXzzHyJfPoRLBesEPii9wksqEPH4SJwIdhIV/SbwI/1g34INhnnEVfjYbedJEiWPp0FqPQpoDQ64sqsQYI2koBAnPPoh+8QCRC4h5Vz2qWOddJaLMgWnsiKJxgIXNjZqi8HOgIaPh4OO2sMWtoqM78FLAS/4CNvlMfuKwn+1lv4pA7+BdTsEMyPGuHJPBQQg4Ogke/sJbiJL314zc5c8lp1Agto0x/yCZIaa2NFt7QT2PMNqQSDjK21gA4KPluTzQU0gq++yGyeCZgZO3Xk41eZdZae2uGUAIm8rFXWPvjR1QS/tIW94K8fDbSL/JHRWb7nAj0WABNUNn/RJxteBZmsz9lZnHm+3PmVtTxBFvd2W9mBOD4rBIL9COB5ZT6Pum2eCEbRJYGwjCc8BK7og/HW1mvCxkEw0ZoGf/OU3MHPOuFZa+0SBLPWKSOD9ce6aeccWeEhH+au4QtPc02f1gNja/3JmoIWPaBLAnDGaOQ5z3PPRIG4jIF2npkCZp7zDnqaZx8eXONPEFbALXJp6zCX6K4fwcitX2e2hg/2e8Ynjc/c5PVcBIpAEdgUBBr82pSRrBxFYA8iEAM6ojM4HZJvD3HgYnwzEAVvODLqJNDlzNgdk/vsDmL0asu49atp6vp1nkE6GqicRLtiGP4MTs5AzpwtTkwMVvnaMkIZpQJYHCCOH8M3zivnxs4qjoH+4sRox5DldElem2F8M8Qd6HuNggPLwbDjhNwjZvK9KoFvMnJugpdfyPHEKGYM+/WcE65e6Lvm1JAjOKDh12mBF31xOvOKljra4itBRMEdARgORZweMsLEd0g4EuGZDJJ7Dg354eDQ3jfeOC149rF5vOhPvxwZH6SGgR1yI46w2i74RT5lnK7s+pEn2IBmytXhsOQbPJFDuQ94e7WJI2SHwjj+AmPGWxL44NhpYwzwncAJp1QfjpRxWCROsCBC+MvYCILQm9HphhGnyC4qThJsBajsFhnpGy/Bh7yGGKzgSS/xSY7RKedEcUTRlAQpBKbUNQ+iz/qBXWi65/QZa8EvAQ4yGFN1yIvv8Jdz9HR/wS/zhTOd9vhI4AJtfQhu0UE6LiAgEEsuZfg0RuYzR9vYyMeDYJVdY3mNy9w1Z9THm3qC7/Q/a02cSnpsXmZeoGed4aDTFfMnequMYy/wIgnuJBgVDGBMRnMxsgYnZ+uW8cxOLHnaWlsEbc0nwS9yk1k53PQp+C2YlDYpFxglR4KCyrXn6Av4xMEWuBx1nv7ZIQNremiMgika+rKrkz7QC7LJd5iHAlTmsGDqqFPmN6ffugCf8AlH89G6nECLnZZ0IXMFbcEvQZb88IAnh7khX5/aC26QLzzBGy8CnOoZR2WhTc+MSwLFdAhOdhZ7Ro3PE7ss1SOzeuiQw33GGj3BO/pmzdEmvCzP8HGkrXLzRYCa/lnPg5N69NEzMpgL5KVt9MuuogR3PHP8AIEntMkp6GkMPYsyX+BIrnzzK+s5fYZr5gX8RpzQ9MMKXREcHwPL+La25nU9eIaPYCZQ5xlmvM1LMmZ8Ipc+on/WUHWNiUCk4JRydQUUPV/yI4N89TNO7slMBskzCM5+9Aqexl1w048W1l1zRd8ZAz+c0F/PqewOV0aXjLMfUDxH8CcAOvJibbbr2LzxgwN+5UU+NIwhWeDkjH+vuppvErrGZgyEzQX9UwSKQBHYIAQa/NqgwawoRWCvIZBgSORmRMewZjD770sMTgZgDgat16+yG0NbBjiD3qte2qPrF/IEr7R17VsajFN1Gcn5rkYMWAa4HRF5bUQ7xrGDM8ig5WRyLBnK7gW67NhgeNqBwhmPMc5A9V0Vr5gJLCToEmOZM8DAxjOD2a/dcbqcOSKCZuhKcTLIl2sGNQcj+ORsV0ICGer7FT0BFnzhgTNBBv1qJ49hzcFlyAsGCe54JQkG+TWa88txC/YCkqPDhxZMEnzLmBonyX12wKiLNgdXsEEQC992Y+gPT8r9qo8XNAQtImew3l/wK3XQ41gLLGXso1921/lAOIcM9hmj7FaxO8FOCZih54CDIJZdFHZScVjwpT3HyGt+ysZvfsXB4+AYVw653Tfqp0807HAQoLDbLLKiyyHiFAZTgTNBEGXqcZDwRa/yWlUwDB06GydSYCPOOdnpiXnkv9DBK1h4xc7reoLGeV0q+qAuWdJf8o2bPjnEHHPjixfYhd/9Bb/UCQ166vtXdqiREV20BElhYT7AWpDIrkPjpE7OoROM5f/O7/zOHBwyP7QVOMuaoW/jDQtJsCLJXDe25pN1QT8w58jDIIE2+Q6Ou6AXHgV/7I6KQ506AlsOO+s46doI0lhvvPpKN6075m7amJfmIbraRDbl2goYCY7bZSIP7qmT4LZdkWRWhnbowwtGfkTguEdv1aM/cLamGVN14WVc6Im5JPDmmpwZL3pqJym8lWUdMgfNb4EpOxYF1zNe+EZbYNLcNw52yYXPBOmMucAjuugpR4PeaEtHjJvdN4JCylLPem/8BTqt0foLVtYJ45wdYcHevPGMEQSxk4dsysIXzO0OsosORpHDWTDcfBHcpivmiwNPMLcemy8JfqStNdJcyyundp7iU3kO44uO3Z92gWWe40vg2A8V1hxjYJ21xlsPtVcHPUfkkO8+wS/Bmaw9CbLk/IIXvGArGBp9SfCLvhjXzEd8kl0bY+pZT0+iK/TeuHn+mRPytaGrfhCwDnnujIFZgVjfoDOWnhUCqtF3csA4cnkOWDsE/JTBDOYCuuRxCObDEQ0Y0A27gD3XBNfoLJrKyOvHHM818w4veKZL6Fu3YJBnoB9GtKGD6hlrP6AIrJmTYxCRzNkNaDwzPtqjbz1mByTluZ/7notAESgCm4RAg1+bNJqVpQjsMQQY4By3GNPuk+xs8eso4zAOKSOSA+DXbf/hyC/RXo/kNPneitcifN+KgcmwVVcbNBiJXrXxWofAEIM6DiiD2MFZ4JRkp468GK9ef+C4chYYt3bV+OVcfxxMBidnUB/aMPIZrAIVZMEnYxk/OQTG8pFbr7JwoOMcqMMg5sz5RgwnAA2v5nB+JHJyMgXtwidDnUEuQMipCKa+lcMgZ+Snf86zHT6cVTskUkZuvPs+DDk5KWmjHw6ngI4dKbD0aos26uAfD5zMOFkZ0xj+eOIkcDrxGtpe6xIElOzWGcs43PAlk6BF2nAEXG8X/EodPKsHX7iMTlP6gINf0AVj5GnDuSArx1qZX+bJF+eDs2RcODWCZPQ048ApM17G3nd64oSFX+PKEfX6KMcvvDpzhrzORzcEETlCaWeM1IfvE57whPmbS3GUtMWfnUeCX/Q135/SPm3trqO3ZE3wRlvzRGBRgEIwRV7GFa8CgBx2ZdmBpY6dMwIAaNrdg074FegRUBPUWAactf1OwS91YGpuw1oAaFwPvCqUnVl2OXmVMTs+4lwKEggswTV8wYkDKhhu/fFKLf2DEZkFIDjCeTWVTprjDs7vcszoBj6CuX4c1hiBcjt1JLvUBL1TTi/oCqfdTiJBMgEtQRXrC70kl/zx9VY80jlrEf7NZVjh37oHAzrgRwQ7eciuPIcgv3aCM/Q9+qk866axMx+9Jhtc8G0umg+CA+NrtdopExC2LgmgZz5oRxcFO+iQtRBN/SmzpqOHrvVMPhnxpdzravTdXDQ2dCxzV11rpDVlfE1Yewf5BaIEEWGvfvhyTeetK/QU7RELMhiHfGsMjuGbHuIngZasDeoIjpDFP67wrMEHfrX1A4k10DwTWAy9YGQtM95em4YnHh30GTZ5dS5lI0+ujYMdffAanzkC7HZ+eeZK9Mza5LmAvrbWAz+6ZFcSnpSZ78sP3ue5jRZ5PCvMf3S0gbG5Z2zwbBzkoelMH2CgnUBVxhP+AoZ0xbwYA1zWHs9AwR4/ZgkGwV1/5PZDgsCVZwV56Ymy8OMs37rrBwjBzeiZgBtbwppNHsF+z2C8oiOAleeTXZ541Db0Bb+sc+a43Z7J1xZ+bBLrtuemZ5H86BpdssYK3MELhuM6xzbxnBb0o094iiwCeNbGvIKbYOQ8yP1TBIpAEdgwBBr82rABrThFYK8hkIAIQ5rBKXEiXXOGONaMPA5CnARGI4PXr/GcJs6/QwCHI6KtnUOMYYY2A5Wx6MzwVTdGJ9rqME790syxZUgy/mP4czoYvmhydhjknG6OA2NZf5wjjgn64Vc/nHsBDN+Bya/M6JKFI89Z1x8n3I4GPOMz8uJTIAotjgx5BZySBEji0KkbnhnnsOWsO3PG4BXHRD3BN06Ew6/ycT6Cr9f87HwRaBwNdTTgjxe4pV2cEE5BdqSET+eMNbw4hn6xjoGPH/L5gDanxC4k/cTI56RwHnyQOQGdjJ3zdsGv0THRj9eN9Ov1qugGnOEmqClYxwEZHUblduHYBYQnOIQnOmKHB6dudNDw4xst+c9j9Ca4K8OXg+NGrgRh6RnaDq/f4Eegyi4eeRlbvGun/wSvtEUbHxxfzvzxxx8/82x8olOCFYIsxlUAEx0yZgwFOjidZNafQ1uOnd1Odp5kB2H6FKi0E9N8zc45vGirP84tPeS0apt26uwv+KWc3AI7ZDFGGXs8KRO4MGft6hFoyG6YyCNAAEO8c2Qzr4yjgBpHVTL3Mg6RVwAiCf/01pjagWaeZ0zIAxev+prPsMM7Os7mnbkk+CLIbf3Qv7LIKMAsKEL37fzAG4dXoEi/2gmiqR9dEtDzWpY5IdiFH/I5Wy/ufve7zwE+/GS9S7mxMh/pe9alcf0wt80T+Fi7wiuZrFu+OWfdsDbALXgrFxjEOyddu+iQAIc5LDhrPsoPP3bdCdZ5PU5QPP2Fb2NHpnF9Db5wEHTk/AuwZqdVaMDaOqU9XrVL3+Z6dpXRn+zwUse4Wo8E8gQvjTF+tVVmvTNegn3oyNenMnPCuu81THMsZdobZzuoBDaz80s7fQqG0XPPQ2u2+WI8lTvbESqQJOBOt8eyyKtvzwXPwjGIZUwFh7zq6/BDkLEPjnizbgkcmZdZN9D1DBo/eG9ejMEv99YAekvejJu1ynPZDxbGCa3oL52lD9YIbcK/toKY9Mt/erSmwQ+f5LFGmWvZbaedNsZXMFeyiy9BPXI51EMLL/SM/OTK2PgxA+YCXHbyClDBIOWe74LJgocwMuboGm+06YfvgUnWpeUzwT2erNmZL+HLnMk6aU6mbdZ3usRGsLM0gfe0dba2CtpJ+TFgvumfIlAEisCGIdDg14YNaMUpAkXgpAj49ZpDHUMvhmjuGZ2uGb+cHt+2YvwxnhneyrTh9MSQjLOnrTJ1ODnZUcXo9roGB01ZHFWOBiOdsYs2452zJdBgtxjjO/wx1LXVhuMVZyCGvzL940VwRFCGo5uP12sXAzl8oi3fR33jeGhnV0QcmND3CzEcUk8AQLAlfOifI+HVHa+9BJO0Z6QLKHH6Gdx2gWgbvvUXox9/+HLmrNklB5P0nRHNjgP3fiEXtEMvNMmLjrHCR7AMfc6msu36tUtHAEQw0qtOaZu6HBMBBDv7/LKOjn71p65dSxId8EpMnKLUwY/+yR3a+EI/ATz4ODjqdpgJykgce3XRUB8NOKEzjnGChxxmO47gxUnl6GmL1+givjLmoakPmAoEwD6vIWobDOms/6JI3wWKQgPf5PDtJM4+Byvt1FHmPnyg5yADWr5dp78ELZVpR284+RIHjc5FV9QxzwQ97CoTDDUuaetsTtulAQtyja+DwUCwSYDGQZdhET1Fi6NrjuQ/qKEJc3UEsLXTt9ebyIKmOnQk42cnRQK3HGYypF7GzNlhfPCAhjqO6DT5BPEE1fLBd/WsJfqGl/UFf/LIKghqLsFo6Wyjq276RAM955ThyXXKMqZ2kUiCN+pED2CmLuc9OijIH3nVE0yLky9QarePftFxTt+u4Zw8Z/ymXvChk+gI9trlluAXOtqQTzDAvTbhNfSMsbES/BKAoY/kJEf6UNeRe2UwFnwx/tZKOzWtHelXfeugYJIAt3VcXsbX/LE7yyukY/BLHfMlgbrUxzfaAq14tftOYCh4aCcYJrBI3zzL9B8MlVvHBLasn4Iz8siUPgTPBL20F8jBV3Cz5tiJbA30Gq0gJBwc6Hg+CLzAwncVgwNZPDvtWBJgyc6izAl6JEAr2UEpmGWcM05ZM/A59qfP7KxyrT8H/UJHEoA1JiMGnrN0An1nbR3mpXluvnjewU6+fqP3fvAxB62rnt3W+dQRrIU5fU99ZfqAgcChcbMW+bFLf+Qxfs528yqnx8bWR/mDQ7DMOKHrcK/MDxZ02Lot+B07I7z58c36JjgZvSI/+mQQDPWsdkjjs3bO6J8iUASKwIYg0ODXhgxkxSgCReDbEYhxbbeFHQ5eSWEUMkQZtDGAXTPOOeyMUga64BcDNkYzw9+rSRwrDh6jUZl8u3e8PpTEePUrK6dq/PWXkRujmOPEMY9DkI+wo4mf8BcjN2f5rhm8uRaM8LoDeQVhyEpOfTCO9RtHAu/6TOLYezUn9HMWuGJMB0OOkJ0XKccn/OL4yI/jy5i2u4WDlQRXxjca+IGfNpwXB14FOuwOgF2coTEAFl7Q5HAKMuEhtDJWI0/hV15wTR5+cw0TDg0HVtBAXW3gzHkSmBEckzh4CYTCVb90LN+zQcfOB+3oGjp4zBjE6TA26Qc9stBBga+MJxxgic84QOh55U6gU9/yyeK4+c1vPu/8gJWDEwMrjhfnDPZ0gx7qz6Fvu0B8H8x3wiQOrFeK7JoKvtHd6F3kQMOY29mQ3WqCPMtXcwRIvWpH79OWXAJuxnzcmZWx5BBmJ4sdNgkgaI8POiWQIrhDH8iHpjI82WkpGG1Ocyg51sq1d7aLxrgK9uIr/SqzY07ATULHXM+Y0VljIMDj9Wr9ZXzsKPH9LmOXMUDDtWBRdmXow1g6w3jsO5g7B2/zQwBPsjNSUHQMQKqbdsZUIMO8sx7Bhzz6Gg/9B8vt8snkCA/h1XpHt7wuTp9G3o2ZILB5IAns6yc08Cx4kp0mgj8CTsaWjqGnH/2O+LjWj3wYmlt28Ziz1gn4WnPG3b6RyZwVFM6ct94IktCffDQdr9Y8uohnr4nqR7/6TKABn+aS3XjGX8BC8qpp8Hc2L6JnkSf8CHxY8wXUJbpE//QHJ+3MF2Oe3WT6115d89OPHV4x1FewEfyyA8jYCOjrBy38aysIZ76YC8ZBXjC2M9CuYGuPJJAjUJJy2An4wNorfeZXsEFHENNclfSD/7Q1XwSirJF4c0jkQE9ATNBJwpugduabMTde4TXyROfc0xn8CBBbJ5IE1fNfdtHAD3wFtgSs5cGGLpHVPDeeAoB2uoV/fVubBcXwTnfzHFDHYb23Y0xwUv3wR1/sBPOszXNNPYFF9XLgPf/Axtwxx/2wpF50Ca/kJatgoznt8wJwjB4KqKqPrvrhL7opP/OADvjBImMON/PI0VQEikAR2EQEGvzaxFGtTEWgCMwIcGoZcYxqBr8PGvvlmjEs4ONVPb+E+qWWA8tZsHOAcevXesYi45jTwakWQEDDbhEOlgCHV5A4/H4x1VbSp3uGPueToyAowbjVH8fAbhxOm8AE498OAsZyjG2BA7/8Crb5tV5/fnV2b9cH4zbBCMEvOxY4EPolK+Na8E3ba1zjGvOZAS4owTGNEY5Hrz3hSxACLf14tW1MXnMSVMMH59ZrbM5wFPxzLfgASx/1jSPDiNcXGe0I4lToT19k0S8n0E4ZOMIwvz7rXzuHhE74KWGQ5QAAIABJREFUZqz7z1nk0z9+0MSDawfe9EEe1ykjo3zjARvjEYdRkMtYcJTV44TlVRh9w1gg0G45ZWjaAeFVIilyC7jQFbvY8ChQxdGgU5wXDgid4rwKUnCYvKJjBwt56W5k9QqY+py26IfgpB1RPnKMPn2li3YFCXYkUBcsjbPXcfRB/wVoOMqCB16Jofu+eZRETnpCh2AHJ3jAhcxkdy+YZOehb9HQO06hvuwOQdMOIFgJjNmRABMBoOiPMZBvB5X25gWdkE+nyJfXBznFAoHGLu19t8crmPSGE6cfbemC11QT2DCn6Z9X+bTN2HIc6ajdkHAkF3kdAmMCIZJX08hpzeDkm/sCtZx9fXLujZHDK5IJ7HBKk6wLdmgkuEMXfCeIvOjii2x4I4PAYwL11iC74sxDYwNfOmYN0Z/X2YyRdq7lmWtwVZ/j7dVbY2c+mDOu9RV5XeceH8F5LMcjnPKtMHPBvbGCg3XOuEd3yU4v8aUtWtkxpwxO9N1uJLsuvfaGN0EfwYcEzOAKY/n4thZZM/K6YtYI40Xf0i5OPty8Hk5/jLE5bvzojnGhs+HHGT8Cn3RVgCy4CEZEjxOogC8aAsf6hhv9sy7AGr/wIZd7ffs+mDXMPBVwQ4sO0it19UM+ATXf76Mf2pp/Xn81x605XhuFP2z1Q2cFFiXzxdoKezTRMP8FSeiF4CndM24w8Qz0PJLgaXef8aRXxg3f9E17ay9MPA/Ipb1dU/TS2MM267F65s74at3cyYnBL9hJzrm2E4lukV3fnoXGP2snfTCP6ANM6JQfMARS9T8Gg+iqNQ6mMBLYFMSyO8yPXOazfNh7XmsvsGhtNJZkFJz1XMu8Nm74M9cyxvDxg4EAYjC3LtMhwWcpAWH19I22sQv+9DG6rL71i95a2+iWccQTGfBDP+gPfUg7/XumwT3zPGOorTHXp29X0iV66DmR9uPcnZnunyJQBIrABiHQ4NcGDWZFKQJFYP8IMPAY/RwNznKunR0CF4xvRiDHIDs0/HrqVQmOMieaocnxZHT65X+Z1JHQY4S7V48Dql8GrkN7PKnDcM6vtQJuHEbBAP1wxLTlmPjWiI8v51djTh4Dl9ORxBlzxKnSl/45hq7jkCvHG56UqaMP13FKEzxxLx92OSKToImDEU1mWDLy48jgCz/6VY5XNMimjXtnuCalrbHItbJccz7Q4lTgiyOInmu8wAlm7iOT++AYGdTTLkE6dN0LJqqLFgxycAwcoam9umQL/8GMTLDlLNqRwmHPGHPi7PQQxEKD8+1AAw8SzCRBC86ewJdgiGsODp6NQXA0RtpH/4KVezzhWx08ZZxgr9+0IYc6kjzyG09t1A3GdFLfcCQfDJSPSZ/wV+ZQDw/aGC95kV1d5cpgC7vMS3S1U66dcdE3vpWRUzleQ1O/yskZfdce3+YA+hl3PJPZffQJLXWit7A2X+TpA494NX75kLxxyXcDg8NyDARSzW91HdYZMpnr+iQXrJ0FK/MPMKxBaGdnXXgmExnxDhe8kQ8u8iXYSJkL+FbX/XiQaTyUpR7ctDNeeJXgSlezPumbDDCjh+YuHYKbsVRuHqCZMYmuqw9j+fgWuBGgNV+y28X32gT0jJHxgm3mSOjgj4OfIIm2goyCGRJcyJjxlBdeXcMq8xfv6pMbpo7oXcaVTEnkdOCBnMbRtf5gFJxgRMb0k/bRQWMa/UdPn6FnTOg1bNVDK3qjLzjDBO/O6qfctXL9oqsPY6mdOmRBF5baOpMZ/zBQ37WEDvnQNB7GVDlcjGHq4l0d+km+6KJ6eJTGa31mLGGvH/L6ZprAT8bVDwfmg3HFu3poh3dySMZWvr7Ioi555cPAmMjXngz61Fa5fOV4j84oixzqkI2s6KqjH/zCEi00Ms7600YydjCFj361dy+hAROH5KycDugL7g60k0LXfWirj2bWBnK7x6drfWf+aJexIWOuQ7/nIlAEisCmINDg16aMZOUoAkXg2xCIYcd4ZIDGIM49Iz0GeBpr4/CLeYJfnFSvYAh+xQhWH730wbB1H3px7mJI6j91Y4yPBqaPQtulkJ09vlUm4TXtXGvj12mvlHAMOXZ+PWboxsgOXWd5zvhwhG+0xqQO3tNXzmMb1+EhbdVLHdeOsX/1tEkd98FGPv6CmTLX433ynKWULftIvjrpK3J/s+W3/9UmdPAUrPDlGGmNrdVNH5FlLB+v9QETDogdXHmNik551dBul/Qbpy+00cHf8hsy2vqHBBxoTk/k0E8SfZTkRRb3aMtL8AD/jrFO2s0ETvyTfpKnT4e26Td8OytzVh65tI2srtUZ26a9OrlWL3XSd8aVk6duUuRAV8o55Tlrg6e05aySX5/Rh5xHPrTRh6QtjK0T2cll7gpwGmsJjdBJO7tH8/qacbQbc+RTPVijz7EXAEJXkNsuFztbstakj+CYvsjiyP3MzOLP6CwvirZuR9mjH/Icud+qfCLewTT5dHTkI9faR+6xH0EpOAvKCOrb3ZrXx7ymZjcSGuqkvb5coykgYBcPzPIKLLwF0+iLpG36FERIwnv4Mw6uI686ruUF7xEDOhp+nHOMeLhOv+ihFRrR8aVOh+exbmiHb+cRz+RH53K/PI/8ho+xTuRPf2Md4yopG2VK3kgn/YxYKncfmuTXnyQv+eooE4Sym4o+5BkpGGqnLl0exzR9o5e+rXd0C73kpZ7zOE7BbTley3vt1HWM7fGTvgXAIlf6C/3MQTxtl6ITykIP78lfnvGQgJh6Szlhqk2wTf8ZS3zoR/my7Xb8Na8IFIEicDAi0ODXwThq5bkIFIHvGoEYjWnAQIzRmDx1GKQx/OQLOPiVmePkbOeXV7tiMKoTOtolxZB0HyMzZTEuc58zOl6B8FpHHN18cyuGsrqu0fTqmO+LcJ4dXr2I0auefnKkjxGH8EuWGMnJc871SCPX6uPBfeqlD3LIDw85q6eN/jgp2yV10HZe0h4N8RFT1+EhPCUvZ+WhmX7dK5dCO3ynTs7RF+V4Tz/K07frcZy0Cd3QEbDwao5vtdiNIpiRD5KrL2kTPsKfs1eG4sgbbzrpG1WjLoZG+nPWNjrq3vXI81jXNXrpN2XqO5bypNx5dDzxn7rLs7rb8TnSGq+XvLrHn2Ms2w5vdCJ7cAg/6SM0co7s7smRfsi3bIuGPK9SCsj4Po/DLhj8oJEj/Tl77TEBHcHrvAIoyBE+Ut9rdF6JtSY4OPtel1rymfrOI42RZzzBI23ThpzLAw315C/buR/7cZ+80BzxCu1giSf05Y/jo81I148MXifLGmfO+F4cjCXtc0YbLYcdPHZ+mV+OtPf6WLDJeSZw4p/o/lIW/QSLERfNxrq5Vn9cC8ir/Sg3WcOD+q7THl28yBvruY/M4du9g9yhp5+R1tgGPXXlBe/IkfZpqx6+x5T1Rh/LFD7ka6euPHXRkvSxbCsglaS+OuHNfZIdVl7Xs/bRBePqlet8Y0y91NdHME/7sV/1wlNkdA4GzqE10tUmdCJf6Khn3INf+k371NPPso688KFffaQOXtI2NJWPefvqV/2RVtrra9RR+e5DM7ykfs9FoAgUgU1CoMGvTRrNylIEisBJEGD4xdCNMakCg3K8j7E3Gry+1ZGPazO0fQw3/+kKDYZiaKR9+osRHWZirI70GfhpJx9tO7h8h8nZh+tDJwZs2nOKfYfGd0K8CuKbIl5jiGxpl/7dozGm0EpeDF8yxflQpl7KUjf5zuqP5YzoyKXPkZfka8fZ50CMbeWr4xj5Qyf3Iz15yQ9Puc9Z/r6SOkse8R+sRtmC4dIB9Mu+hJb6o4ypK0+9293udltBLI65AKZ/ec9hDw4j37n2alx2OwjE2gnjey/ZJRN+nRN8DU5ooB36eMWPus7GeizTLv0Gt9w7kzG0XUujvoSm/PAlzyGhoX2wkeceD6NDlrbpy9kRXrRDI+Uz8UG2tF/2Ix+N9DXyFRqRZ+xLmXv0grG2oZfy0BgxTR5eBS3NW98x8h0e3ylC1xEZUz/fXBPMsQvKtwZ9C0nCY2THwzguyqPH4SN100/kT1/7OpMRbe2k8Ooc7OS7Ds1gn75De6Qhb8Qu/EUO6xmZBTvMFQEPHxy30yd6h8bYB/peIfOtowS+tLd+57XHjJlx1L9+7QqSwkP4dK9+8lNnzIvM6oQensLjSGvuZAiaaaMeepL2jsiUfGf5kmvHWCd9KA/PruXTE/Xlj/VCS57yJHTHe/l4jJzuE7AKXXmhrZ8k5eFzzMt1ztqiHxramWORWT07vwS/rIPWP+PrlWDffFv2M/Kqf3TUke9+Oxn1MfKuDn7IPuarlzLlaDvkjWuN++iAfscyNHKPBt4iu7Kk9Is+Gs5JqR868nOtnf4l9RzyIv9II/WUhaa64T11ey4CRaAIbAoCDX5tykhWjiJQBL4rBBiaMSJH41JjhmDKfOg33+bheHnN0H+rYpSnnTYxLGNEylsas2N9RqbytM21V6V8g8NrOHY9OKcsBqw2+sFDvp9jxxdnJK/HqBMZ0i86yRv5VB5HXrsYz+knxnDaxhGQj2b4U395n75ThkbojWXK3afM/TJpmzbLeu6Tp154SpuUOYfHMU9fyXc94hM+OMdjG2OIn/CUeqHlPJZxQO388jHq/JdIzpuPnftoMl7HlOBLZMk3vwS+EgQTREk9PKe/8Jm2xix5++J5mT9ioO14Hz61SR/JG3UQRpI66o40ltejo5Wy8DzqZOg5j5iN466vMaUerHIdOqPckWXZX3hTHpm0l5827tHPvX7wn0M/GSu65Ls7+eaOoKh64W281kZg1NrA+fe9H/VSd5TTtbbhN2XhBW/Kx4QveTmCR+plLLRxrXykk3r6iOzqjO3ky5PGtSZ4RGfCg3raCGIJ7OeD9QJYPkwu8J+26gYL7V37NpKPfatvvjgffvjh84fDE7TRLry7lkLHdeqNdfAUGdVxrQ3ZxnqRPTLnXp2R75SP57GP4AKzkTd9j/2lvXGXn7KRljbhA62RD2WS/FE+dNyHfspylp8y7ZOPtvz0l/NSL7/Z6zdlSVs8pN4os2v64MP8Al/Z+eWVYDu/0t45/eEhNIKJPl2nj8znyDLyHf5yNm+VS9Hj4Ihm+lKeYKrr8BYe1Audsdy1MjyljXrape1YP3XkaaNu6IYXdcZ6KU9fztKIQ/oa251YraciUASKwEYg0ODXRgxjhSgCReB7RSBGHsMwji/j2M4rH5b3r919p8e3mfwXrdFQ/F77bLu9h4Dg1/HHHz89/vGPn/8rmu/HPeUpT9n6T4YQ4bjFcRkR8l8d/QOE4447bv4vav4rnA9ANxWBgxmBONqjDNZh88A6+8xnPnP+b3T+i6B12Mfu/TAwJvUTzJAvWPjc5z53nmPmzKMf/ej5dXU/LKjr2G6OjTR7vTsQMFZJfuwxrv4DJl2wY9IPB4KdSep7no/tUtZzESgCRaAIFAEINPhVPSgCRWBPI+DX2zhho1M0fgR7BEjdGNljfq+LwHYIRLdSxrGPc5bAqzL1xrqpl7rquKavo7Mfuj0XgYMNgej8qPeuzYvt9J/eZ85Yq12nbWhth0F2USlL/e3qNW/3IUAPMuYZP2NoLRzXwfHZHf3ZfdKUoyJQBIpAEVg3Ag1+rXsE2n8RKAJrRYABnQDD0qAeyzAZo3utDLfzgwoBOhUHLg465ywOnbOAljrbpexGVEYfUy/tt2vTvCJwMCCQ+eC8TFlr6XvKx3mjftZt1+qYH+aSXWOuzZ3Mk9AJLeVNux8BQa1x7Iy5I8Eu42m8sy6SKGO++6Urh0WgCBSBIrDTCDT4tdOIt78iUAR2JQIMZoa0w3WMa8zmfuls7UpBytSuQYCDPerMkjHlo9OmPLo21kVDfs6um4rApiCQdXc7eZRZi8d5RP/HoLD7fc0J7ce0v7pjvV6vHwFjN4571r9wZiyX42s9HZ/dqdtzESgCRaAIFAEINPhVPSgCRWDPIjA6TKPBHIdLcEJ+DGznHHsWtAr+PSHAcYtj5np06pYE6RjdtItFooOjfua7c8t2vS8CByMC+1pTva4YvTdf1NtXMrey60ubBEaSp738nPdFp/m7C4FxzDN2xnb5o0HWzLH+7pKk3BSBIlAEisBuQKDBr90wCuWhCBSBtSCQ4NdoMMdx2hdD2qizNL73Vb/5exuBOGx0ZpnijNMpgdbo47KeezqKVtKos8nruQgcrAgs9Xl5b711mAMpM2dyvZ3c+5pP6Iw7x7Zr27z1I2D8MubbcWP8s25aS10n7WvsU95zESgCRaAI7E0EGvzam+NeqYtAETgRAUZyggqu7RRIoIJj5TrfkNmfo1VAi8C+EFjqTZzvpYOmXpx719HHUT/TR3Q09z0XgYMVAbo+zpHcW3fpvvky6vvy3jwR+BjryFNPck5gJHPpYMVqL/OdcRzHdsTD2GZ8M95jea+LQBEoAkWgCDT4VR0oAkVgTyPAkGYwc7hiOANkvA5AqaNsu/LU67kIQCD64pxE38b7pS65j06mTWjlXp2RRvJ7LgIHEwJ0eDxG3kf9FtQyJyTXee3X9VhvX+3VSWDMf/GVGhwZ0dq918Y96+H4zM2404WM7agPKd+9kpWzIlAEikARWAcCDX6tAPXxV8g8hMeH9Aq6KIkiUASKQBEoAkWgCBSBIlAEikARKAJFYMMRSBA/sQXn/nBz8ge9wa+TieGohPl1MXkNgJ1McNu8CBSBIlAEikARKAJFoAgUgSJQBIrAHkHAjldxhexuTSCM+Hmlf49AsXIxG/xaAaSnOMUpphxHH330dMpTnnK+P/WpT72Vn/Kev4VVsSgW1YHqQHWgOlAdqA5UB6oD1YHqQHWgOlAd+KYOnOpUp9qKIYgtjLisIHSxp0k0+LWC4T/qqKNmpTzkkEO2lDOKKhDWoxhUB6oD1YHqQHWgOlAdqA5UB6oD1YHqQHWgOrA/HRDsOuaYY7biCtlQc+SRR64gcrG3STT4dTLH3zZECnrYYYdNorTOY3S21/0VozpQHagOVAeqA9WB6kB1oDpQHagOVAeqA9WB76QDAmOpkxjDoYceOuf1s0onL3jT4NfJw2/+j29RTmeKefjhh89n9yK1PYpBdaA6UB2oDlQHqgPVgepAdaA6UB2oDlQHqgP70wExBG+UjTEFeYJi4/e/TmYYY082b/DrZA47BczrjhSUYtqS6NxdYI3s04MexaA6UB2oDlQHqgPVgepAdaA6UB2oDlQHvpMOZJfXEUccMfuRiTHIbzp5CDT4dfLwm6OvFJhS5uN0orJS/jXpyeyizYtAESgCRaAIFIEiUASKQBEoAkWgCBSBDUfAf3uUEltwTgCsrz2evMFv8Ovk4Te3FvzKu7lR0m5JXAGwJVEEikARKAJFoAgUgSJQBIpAESgCRWAPIZDviie2kFjDHoLggIja4NcKYG3wawUglkQRKAJFoAgUgSJQBIpAESgCRaAIFIE9jkCDXwdGARr8WgGuDX6tAMSSKAJFoAgUgSJQBIpAESgCRaAIFIEisMcRaPDrwChAg18rwLXBrxWAWBJFoAgUgSJQBIpAESgCRaAIFIEiUAT2OAINfh0YBWjwawW4Nvi1AhBLoggUgSJQBIpAESgCRaAIFIEiUASKwB5HoMGvA6MADX6tANcGv1YAYkkUgSJQBIpAESgCRaAIFIEiUASKQBHY4wg0+HVgFKDBrxXg2uDXCkAsiSJQBIpAESgCRaAIFIEiUASKQBEoAnscgQa/DowCNPi1Alwb/FoBiCVRBIpAESgCRaAIFIEiUASKQBEoAkVgjyPQ4NeBUYAGv1aAa4NfKwCxJIpAESgCRaAIFIEiUASKQBEoAkWgCOxxBBr8OjAK0ODXCnBt8GsFIJZEESgCRaAIFIEiUASKQBEoAkWgCBSBPY5Ag18HRgEa/FoBrg1+rQDEkigCRaAIFIEiUASKQBEoAkWgCBSBIrDHEWjw68AoQINfK8C1wa8VgFgSRaAIFIEiUASKQBEoAkWgCBSBIlAE9jgCDX4dGAVo8GsFuDb4tQIQS6IIFIEiUASKQBEoAkWgCBSBIlAEisAeR6DBrwOjAA1+rQDXBr9WAGJJFIEiUASKQBEoAkWgCBSBIlAEikAR2OMINPh1YBSgwa8V4Nrg1wpALIkiUASKQBEoAkWgCBSBIlAEikARKAJ7HIEGvw6MAjT4tQJcG/xaAYglUQSKQBEoAkWgCBSBIlAEikARKAJFYI8j0ODXgVGABr9WgOu6g19f/epXp69//euTSeJwLclvKgJFoAgUgb2JwDe+8Y2TCO7+85///Jy3LDtJxd4UgQ1B4Itf/OKWJF/72te+zU7aKuxFESgCRaAI7DkERr/5K1/5yq6Sv8GvAzMcDX6tANd1Br++/OUvb0kwGnmf+MQntvJ7UQSKQBEoAnsPgfwA4vylL31p4vxLCYDtPUQq8V5CIAHe6H1+GMwPhT1/8wfT4lAcqgPVgb2oA1/4whe+7ZHIPhp962+rsIMZxkSM4VSnOtV8PuUpTzmfd5CFjeyqwa8VDOs6g18mhsSxScr1+CvnXlzUKnMf5tWB6sBe1oE8E0444YT50jMhv2zmnDo9F4FNQyDBLnJF3/MjYQLDmyZz5SkCRaAIFIHvjECeDx/96Efnyuyj/GDynVvvTA32a4Nfq8e6wa8VYLrO4FfYN0FizGXy5tfO1Om5CBSBIlAE9hYCeS7E0PPjSAIBewuJSrsXEWCfxUY7zWlOM1+7P+KII7auU6fnb2JVHIpDdaA6sOk6cOpTn3p+BuS5yFZiJ43+dMrWdW7w68Ag3+DXCnC1QGQrYrYmUtidTHFwPvWpT81BMAGwBMF2ko/2VQSKQBEoArsDgXFLv6BXnwm7Y1zKxc4hcPjhh09HH3307OQccsghJzlvunNX+RrAqA5UB6oD2+vAoYceOj8P+M9so2wYYSvttA+/rydig1/7Qubk5Tf4dfLwm1tbWNYV/DJpvZu8dGoYfF3wtl/wiktxqQ5UB/aCDsS4y46Xww47bEoAYAWPvpIoArseAfOc/sdGO+aYY7ZsI3k9ikF1oDpQHdh7OhA/2UMsga9sJFn61Ot60DX4dWCQb/BrBbgyriyczuvc+WWy5td9vNjS2QV97y3oHfOOeXWgOhAdSADMfQIBzk1FYNMR8HrvUUcdtRXssgNMAJj+x/Fx3aMYVAeqA9WBvacDfgzxnOA/CzQ5PvvZz+6aR2ODXwdmKGoBrwBXC2Yci50OfiVaTYx808VEzq/7Xcz33mLeMe+YVweqA3kujcGvPKcEABhVTUVgkxGI43DsscfOAa7ov7mR7710rexaWR2oDlQH9p4OxE8ed3ll51f/2+MmWwbT1ODXCsbXohmjaqeDX9jfzokZ+QlP+cUz5y72e2+x75h3zKsDe0sHxp0vef1RQGw0+FbwGCyJIrArEVi3fbYrQSlTRaAIFIE9hED8ZM+D8YcPvvIype4yfx33+QEnfnx8+3Xwskl9Nvi1gtFct3G13UTNBDHJTZp88DWOLyeor0X21Sh60qMYVAc2Uwdi5B155JFbP9AkbwWPvpIoArsegXXbZ7seoDJYBIpAEdhwBOInN/i14QP9XYrX4Nd3CdT+qq3buMqkHnlM8CvBLuds51TPO83btRtp9LoIFIEiUAQOXgSyu8v670eQI444Yn79y/X4PDh4JSznRWD/CKzbPts/dy0tAkWgCBSBA41A/F3Pg/wAmGfDsu/UXeav4x4vsd/Cr3PTyUOgCJ48/ObWo0Jma+JOTp7t+hqDX/nvRqkXh8i3wZqKQBEoAkVgMxGwxvsu5GjseV7VeNrM8a5U347Auu2zb+eoOUWgCBSBIrCTCMT/9TwY7SG+8jKl7jJ/Hfd4wXNiC/Ht18HLJvXZ4NcKRnPdxtV2EzUTJJPca4/5OP7nPve5abd8zG8F8JdEESgCRaAI7AOBE044Yf7PdvneFyPKa5Dym4rApiOwbvts0/GtfEWgCBSB3Y5A/OQGv3b7SO0Mfw1+rQDndRtXmdSjKAl+4S2H8rzqYveXYJi2PYpBdaA6UB3YPB3Ieu8ZkP9slPP4vOh1EdhUBNZtn20qrpWrCBSBInCwIMC+lTwPsikkz4alDKm7zF/HPV7w2Z1fq0W/wa8V4JkJNCroTk6e7fpK8Mskzy/+ETW/+GvXoxhUB6oD1YHN1AFrvh85PJschx9++Hw+9thjt3YC57nQcxHYRATWbZ9tIqaVqQgUgSJwMCHAxpU8Dxr8OphG7sDw2uDXCnBdt3GVST2KMga/XDvUy6uP+e7X2KbXRaAIFIEisDkIZL33jDr00EPn50B+QewzYHPGuZLsG4F122f75qwlRaAIFIEisBMIxE9u8Gsn0N79fTT4tYIxWrdxlUk9ipLg1zjRlW9Xd2zX6yJQBIpAEdgcBKz5ngMJeuXZsDkSVpIisG8E1m2f7ZuzlhSBIlAEisBOIBDfd/SJ82xY9p+6y/x13Nd+OzCoN/i1AlwzgZzjYOzk5Nmurzg440Qn6nZ1VwBBSRSBIlAEisAuRKDG0y4clLK0Ywis2z7bMUHbUREoAkWgCGyLQHzf0SfOs2HZIHWX+eu4r/12YFBv8GsFuGYCOTf4tQJAS6IIFIEiUARWgkCNp5XAWCIHKQLrts8OUtjKdhEoAkVgYxBIQMvzoN/82phh/Z4FafDre4buWw3XbVxlUn+Lo2n+tgu+xomufLu6Y7teF4EiUASKwOYg0ODX5oxlJfm/I7Bu++z/znFbFIEiUASKwCoRiO87+sR5Niz7Sd1l/jrua78dGNQb/FoBrplAzt35tQJAS6IIFIEiUARWgkCNp5XAWCIHKQLrts8OUtjKdhEoAkVgYxBIQMvzoDu/NmZYv2dBGvz6nqH7VsN1G1eZ1N/iqDu/Rix6XQSKQBHYqwg0+LVXR75yQ2Dd9llHoQgUgSJQBNaLQPzkBr/WOw67pfcGv1YwEus2rjJsVn28AAAgAElEQVSpR1H6wfsRjV4XgSJQBPYmAg1+7c1xr9TfRGDd9lnHoQgUgSJQBNaLQPzkBr/WOw67pfcGv1YwEus2rjKpR1Ea/BrR6HURKAJFYG8i0ODX3hz3Sv1NBNZtn3UcikARKAJFYL0IxE9u8Gu947Bbem/wawUjsW7jKpN6FKXBrxGNXq8LgW984xtTjvDwta99bb50ju46f/nLX97Kd5F62ktf/epX5/pf//rXt+pppzx0FCzv5SlP3dBLvvvt2ihPX9qGH/lS+sRXkuvQT3nKei4C60CAHnpG5XuUeTasg5f2WQR2GoF122c7LW/7O3gQiH0RjtkOSxtitCNiW6R+2sd2yn3KnbXJkXz11U19feg392nnPNpprsODurkeeQyNpb2UvnsuAutAIDra4Nc60N99fTb4tYIxWbdxlUk9ihIHZ5zoyrerO7brdRFYJQL0zRGDCO1cxyBTPhpK0dEElWJgha/k595ZnRhjrkMj57Gu62Wf2qD7la98ZT7jx+F+OxqpnzqhLz/9f+lLX0p2z0VgbQjQX8+BBr/WNgTteI0IrNs+W6Po7fogQIDdEXsi7LIrYieN9ofr5I92kPpjUof9kbop0+Y72SXpI/TH/kOHXZSA29IGijyp23MR2A0IRI9HnzjPhiV/qbvMX8c9Xmq/rR75Br9WgGkm0KigOzl5tuurwa8VDGxJrAyBGGF0laEn5Tzq73YG2xe/+MXZ0IoxlraMrrHtkln01XHW/9Io01b+/mgo0z5184vpsq/wFDm3K29eEVgHAnR3fDbl2bAOXtpnEdhpBNZtn+20vO3v4EGAPfH+979/+uhHPzq96U1vmt75zndOH/jAB6Z3vetd01ve8pbprW996/TmN795et/73jfns48EnpLYJvJi4yztj9hIzsvErpLS1jnXqRva7vPDYGwpea61WSb9jfbasrz3RWCnEYid73nQ//a40+jvvv4a/FrBmKzbuMqkHkWJgzNOdOXb1R3b9boIHAgERqMsOsiY+vCHPzy96lWvml772tdOr3/96+frN77xjdMb3vCG6TWvec10/PHHz8bf29/+9ulzn/vczFqMNjcx7lwzwkLbeTQSUz7yESPOeWznfjTetjPu0FOPcZjkPsl1jb+g0fM6EaDbngPd+bXOUWjf60Jg3fbZuuRuv7sfAUGv61//+tN5znOe6axnPet0qUtdajrvec87ne1sZ5sueclLThe/+MXnsgtf+MLTDW94w+l1r3vdllAJaI12h0Lrvbyl/SOfvRK7ZNkuhNN+LHc93gvajXaYtvJiD6HRVAR2EwLRydEnzrNhyWfqLvPXcY+X2m+rR77BrxVgmgk0KuhOTp7t+mrwawUDWxInG4Ho5hhASpBKMOu+973vbPCd//znn85+9rNPF7rQhaYLXOAC88EgdH2Ri1xkrvPYxz52+vznP79lvDG2xoTuaKDpW53woG76do7xONIY6yY/dJW5zj3jcqw/Xmu7vA+9novATiJAD8dnU54NO8lD+yoC60Jg3fbZuuRuv7sfgbe97W3T5S9/+enII4+c12g7UrI+H3744fO1vEMPPXS64hWvOL3sZS+bbRq2R2wd1w5BreRFcmt/AlLsnWU5WyZJe0fsltg6oZH7kYZrfY900BvrhH7PRWCdCESvPQ+682udI7E7+m7wawXjsG7jKpN6FCUP0HGiK9+u7tiu10VglQhE30bjSB7j6JOf/OR0xzvecYqRR1cZec6O7FRxfYYznGF63OMeN7PG2EoS3GLUoZ++UjYaYMrUkTfm537kT3v5+YXU/Xb0009oh36MzO2Ca2nTcxHYKQTo5zif8mzYqf7bTxFYJwJ0PzqfZ8ryWbFO/tr33kXgYx/72HSxi11sXp/ZPtHTnOkuR53eXuUqV5le8YpXnASs2C2xNdzHDklFuu4Y7R4/Io52lLrLObFsow4agmnO+hnbpF9nKTzNN/1TBNaMQHQ1c8o5z4Yla6m7zF/HPV7wmWdX1oZ18LJJfTb4tYLRzAQaFXQnJ892fWWC4ClRbqJuV3cFEJREEdgvAjGIUsm94Nftbne76TSnOc10xBFHzAu869Od7nRzsOv0pz/9dMYznnE605nONNkZ9shHPnL61Kc+NRteS8NqSZ+ep46y5S+aysY2rse5kfbZXeY+xqO2jEdJO9v/09dYb6QXuXsuAjuNAD0cn015Nuw0H+2vCKwDgXXbZ+uQuX0eHAj4xpedX+weeuq42c1uNj3nOc+ZXv3qV8+fffCq4ytf+crJ5yDGXVzW9dz7Xth73vOe+Vthzj4TgbZ83xDz3bCPf/zjMyijLcSe8s2xd7zjHXP7D33oQ/P3xz772c9uBbg0YuOoo64DT9qi9YUvfGHu793vfvfcv++UaS+/qQjsFgRij5tj8YnzbFjymLrL/HXc1347MKg3+LUCXDOBnBOd3cnJs11fcXDGiU7U7equAIKSKAL7RUDgaKl7n/70p6c73OEO09FHH71l+F3pSleajjvuuPkbYIw93/3y4VffAPMraQJW+d4E4++DH/zgXO+lL33p9PKXv3z+dZSx6HthuWeQfeYzn9ni0a+e2jLo9OO7Y4xN94zE5a+iDD6vHKjnYEziwcHI1Navsi9+8YtngzPfJ9vqsBdFYE0ImHfjsynPhjWx026LwI4isG77bEeFbWcHFQLvfe97p8tc5jJb67O1+S53ucv0iU98YuvHtvzoRrDxOvYUW+Ra17rW5Ltg5z73uefvhLm+4AUvOJ3rXOeaPxlxvvOdb3rgAx84B6TYUAJXz3/+86d73vOe03Wuc5358xK+NWZ32a1vfevpSU960hwM058Al2+y3uhGN5r78DkKtB/+8IfPNpUfJS9xiUtMF73oReddbJe97GUnn6hY2lAH1cCU2Y1DIPNl9InzbFgKm7rL/HXc1347MKg3+LUCXDOBnBv8WgGgJbFxCGy3s8rOrzvf+c7zq45+iXFc+tKXnoNR6juyoyqvNwaY/OIpn7F4jnOcY/5eGKPPK5KMPrvFnB3XvOY15/+YlKCZoNr97ne/6brXve7czsdlGY7XuMY1pjvd6U7T8573vOmEE07YCtjd/e53n7895rtkDvQYrugwHtMfGje4wQ2mj3zkI2G15yKwVgRqPK0V/na+ZgTWbZ+tWfx2v4sRsEvrcpe73NaPf4JfV7/61ae73e1u00Mf+tDpYQ972PTgBz94etrTnjbvrvKDYVJso2c84xmzrZPdLM5eoeSLjJ+RuOtd7zoHvwS+BKeudrWrzbvsU9fnJ1w7BLdudatbzX2ytfzwd9WrXnWmiUcHHv0oeO1rX3vL77GD/wpXuML8z4sEzZqKwG5BIAEtz4PMlTwbljym7jJ/Hfe13w4M6g1+rQDXTCDnBr9WAGhJbBwC+wp+2fnlY6+MKfNHEInRJdjkuM997jPd//73n17wghfMW+kFu/KLIpoCUNe73vW25h0aDLAzn/nMMz0GnTmJrl9IpWc/+9lzG/9diaF32tOedq6LB9faeBXhiU984hwA8+vnTW960/kVTGX6YBz675QPechD5v/SJO+www6bA2+PeMQj5l9ox19pN25AK9BBg0CNp4NmqMroAUDA2pznyzrsswMgUkluCAIJfrEdDjnkkNm2YL/4AY8t4tpnIOzK8oPbU57ylHkH/Pjj36Mf/ei5Plvm2GOPnWnQ+fFVSrvrfWLC64jPfOYz591h5oQ62qmfIx/fP8tZzjLbX36kfMlLXjLvUMMjXtW9173uNT31qU+dfwx0rw80H/WoR8074mOnbchQVYyDHIEEtOhqg18H+WCugP0Gv1YB4pqNq0zqUZQYe+NEV75d3bFdr4vAgUBgX8Gv29/+9lvBJ7p6zDHHzIYVoy+vQzICvRpw29vedt5+T4ezK0xAy39B8jDTlmGWdujl8F8k3/Wud83BMv9aPAafdr4rxqjTzj0H6aijjpqufOUrz68GwOMmN7nJFl11vEbwrGc9a/435QzIzDevBnhNU8ovswcCz9IsAt8tAuaLeRDHP7r63bZvvSJwMCNA96PzmQO1gw7mEd0c3n1ji20TvYy9En1lzySIJY+N8vSnP322f9hAkt3z+QFPezvFnvzkJ8871dk1aKPjdUaffrAznQ3DxlLfrnc7wZ773OfOPwqGlnZecbS7/UUvetG8Q00emnix4/4Wt7jFfB/+b3jDG86fodicEaokm4JA1nw6T//HubaUMXWX+eu4r/12YFBv8GsFuJpEeVjlIbCTk2e7vsLPONGJul3dFUBQEkVgvwjsK/hl55dfNvMgikGWeSRIFV32i+Qtb3nLyb8Hl9C05Z/xmIcZw+6FL3zhdOMb33jrV020vA4pKPWYxzxmOuc5zzkbbAxCH9P3Hyd9L8y3K/zCihf9CoDd4x73mHy/y260BOaUCX494AEPmF83UJ+BepGLXGTmx+uS3fK/X3Vo4Q4iUONpB8FuV7sOAetzniF5rtQO2nXDtCcZ8r3Q/8/enYDt9+31HL+czjxWGihDIUMDmZKh5BQpJXFCJEqDNDhkHooiioxFkgrHkDFlSoiigRRKnZBInVKRM3bqnK7b9dpPn+es/33u3///+/1/637W/Tz7s69rP3taew3vtdb9/e7PWns/b/3Wb735G/wKM8v5Ku/1Xu91eM/3fM/Nv9B2XdOO+Tk+iO87p2ZWacc+3eCae/ksZsmbqWXwTvi0fSKZj9/7HIR+4JrwH/ERH7HF55XKz/u8z9s+ISE+afKRvHLpA/zv8A7vcC3SueZ1R8KZ+K0+PeF7rfyyrLus1Bb6IgnkNz/9yNaq7R4vCXt8fsWxvMhnbFf684q83KU0K35NqM10oLGB3mTnOZVWOog8RRhQ1FNhJyBoFCXwqATuJX49//nP30YgM5roVcT3fu/3PnzwB3/wNgr5pm/6ptftV1smOpm2n4VgZXq+Ns44mIpvmj4RzCsAzukLb/EWb7F9S8xopZHNOJOEM69BWjiiHMsIcNJ7//d//+1bYR/4gR94LX45TzTjoHo9wbF0zEwjsOljytulBC6BgPaYNmob23AJeWseSuDcBMY2nweI+kHnpt7474fAt37rtx58ID4+urb6oR/6odsMd7PCfHvUrHW/2YQo1/lAPvfgswp8Ft/iyquKhLNv+qZv2v75jm+HuS+rb375Zz1v+7Zvu8UjLuvHfMzHHPJfrf1jIfEnLb6Qzz98wRd8wSam5bMP4uRT+f6pvFt9WkK4Cl/3U/MNc9ME8puvzY/9TVs+XhL2+PyK4/pv56Fe8WsCV51JB7Jd4Vyd6qjJz9jRFfVU2AkIGkUJPCqBe4lfZn4xRMQvDpePvxKjvv3bv337r4nEqMwME46T95mf+ZnbfysyUknscs69b/RGb7R9JFYbJ1blPg4bB9J/dSS25TUC541m+naX1wH8l8cP//AP30ZD9RvhiGj+hbeZX47TvwloRj05h+Kxuvfbvu3brjnEobw+0Z0SWECgztMC6E3yYgis9s8uBkQzcnEECFUG4AzG5YGcSMUXsXzLt3zL4R3f8R23Z4tcJ3D5hIPFjHUDcfFL3u3d3m37L43+0zVfynm+lT7APyGWmaHOX8ognw/XS4eP5lMOb/Imb7KFd4/18z//87fZ9ESz+E7ifed3fudt1powyZvvs37nd37nlrf+KYFLIpBn37G92q/4dUm1dHN5qfg1gXU6kG2MUDrahOgfM4pTaVX8ekxsDXCDBO4lfn30R3/05vhpr5w0o5i+MWHxX4nM1IrDRWDSx3yfwsKRe/d3f/fNkXO/f7f9OZ/zOdsoZmZwZYaXKfkcQh/QJ5KJR3o+bG9Kvw/I+vis/9yYPiyMmV8ELd+2iIMnzjd8wzfcZqjJm7Td4/UFrxzkP0qe6pdbxvunBG6QgHY42qbYhhvMQpMqgWUEtP20+fy297d5WXU04YGAgbW3eZu32X6ftVOC1Ad90Adt3xr9uq/7usNnf/ZnbzPY+RkG3Pggz33uczffxze6zD53jS/DP/IfrA3kfdmXfdkmmsU3sTXwx89xf2aK8WV8M9Xril/xFV9xeL/3e78tDa9Dyg+/yaCh1yj9J27piMvWf8X2zdb4RfJhpr58WfoPf4aK7u5yAvnN167TZmMbjjOXsMfnVxzXfzsP9YpfE7imA9mucK5OddQ4e2NHV9RTYScgaBQl8KgEHk384milvZpN5b8FfeEXfuE2w8vMLE5V+pVvcn3u537u9jrAh33Yh21CVkYw3+Vd3uX6e2BEqziL+gBhzL/l/pRP+ZTtu14xfr7j5TUDI55GQDl70rKaOfbxH//x27c1/LdHH5vlLLr2Zm/2Ztv3w7yyIH/ScP0jP/IjD15l6H86etTm0Is3SKDO0w3CblIXR8Bvc+xL7Ej9oIurpl1maJz5lXbKbzFT3be5zOriX2QQz4ytT/qkTzr4D4/EKMcRsnyc/gUveMHGkVg1vg6p/ROrDCh6jVHY+EDi4M/4Fqq0nI+Yxscipnn9kkim/2QQ8mM/9mO3/z7pP1/HB+KL+S/dL3rRi3ZZny305RLIb75+lrafPnec64Q9Pr/iuP7beahX/JrANR3IdoVzdaqjxtkbO7qingo7AUGjKIF7EvD6H/HLMv4HRFP7jRxynCJgcfI4fByxN37jN76e1eW81X9T9FqkVwHyvS0C1uu93uttI5tehZSG1x6JUdq/+ziSL3zhC7fZXf4jUZw1193LGeQEOi+888Q0rxUYLTWTbPw34sQ037cgdgkfY2r2l/y97GUvuyePXiiBmyRQ5+kmaTetSyPgtzz+0Ar/7NJ4ND+XQ4BIZOZX/AdtVRvNzKux7Trn4/Y+0/Cpn/qp23+pdt3K1zFry+x1v/dmub/d273dFpe4xUmU8s97vDLpO18G+uK7pH/ED3PP8573vC0e/7yHH2SWPOGLnyRNg4U+oC/ceB8fSB7rA11OO2tOXvPsq+2O/U3bP14u6Tm5/ttx7cw5rvg1gaPOFOOxwrk61VGTn7GjK+qpsBMQNIoSuCcBzlPa3Sh++TC90cg4TmNbjcOW/uSakUczwr72a792E6vGa75HweHLVPv3eZ/3ecQH6olpHE1Clplj7/RO77T12RhBTqDRTumI14wu/xlSHi1eezQiG6fUyKxRW2He8i3f8no01HVlUuaXv/zl92TSCyVwUwTqPN0U6aZziQT8pscfis2IPbrE/DZP+yHg0w1Epfg+fAz7abParcE9s7jMtPryL//yzZcy8ysfm/eNrg/4gA/YXjc0yMgH8tqjD95nlpb4PuqjPupgcNBCAPuMz/iM7bVJ3xDLYKCBx3d913fdPg/xVV/1VQf/udricw5v//Zvf503fs7HfdzHHV784hcfPv3TP30bsJRGBjLNpjdjrEsJXAqB/OZrp/H708+O85iwx+dXHNd/Ow/1il8TuKYD2a5wrk511Dh7Y0dX1FNhJyBoFCVwTwIRpAQYxS+jkEYPfYDVf3n034KISvaNSlr9RyHf9TLVn+Nn8Z0M58zmMgPLrCzT8olNxC3LJ3zCJ2wCGdFLvMQu9+V1RCOT/lOkGWJv9VZvtc0y4wT6992+m/GlX/qlW19Jf/FvwsXj9QDfDPM6JhGOOEZok2fXOKJeR/Bfk3LvlqH+KYFFBLTD0TbFNizKTpMtgRslsNo/u9HCNrFbRcDsqG/4hm/YfIkv+ZIv2f7L41d+5VduM6e++qu/evvvjL6B6h8ACRv/xUDe13zN1xyE8R+mfbDegFsWvhAfhM8kjP18RJ89IJLxxb7ru75rS9t3vaRjKy3C1fgPe+wT6vhN0pVXafLt+HHu/fqv//rDF3/xF2/xuVb/J7XR7SUQSHscn4ljG47zl7DH51ccy0v9t/nkK35NYJoONDbQm+w8p9LKA448ReVW1FNhJyBoFCVwTwJ55VEAzlLaIIeKk+V1RA4VMYkjyFHjaDnmbHHu4vQRt+z7N+Cu+Zff+c9HEb44fmZlicN18XkdQNrCJD+cQelJXxzCEsjy34qEiwPonHiEtyZNZTL1/5u/+Zs3x1WerZaksx30TwksIqC/jbYptmFRdppsCdwogdX+2Y0WtondKgKjjxBfgygVH0lhnBdunEnuujWDiQmf+LJ1P7+HMGa1b3E99yZd50cBLXEIZ3Vv7s+97pF2wsZPc5xZZluC/VMCiwmkj4zPxLENx1lL2OPzK47lpf7bfPIVvyYwTQcaG+hNdp5TaeUBR54qfk2o5EbxuAhom2P75BTl2HZ0vOJAxbGKIyVhTtcYNplJWHFF/HLt1Pk4bmO8iSfXHCd/CWdkM+dcl0/hpcdZTL7iOLo2OqpJo9sSWEFA2x1tU2zDirw0zRK4aQKr/bObLm/Tu10E+A98jPgP8TuUYvQ7cl74hBWGH5JwPmhv3yocPyj+ibDxi0KIrxK/K36Nrfhtx7hzfUxbOjke4xa2SwlcEoH0kfGZOLbhOJ8Je3x+xbG81H+bT77i1wSm6UBjA73JznMqrTzgyFPFrwmV3CgeFwFO0Kn2mchOXcs5ztQoSmXf+Ve84hWPcOTi4Lk3Dl2cMufcMzpnvmUhXO4TNtdtOZpx4KRlSb5yPmWwdb/4kuZ4rfslsJKAdjvaptiGlXlq2iVwUwRW+2c3Vc6mc/sIxKdJzvkP8SEIYvyT+Do5H/+GH2J1HN8kYRKfLX/GdeHi49g/HizMNfcc+zjuj/iWuOM7icsijNlezjuX6wnfbQmsJJA+Mj4TxzYc5ythj8+vOJaX+m/zyVf8msA0HWhsoDfZeU6llQccear4NaGSG8XjIpC2aZt9EY3OFafLymFyXrhxX3jHxw6VsO6Lk+VYmDiA9rMII2wcuNHxSxj3JV/y4HjMs3vcn/hzn624LdLMPRHNxnDdL4GbJqA9jrYptuGm89H0SmAFgdX+2YoyN83bQ8Ascf5J/Jn4IMcl8DtuHWdjxcexFYfr9sVpX1zZHseXY9dH3yf54NM4H39HvK7F33JstcSvSpzHxznfbQmsIqCdW8Zn4tiG4zwl7PH5FcfyUv9tPvmKXxOYpgONDfQmO8+ptPKAI08VvyZUcqN4XATSNm3HfY6VY86UNUscrRzbJty47/7cF+FpdLiyfyxyxVlzb+4bw8TBs0268pSw8pB924RJ+OQ7ectxtyWwioA2Otqm2IZV+Wm6JXCTBFb7ZzdZ1qZ1+wjEJ5Fzv9WWYx8j50e/ImGcy3XbnBdv4s65xD3eM8Y53rNl5HDYZp5lX/zx0cSZfdeJYu6POJZt7u22BFYSSB8Zn4ljG47zlbDH51ccy0v9t/nkK35NYJoONDbQm+w8p9LKA448VfyaUMmN4nERGB0rEWirx+cSsWucJ07VvcIkbLclUAL3R0C/Gm1TbMP93d1QJXC7Caz2zx6G3ihaiIddHG1jxI3RB3SdKDGee5g8PNq98pc8JH+O5SFb50/lpeLIo5HttdtAIO16bO85l+2scuhrY5wGeMfj/C74pEeX1yYQVuMzcWzDceiEPT6/4lhe6r/NJ1/xawLTdKCxgd5k5zmVVh5w5Kni14RKbhQPRYBhHtupfQ46A35s1CXEcT52/B8qA725BHZKQF8bbVNsw05xtNg7I7DaP5uFe7ShsZ+JO8ds5hgu18+9la4Z1KPNzsO4tDNDiL3PDKFz56nxl8C5Ceh31uNFPxhF4ePr93ucPpQ09DF9KOelkTw4Py4Vl0carxHgx2fi2IZHhnxN2OPzK47Vb/23+eQrfk1gmg40NtD8WE2I/jGjOJVWHnDkqeLXYyJsgDMR0DY5ApzfGOxTSQk3rsI+WvhTcfRcCZTAaxPQr0bbFNvw2iF7pgTuHoHV/tnDEI0d9JB76mE6opI0hNXXb3JJvsa82c93rI4fwBPu+EH9JvPctErgXATyX77HfjkjrfSbxMWnto79fexTx+Fz3563YTU+E8c2HHNJ2OPzK47lpf7bfPIVvyYwTQcaG+hNdp5TaeUBR54qfk2o5EYxhQCDzUhbRwdBGz5l0Kck2khKYMcE6jztuPJb9O3BIf7QE57whO34lM90iaiOB4BiI7ONOJa8e+jNtfFhONdnb5O/UXizLw8WeZAn58YZX304n10TjW8FAT6sthyRN/1hVvtOfMomLf9ESdz5/Ur6jpMHYcf9FVwuMc0wG5+J8+x+nN+EPT6/4lheRm0htmxFXu5SmhW/JtRmOtDYQG+y85xKKx1Enip+TajkRvG4CDDep9pnImO8E+Y43CwHIml1WwJ7JKBfjbYptmGPLFrm/RFY7Z89DHH28dguHscXG+q8sOMD83HY2cdjWoSuiF7SudcDOLt+P+WandfGVwLnIpB/mpT+p1/cq/0/SB7El/6fbe4f+5pz43X9y9rlNQTCZ3wmjm14TairvYQ9Pr/iWF7qv80nX/FrAtN0oLGB3mTnOZVWHnDkqeLXhEpuFA9FgMNr5RRYGW7Oweg8S2Bsy8fXHioDvbkEdkqgztNOK77F3gis9s9mVANbyH7qy1YPti972cu2qMcZXsK5Zjuen5GHU3EkvfGac1nMVGHr5d0SP8D+GC7huy2B20TgWPTS92b3u/R3/ch+/Gic9C/npDlubxPDm8orPpbxmTi24TgPCXt8fsWxvMhnZi3n2X5FXu5SmhW/JtRmOtDYQG+y85xKKx1Enip+TajkRvG4CMTpzc3a6thex9EpznAMfMJ3WwIl8HAE9LfRNsU2PFysvbsEbgeB1f7Zw1AabaX9U4JRbKxrBLEcj7b1YfLwWPf6zlHSSh5f8pKXHL7+67/+8N//+38/fOM3fuPhP//n/7xFMw54zZgZ81h56/USOCeBF73oRVs7/5Zv+ZbD133d1x3+7//9v1tyGdx92LT1LQLX//gf/2Nb/+t//a/X4pe+9v/+3/87/Lf/9t8OX/3VX32dVASx9q9rJNtOfkvHZ+LYhkeGfOQg/PG1mz6W7/pv8/fLHo4AACAASURBVKlX/JrANB1obKDpaBOif8woTqWVBxx5qvj1mAgb4EwE4ohzzDkK/+bf/JvD3/27f/fwN//m3zz8vb/39w7/63/9r82AR/Qa23LuPVPWGm0J7IJAnaddVHMLeQ8Cq/2ze2Trvk5H7DKzwwPwF3/xFx8+93M/d1v/4T/8h4fP+7zPO/z9v//3D//gH/yD7dw/+kf/aBOcRJ577yuhxxnIb0vSYa+JYB66/9bf+luHn/bTftrhJ/yEn3D4UT/qRx2e+9znbvZfMu6pbX+cwHvbRRF43/d938MP+2E/7PAWb/EWhx/3437c4U/9qT+1+bMz2/eXfMmXHH7hL/yFh7d8y7c8vMd7vMfhP/7H/7il8Z3f+Z2HX/frft3hbd7mbQ4/+Sf/5MM//+f/fGPDl7akX14UsIWZybPF+Ewc23CcrYQ9Pr/iWF7kszO/5tKv+DWBZzrQ2EBvsvOcSqvi14SKvSVRvPSlLz189md/9uGTPumTDn/4D//hbf3bf/tvbwZS2/iyL/uywx//43/88If+0B86/ME/+AcPn/iJn3j45m/+5s0JNWokrGt/4A/8gS0ODvZ3fdd3XZc+o7rXJ35gJ0Y2I0yMrTWGP9dz/1d+5VduxvsN3uANDj/kh/yQzTH+S3/pLx3k35LwSUdcY9vOFHPXs5+4jZAlrNHv7Ceu4+2Y14TNOWHHvIz7iSdlzr3jNtPe5S33Zut+6WRJ/p1LGHHZH8MlTvel7Mlv7gt3YZKfnEsY18SVdJOPbIVL2MSRa93eTgLqcbRNsQ23szTNdQk8GIHV/tmD5faRofP77bfeoJEH4Dd90zc9/Mgf+SMPb/RGb7TZ0R/+w3/4wfqGb/iG2/bP//k/fz0DJff7zY/NSgpsQGxMruU3P+dzv232hcl1+87HPtlnf//cn/tzh9d7vdfbfnfwJ4J9wzd8Q5K+tm/uT5ousj05to0tMpvFchw+EY52K/GM17KffMtn0oktVIaUUXjHwuTcKV65N/Emf9kmXfkTTzglfK5n63quqZPELz5xuGY/S647zr1hJmx8hZQ3cY9xpe4Tp23+a6HwuSd5GMPZT3r2kzfb3Jcy53rCuC5f4evYtVwXb/Jmm/NjmuO9aSPKPKaZdBN2rEfX4n/ad1/KnvtSPvclD9Kw/3Zv93YH9pQw8YxnPOPw23/7bz/8n//zf9z6iLJJW/gwcT11k3Lmmm3q1T1mlBG9Xvd1X/fw+q//+od3fdd3PfyxP/bHDh/yIR9yeOM3fuMt/Z/9s3/29eyvvA6dfCfPKc+WuR/4gH6ujduxnGOewkW8YZm4bsM2ZfR7lAkhsQ3H+U/Y4/MrjuVFPit+zaVf8WsCz3SgsYHeZOc5lVYecOQpHV1RT4WdgKBRLCIQ42RkVV0/85nP3NZf+kt/6eHbv/3bt/r+zM/8zM1oPu1pT9sM9LOe9azDl3/5l285/k//6T9to7IM97Of/eztB/Z3/+7fvRnmGGUB43w4F+OaIo+G0L4wMey5ZitN+XzSk5605ZUT/yf+xJ+4NvRxdBjf3BcnQFridazMrsfBsW/Vtsf2LXz4OC987knecz7hnLc/ppv94/u92mFRVqv0Ti3KlfK4nnA5J72kn61w2c/WOffkeIwn7FwL+7Gsypn0kkdhxeHelDFpCJ90Er7b20lAXY62KbbhdpamuS6BByOg7afN5wFCn7gNi99lefXg+Zf/8l8+/NAf+kM3f+6JT3zi1qef/OQnb9unPOUpB6uy/sk/+Se3ornH/ePvvuPYh5Q/9lw6sSOu5b7YmYRPGNcTl3vHcPLgQR1vq5kxXoMU/tiuiCf32k/dsF/Jw7F9EodrwiT/8ieeMa7xvogjsdspT+JynPDJg3PSSJnFkfwnTMoeFrlH/nJf7kmayaPjlEM8VnlIuRNX7nM+YdRv7sl1W3EnLwmfsitL0nZvFvlLewmP5ME2+XevuHJvzkvPNcdZxZ3rwmOR47GMziWtxOte+wk/3uucawmbsronvJN26tOxNMZj5R3DH7cL1y2Y5T5CWfLk2s/8mT9z63P6nfX3/b7ft7XH5G2L4ES7+u7v/u7t0nE4x0kr9SRfZniaYSaN5zznOYenPvWpmy+vbxG+P+uzPmvL51gGZQvXkV/qSgaShn3pjvlxzfHIKOExyH7KeOnblA3DPBPbZxuOl4Q9Pr/iWF7kM7YrtmxFXu5SmhW/JtRmOtDYQG+y85xKKx1EntLRFfVU2AkIGsUiAnH8jECp66c//enb9pf9sl+2iV8cFSPBnGQ/nnGWiV6MutlYP/2n//TtHgZVHL/5N//mzXmKcYsBjVFW1BjEOGDOMYhxDHJvsIjD9O2f8lN+yuaky4sZYH/6T//pA4M9xm1fPEn3uM0m7GiAk657lMsSJ01exjhct47n3GcVd9J1H75JL2VJ2XMcxzJpyou4pSGO8X77yV/S54wkTXHlunPJg7iFj0MmjTh92SY/tmOa4rAkHWmIO2m6ljDOHbPZbu6fW0tAuxltU2zDrS1QM14CD0BA20+bzwNEfnsfIJqlQdmcF7zgBYc3eZM32fqy8hC7zP4iLJkJ9uZv/ubb6tWrcclvOpsQO+n3Pr//OTfeY9914WLvPPiP3LKfeNwjDeHZdTPR4m/8mB/zY7bXNhOve2Mnbcc4jvOTB3rnT9m6lIVdix2TjjSyOnYtccdvSrrH8TpmB2NvR3sqLtecs4723zVL0vmBw0fkS5pjutlP2GxzPmUa4xzzo4zyKU/H9yQu1yziUj/hopzZT9iwSHquj8t4LL2kKUzyJT33Jw7XRv6JT1ruSRwJn3zlmvPJ55hm8iJuKw7Jg+Ms6ihxO2dfPIk/fFxL27Cf+k86iS994mf8jJ+xCVF8Z33SWxVmfuW+sDyOV95SHnlxLM6xDt0jTPw13/X66I/+6M1f//E//sdv29/yW37L9spzBrqFH8s95jeME2/K7B4cbLO4lniUIeUY2SfsbdmmfOxBnoljG47LkLDH51ccy0v9t/nkK35NYJoONDbQm+w8p9KKsydP6eiKeirsBASNYiEBxvOt3/qtD2Z2qW/rr/k1v+b62x8c0R/8g3/w9TXXv/Zrv3Yz/l6J/Pk//+dfPxy49pt+0286vPjFL95KJO44nwyiYwtjmH3HruUcA+k4zmgM53/4D//hwFmQhjZpBhpHPc4Kp2Ocgq6tMsBxXMQp7qTrvhhoeXDNPa7btyRsro/h7Y/HwjjOveM1ZXAsD9JNmcSfe1wb+1fuF5/wro9L0hFH8pntcTkS1v0JY1+4pKueEg4zS7b2k5/twg/8CXvOmrjG/I/hun97CahTfS4P/rENt7dEzXkJ3D8BbT9tPn3gtvzOxTawH8Qvs6WVxcwvwpfXn3y64L/8l/9y+KZv+qbD//yf/3N7+PbZgi/4gi84/J2/83cO//gf/+Nt38eyPST/23/7b7fvbbru+0HsAtuRB3o2+IUvfOEW7vM///O374z5lpjXr4T1ke3YEhzZGOnJx7/6V//qIOxHfuRHXg/Eye+bvdmbHf7Mn/kz24P6v/t3/277/hdblXr4ju/4jsO/+Bf/Ypvh4vXOf/JP/sm17eIX/Pt//++3MsiP+L/iK75i8xWU2X3/7J/9s4NrX/qlX3owq4Y94+O4FgZmnkvHgqfy+m6SgUDpSdcAnbLHjiZ/wlrFi8M//af/dLsHQ5+J8GF/i8HEfM/UbB3XiCH8KXnznTar+/7lv/yXW16lEa7qw30pp/x/67d+62bzcU4dOSfPyoaH7z3Zute+uhavcqpPH2THHSfh3Gsmnrq08ANS5rQ5eco59es++UqZsYwP9lVf9VXbeekLp6zy+23f9m1b+3MuZffJDfnCDEerfPl2ne/a/e///b+3uJJX18PEVvpW8Vjin2oL6u8Lv/ALt3amjUgjfJVLP5GPz/mcz9k4fdEXfdHGQLq+R6t8//pf/+utH+EWXwsL6ajLr/mar9niUCaCc35b/M78ql/1qw5/9a/+1YN4tSNtVxwjS/vOya86UYfKo1/qnxZhLMmv7/z5Rq68qVttmz/tnO/rKTN+6lnc2olyqwPtVbvEU1hp8fvj48ujdIXTJsWJgz4nj8lPWIjzNi54WPL8YRvbcFyehD0+v+JYXuQztivtbUVe7lKaFb8m1GY60NhAb7LznEorHUSeKn5NqOQLj+In/aSfdD2jymjrL/klv+TacH3CJ3zC5ihrB0aLtQlGlzFjBH/Oz/k52w+r6+79Xb/rd22GnpHnXPuW2O/9vb/34PtcnGtiC+PKSH7cx33c4ff8nt+zXef0MagReYThEHvt8mM+5mM2QS7OAufdq5bv/u7vvl3jGHOcM2LGgeWYifOP/JE/cvj4j//4LR0f9uVUcIJ8x8y1v/AX/sLmNMVhUFVxEjlonKc/+kf/6JZH3zXzPRLl5oDlHs4dB0JZf+fv/J1bnn7/7//92z2msvtWmrQ4IRhY8NP35JlT8umf/unbyN/v+B2/Y9uKb3RmpMcpUhavln7sx37s4S/+xb+45V36HlJ8sw1TvFzjvHG4iITy415l4BRZ5F9Z3OOauvYqKX75XbAvjPyJQ9y/9bf+1i0eded7b5/8yZ+8fTMidefeOL5bQv1zawmoy9E2xTbc2gI14yXwAAS0/bT5PEDkt/EBolkSlI2xsmfsr9celcdqFhjbyv6wA36vhRPeLJF3fMd33F6J8lqUj3E///nP33733+Ed3mF7aPcdLn7CX//rf/160IltY1ff673e6/CzftbPOvyIH/Ejtu8K+Wj9z/25P3ezWexv7DQobJfXHN/zPd/z8FZv9VZbHs1ANxtmHJAz05sI9vZv//ZbXthl8RBQ2PWf+lN/6vV3y37BL/gFm51VT/4pzju90ztt5VUWA3nKwi66723f9m23WeR4+NyDh3iLGe/K7fuiZsa9z/u8z3YteSeUsIfKJV++n8Q/MWvewz/bi2se9olF/AN5M9goLwRIHxz/iI/4iE20YZvNyvnRP/pHb+n6FhNxTZ7e+73fe8unz0t4he1X/IpfsQkZ8kqcYLff//3ff/uum3wQOn/iT/yJm6DyGZ/xGZuwISy/yLGymVFnhp0y4qJ9yBtbr5zC4vDrf/2v3/LpurjdF99L/rSZceBx3NemCEbq1nensMJZO1A/hBhMlMnqdVf1gxs/Tf3gpP6lS+zhC7mmzuXbNfXHp5SWNwS83mdVd/ItXXHb94F336olXiqnvvGrf/Wv3mZDiUcZtV++GNFTPtUlf0f9qGvxKBMf12CxNi5+/vBHfdRHbcIw3srvXv6pmVb6VdqVT3jwZfnN/Gf7yqJN+Ei9vkSkil8lPv6YvH/4h3/4Vr/SVUZ1rR3xJQltRKkP/dAP3cqircnbp33ap23X1Nef/bN/duufrikzPnzO+LV8cX371/7aX3vQ56WjrUgLGz6hNLT13/bbftv2SRL1o92JU34+6IM+aBPVtAcMwsP2tvyGbpke8uu3M8/EsQ0Jk+0llU1e5DO2K7Ysee328RGo+PX4uD3irnSgsYHeZOc5lVY6iDylo8v0qbCPKEwPbhWB1CcnQl1bGWSOFiNr4VSZZZXrtv71OGeZYWbsx2umVvuXzRxLTlzu5SQKb2Fkfe+AgJXvD3AajTwx9Jw9YpHXMX/sj/2xm/OTvCWtvBJBkGOUOUkf/MEfvI3qSoNwxqHhLMbBMEuNo+LDv9JWVsbcfRxIToFF/jlZH/ABH7A5OPKoHBwIzgmn1Oud+RfsnESOEidS2KyZMcfpk+84fkZopWWE03/c4QxxuITn8PvYr2NOIodOPUnDB1HFJX55+Xk/7+dteXCNICZvyuS6ax5ifCiYs6cfO4+HUU2L/HPqPWwoH5acFo67ejCKyuEjjopbGHkTTlzyasvh4VBnNJDDl7a1JdQ/t5aAetR26zzd2ipsxh+CgLYffyh94Lb9trE1vvmVmV+xRR5uI85AJJzVLBYP+H7nhbWy5cSEkYdjtisPzQZniFN45YFeeN8SdY6tMHDCvljMQjFYxJZJi02Ovzmm4xxbk2v2+Q9m4BDPCGEevFNP9tk9dtGgDpsnvsTJ5hHF/tpf+2ubTWb/pO8hP7PCCFv8CmlaCWgELGIbIYPAF3soXnZXOW0JgwQVfkR4EqYwFZY/Yite+8rC1hJNnM+qHEQGIgj7i5+8elXVgJZ7+Eri5jvgl3vFK35l53fwT4RX3+7lV4WXcO5TZ3wYthwfwg7Rg81XLmGyjQ+AJd8p7Wfc2udHEEj4WdKRJn+TD4QPEUea4kv/IqpKn8iDmbK4hq+4LAY8tUlxag/CaM8GM7HCyfmU0XWrc/qBusdCv5AGgQ3f8EvdPu95z9v8NGn+ht/wGzbG4hZO2gQwjIWXRwxd/8AP/MBtpiBfSL/4Rb/oF21llB9lTb6Snntyf67pF4RHbTmzK7Urb0CkLLlfX8SH3xfBjvgkP8Iqm75AoCZYEtdSDnG4/6/8lb9y3WYNamp/Yxj74lJuM9eIhwS3tGvxuC7/aavEVIIk1vnd1Cdu25K8K6Pyh7uyHi8Je3x+xbG8yGv6VtrWirzcpTQrfk2oTQ0zDTIN9CY7z6m0kp+xoyvqqbATEDSKRQQYIXVKzOEU5Aed+EU8YriNFnGstAmGzWrUzgiR0U8Oo3PuZWg5s0QQM5E4Nc5zDIwWmTHG4eVQMI7i5EzZvvM7v/NmeIluBLTRoMbhEhfHIcbHvnP6DcPsvP9mY2YTYeeX//Jfvp1LGpzDGHD3JQ/2P+zDPmwT3xhpTpd/tS5ecVrTN8PBvcQpApY8E8OUEwNhpMXwczw5R+6PI2I01agZB4Ijy1kT1oMEx5kTk3L94l/8izenlaNhhE1c4ncdU45MHGdpSsM1+ceb48TRTXy2HM8XvehF28w0eQ5P1whl7lH3Zryph3ASNyeW0Gg/ThzHyWixNmHJKN+iZt1kJxLw+zC2nbS9iUk0qhK4WALaftp8bMBt8YMMUMmr32MzgdnjlMXgCgHAb3b8AJVA3PGwzh4pe+wfu8NOGThiQxOPMGY3EzK8+kckIsb4D9Jsk9llxAb34GfwxmwfPoLZJ+yjOGK3hDWrJjbfln/B7kTkcI5NYhu9XmWgKh/0li/2if3/G3/jb2z2S9yxcYQcA2BEAA/7xB3pWwkUBC4+wKd8yqdci33u5VcYTJJv/ktstLj5K8qbD5jLH4GCSMbOmj0T/0p4K2FNHSiXQTmzvAmDsanywx8wW5wYhF/y+St/5a/c/DPCH/Eo9SFe+cosqvgc7iOk4G2mk09ZJP/Y8hswlx/ClHDKr66TprjN5CM4ict592FDZOHXjXYfQ4u2pZ0pr/won5leBBr1lsG0tCf5et/3fd+Nm9fs+B/pd/JArNJmzeonWCV/8uHVPUKLAVntSv5cD1OclNFArLTFr71J0/3EHq8HG0hMGflHZmxhTegJa/Fix/fBTjmccxymhDq+6Pu93/td50F88iXdtHHlcq9r2oO27Zx4nDMjUHslzJrVhpX2ZMaWNk7Uwld8ad/6mNmB4kn84vnGb/zGja98StMqP8IQk4mVBER+qfTlBT/9Vt2b1aW8+Hktld/8bu/2blseiOCEaIPGOMmjvOKXgVFtgm9525b85uOlrYSd8h0vCXt8fsWxvMhr+lD62Yq83KU0K35NqE0NMw0yDfQmO8+ptJKfsaMr6qmwExA0ikUEOMcWzmLaobrnXJmFZTHqyJC5npXgY/GtBgKMdps2w9CZ5mzGEuPsPCNqFpdvUBDTOBZp665bTaMn4pi2zSF1D6MrTU6JES2GPfExQPLN4WSghXMPI854E3jM/IqD4TpHgnPnFQvGXVzOc+x9uJ/T7/sNnNHcJ05Gn4En0MXhkj6HwCsbHD/ClGPxWcXHceWs4eCcuKxeL+SEmrrPEfe6om8pSNt3E5RL+sJiz1Hk/EhDulZlJjwadcWN6BiHVlocPA8GnCDiF97haTSZ48e5lUacI2ma1u8BwEgjJxCjOO6cSt+k4OTkocG9HC+vg3oAsqRdbQf9c6sJ1Hm61dXXzD8kAb+lsROxWbfRDyJCeWj1e69Mfr896GfAwkNvFt+aInQIG7vBJrJn7JPZwWwFLuyTAROzuQyYESDYHcIXP4GtIFJJM6t02SUiBzuWdAhu7IgZUOxseBMyzHj5jb/xN24DceJxj3vZUPGx0QlvAMk5PgWbF1seO2e2te9eGeRSztxH4OLTGMxio/kFbK302H4z1/kwBJTYYbaVr2GWme+dxgbzVYhIBgHlP7bXfcQs5w0iEsiIDuwtcUWZ5Adb4pdXJfkPOOccxgQEnNnwtE/5xI5Iwr7zmZxTfmXn9+COJSETQ/cSy/gx8qMOzSb7kA/5kC0f0pUfg2nETd9+8jodNuK28le0DQuxi4BqicghL/GBhMfyUz/1U7dXACNQOS8tW2IRMdB9GUBVBmz5QGZ48TPlIbzdl09n8F/4ZHygcHedKGPA1jU+KuFw9NnM9jPjTB0bEHYPbnw/TL2Omdn86pGAZDa+QUb36l/usWLrrQkiEUEr5XTfe7zHe2zfDOOLpm06b2aZ9s+nTjzSV498Q7P3MEpc2huRV33JY+7hp/EZ1SGf13lbzHyCQ7tK2DDHCT/imPpNnxROezdbUNvRB4jG0iVo+Uacfk4Y9t0xvqXPnBDJkq5+5ftfaRfaxm3zEfObr0zqKvz0n+MlYY/Prziu/3Ye6hW/JnDViWK8YoRvsvOcSiv5GTu6op4KOwFBo1hIgNNLQPKDnh91zgexxTVT4DNKpH0yxhwBxovRj5OgrTDkDDSj6KOoRu3ifBC/fBvKK3QcvBiPtDGOmZEk062lEefW1igkh48DlvAcDSNenEfGWbjk38gzB56IJ/3kgZPG4eX8jKN78i0+ZZXOOOKpL3BiGX7lNl08ZcXDQwFni1MWTq5zqnEkbolfWE6L8/JslJSjwXHmNHhI4JRymDwEEJwiOnGOOWVGhjkr8mTlVHPopG2kOeWXltdPOCKcJo6Ia7jKG0GOQxLHxzX3uMaZl5bvnRnRzoita5xJXD3YjIyEwWj81kd/KxZ26olJq0d1n/YR2zAxiUZVAhdLQNtPm08fuG2/bQZazEwicigDW8l2OBfxayyTB1o2VdjYFIMr+XaPzwTEpmJDSPMwbHYyUcd3P70WyDYSotixxCU+No5tepd3eZfr3xXnCTe+xcUHGIUEg19EGUIC28h/kK5y+DyCARnhk1fCE9tP4BGWQCJ88mFQzICRh/1xEId/kNlaRI1R6GAv2WoigME78Vlxwob9IzqwscrqGkGEeJVBO+ft8zHMjIoYQDgjGvmepvaWNsdXkK5yuRdzvo3ZZPwHdlydxk+QZkQodWU2emYwiZPvxdcgsERUcp7NxzZtgZ/DH8PXKm1+jDwLY8a6e9wrT4Qt5dfOsmhPmQlGLMFSPO7hOxB01AsfBBPnpWXrVUptidimDlOvrgkvPeUSPvUgjLJHcJMPbTDxCusfKfBrsCZwEkdz3f18O22PD6teXXOeGGVGU2bZRbAye4sYaMFMuVIG9/LLxMcPznncCLPETuKXcOlLvuPKX9OepKtsrpvtRZDTX6Qd8Uv/4gOrZ/0iaRjYxcIrk5jH71M+cYmTGMZfjS/u2IC19m/2ZupKHohyfEL1adUO+P/aL9FLf9Y+zOgz6KttpUzikU8+o3us+NvepiW/j9ipG1srPsdLwh6fX3EsL/I51qfjLg9HoAQfjt92dzrQ2EBvsvOcSis/uvKUji6zp8JOQNAoFhMwcquuGSwGlOPD2KnvceZXjH6+8WB06Xh0jaiUVyA42GlDHAAGmuFmjDmdDG+MvNFho7FG19wTo8yh9J95OBcEnog/4jF6SDDzeqN8p60KxynhAEsr7dk0cNPQGW0OKKcr6XOovBpCoIszmfIa7U7b93H4OBPiNQqOg1G1cZRNmIhLCY+Bb1UQFTkRZtf5rgZng+PE4RoFNBysHlKMrBOjMtIpbQbNVn7j2Du2ipNjwmH3AVXnxCVPRETOo3ypB/eqe+X1sOK1R86JchPRsBVG+ThsPtpqxDT3cHa8ysmh43zeNsdmcfe76OS1e+2mztNFV1MzdyYC2n5+O9MHYgvOlOS0aCOuiNAACvujPFYDIl5HS5g82HowJUyZrZJyG9wwc8xsHL/vZpzE1onLdQNhxKTYC3aMzXA9D8L22XWikJnOwjrGlS32+iQb4mE6eWWv5DWzTtwjHqv8EamICYQix/wCNj02l730YE5ESXnM/OLfEI/ih4jPvR7UiWMRP+RL/tlMM2zk3Yyj+CfuUU62U15t007Ya2lH+BEWN0JhuONNTLDlQ8i7cPLDf8JWeomT+EXA0QY/67M+a7suLBstTwYdxWUxaJiZTfJFRCR+8ZvMrJOWe/gexJLYbf4MEUOc4pY2IUfdE78IMQZMkyd1LS/8GuWSN3Fl9SqiskhPfHjJl/ux4W/ahqn/ekjgM/MrM+2FtapXZRFP6tO+lShnSVvOa38JR8Tx+qLFwKMypG3Km3ypQ3mTF+V3L8HKDEO+aerGee1SXSqvmU3iS1ryo5+YaRWxVL5xJS67R7mFk7b7iMZEPz6hdhf+RDb1agBZuHB3XXsaBU7xSUd/9zpqmNqKU/7dTwgl6gmbejH4ahD2uc997pYvcUmPKIepdhVxkdCp7JiadSke7Kxjmex7vuCHZkn7yPFt2MqzJWWzteJzvCTs8fkVx/Iin2kz8uu4y8MRKMGH47fdnQ40NtCb7Dyn0koHkaf8MMrsqbATEDSKRQQ4K5Zx9haDSojiYFk+8RM/8dp4u+ZH1HR7bcFoDiOqnXBKtBujVuIlPmX0Nj+8ttoTY2iUlzFO+zJqxOHhmMZh44wQvzgWZhy5j/FmaDnHnARpMfJxYuSDyMZZ8E2u5FkefVSf08OBM9KZUV/XxOe7VcQpzhynWd6U5QkkugAAIABJREFUifDG8LuPgy5fromb4+hVCc7hsRNiJFmehRNeHp0jKsmHETsjt9LnNHC4OTicHWGVVfq+1cD550zH+RJfHPzwFY+03MNZ5+hy2OXRNSt28i9+gh+Hi+OZ6xwZQpv65ZQT0DhpSUu6wo5pqi8jv/h0uVsEtIOxvrUtx11KYA8EtPW0+fzm3SY/iN0iSJgd5Xc+dpJtNiPHQ2xED1thCVmZLez3nm0yGyb/kMbHvNkZD9TskVk87K1vYXkYx4tN8NoVocRrXvEP8GTPfFQ/ryVKg03ybSy23jepInqIi2jjv0dn5hcbFntEyDFDKANt4rfKszwQiwxqsc3qT3zELQNq/BefDkjeIugJl/gTH/+EDeZzEKScF07e5ZUvYeCICOfTAWwuZvyFCHnuwZ+o45ufFjY2nwtg3zFVPmENWmHHT0rb4xsor7oyUyc+lvDuJXqY9cV/w195xSddg4L8AcxSVvdhJ05tQXtRznzXLOma7Ze3AdSDPPGR1Js8aUvuHdf8PrimPsSVsiW/BD/1PfogRCuDmsRU/oiwOLsfSz4TcTZxuaacvn9lSXs2SJfyC2vmVvxa8RN5Us/as7YsfjxSn9IiuJr5RWhVDvmRF/XON+T38Hf1GdcSxjdT88075+VBfHwlMxxH31k+DBzzCzFRl4mLYOZzIGYBKk/i4qdiz9/FSbszGKvtEYTzWjE+VvfZCkv45depQ+WWngFhfrb01GvyQIyUL4uyal9mK/KVtffkE0+vzxpAJhhi6pq6kn/3pm62yG7Rn/zmh6GtVX0cLwl7fH7Fcf2381CvBzyBazqQbQzNTXaeU2nlB1ae8qOpqKfCTkDQKBYRMJrD2WU80/YYYU6S71CZcWRW1egoaROmWnMojQhx+OKEuMZwc+g4LsQVBjTXtSWOgfu8YsjRkJ7rDLuRZTOrGGRxWTl3RvR8q4EQlvOcL68gmIWWbyTE2Bpt5XRzfOPcuM/9nBWjaxwTo8HOS085PCBwKB2PfUBZjXiZku57He5JvzAV3WuPPvzJwc7DhRlx8m0UFV/xcSjc69se8hfn3zUOi1c4OAmmpyce4Y02c9aNJKY87uHcm9qvvB4Q5EkaeBK/fIuBw8opci71YKu+PQQYgecwYSdN/73I7DiiotdXOTN5fUReCHTyHeFSfsz84tBxirJUCAuJ272t83S766+5fzgCfvNiC2Ijb4sfFDGLIGGWl4dl9thvPXtBlPA7zQfIQgAhTEV0UH4rn4A/YDDMA3eYuGYgy8e9iQ2xT2wy28yW5BU3/NgnPgIRhpiQ+G3Zer6Bh/ZxJpDzbD0fYfRF2CI2jq9BVGAP5St5Y3eJFh7qhWXfXGMvvfZolpkHdd9Ayj3S9eBOyGDj3CPfvlNFLCNy8GuUk73F0z8I8nqjWfL8CuKSNAl5/BbhxSENW6+eEdHMtuJbsLFmohG/4iMIp0w+02DADB9+Cdvt22c+3WAQMkJFOBKtzOCRF3Y9523dx48wyKcO5V05CD3+O7d2YuEzEIrcg4GtMOpAfv1jgPg/rhk8NaDHn8wS39IxYU1Z4n+4Rxvk8xhc43fxIcQpDLGFOEXMigjqGibYalN8pYhNqSOCTxb+CxbJJ/ZmKal3/YKvwmeTF/Ha8n3M7lIfZh+qS22e8EqgFF7+5N3Wqi35Bpn70jbFx89VbmJS/FZ5ca927Lu02mfyJy6Ds8RSoqc4rMIThfmYrmmfya8+auAXC6vv1Mm7VxeVj/hp1mDatjTUp3agbbo3Qq58mN2mffD5McVE+xDGoDR/1m+GQVv1xi+NsKstSd/bG9pIxGjtWX/SVsffmcwgS31d+ja/+Zikzuxje7wk7PH5Fcf1385DveLXBK7pQLb5UbvJznMqrfxYjh1dUU+FnYCgUSwmwAgz1vlRZ/DyMVEGU7tkxDKiNc6MEk47sbrOMBK/OFMcmlwTp30OMueFoR1H+3yw08wv4o+0OBIMv3uMvBGExMcocwKNVomLI5E8MMDCG23jqHJK5UkZrJxjs9oYfQZ5bOdGdhloxp+jL55c52BynMwkizPmuvQ4JBGmRkfDiDLHlxNndAzD9G/OBcfIA0LSMGWeMOfbJvblVxpW3wKRBucr9eI8LkQ0o3IEtTiqrhHlzEgTnwcd58Y43cuRl2aca/kjAnJsLBx4o5PJtziU14yyOJ7OYcIp5SDeNqdmcde7+OTrPF18FTWDZyTg9y2/0fkdvE1+kLxG/Bq/n+ShNWKB65mRQQzz8EwQiv3lF7Ad7mGznbey0R6MCTReayKKhBXBx/co2Ys8CGMpLt+uZCvMIGJfxMWe4yuPSVd4tt49bLdj9k844c1GMkuZr5GHeGH4CI4JW2ZYEVEyQ8V1YoL7lNsMHLOl8u0kgodjYgafRVq2PiPAVpo5ZNAo+XBN3vhE2BDZCEXSthCpzJTLrHDxKZ9yCo+puA38mTXvujzygXy7ibjnA+LSc95K9FBmfpYBMSycj/8jrfDAgl/A38HBa39sdXjKv7rmjxjs0l6IFI4NoMmPOIRj59W5OlYv8qgMBizVp/uJTuOiPRlQJH4l/7bxGYhkBJVxBhv/CA/tikgnvPYnHwRD+fPdsggv8WukMy7H/2jBh9x96ysiX/ybsNLOlMexuOWRcMsvVA6z+9Me5Ql3DOQ9bVYe7buPEMSnNaNLXLjJq636FFY80sXZVl2lHm21E7O0lFn5+IxpS+LiE2MkD9qe2Vf6r3ZqBl3YSMu+NxG81owDkTnX1S/RlGim7rW95MM1PKzSwsjgNaFNObR9ZeaL6+/EUFyUTVn5igaB8xujjsb9sc4udT+/+akv25TvOM8Je3x+xbG8yGd+V9SH4y4PR6AEH47fdnc60NhAb7LznEorHUSe/CCns5wKOwFBo1hEgEG3GIEb65pBZPhs86PpujXHDD+Dl7YSo0+gYaiJW5zAOAWMoRlIMeQcD06c+6Vjer8ZWZwzrwsw+tIb85G26HzuY5jtS19YIpqROlP3iVUMc/IunPxb5V988sdx4ExxGIx8M+oMtmsJIx3xuE86ScvIHgeH0c/In7xIl4hGBONoKqP0xUdIM1LKWRCf/HCqOA1GHwl20nOPNDlPRoZ9sNX5cDC7jFDFUTRSyykJb04SJ4jzTfxKmV3nPJmppbyu57//KJM6I04aGeQsSi+iZz686kFHXQovf+IjOHJo/EbcNsdmUfe7FcmqT3Ws/dhqw7ZdSmAPBMY2nz5wW/ygPOQTScxgIQDpv+wK25vvNKnH+AL22Y28VqbMfv89WLM7sT24sHdsGZttkMfAF1uQB19bD/3EL7aCLbGy716b8qDtW5ERPvLbIqw0Y1+kxW5FAJJ/M549xEvbR/bZa+fZXnn20XQzz/giRB8igTjZW7N15DdCjS1GtmYGEXLM5IoPIj7+if90R6wxqOVYfqWHiTDyiIl8ENEyGOTB36weNj7hlMm9tux+Zn45h5HzZgD5PlQ+0SDvYUj0Yqfdpw7iYyijOORNePEohxl7ZrppE14zJEbJr/yw5fw1vk8Gr9SPGWLilWbyGsbiVT9mBBkMGxeCY2aBaVd8Pe0Cp9QhHl6vlR/XtRPpyBPRRtswoy+ipfPiUJfK4dVR7Up5XZMf3xYTn3JYvNYnv65bcVKu+CfiUc9YyNtYNlzk1cCw/iBOn4gIU+lhjJ17k3fn+VBeA3aPcvBHzbaSV9et2ccwbKUpD8mz9uIVYQOfymU1q0pfdJ/w4hIu8fLlCKPKSHR1TXyuE658B47gq17UXdqLetbOtFl9ypsf+mXylvhtlVUa2qbfCef0dfnR/vmwtu4V1m+NvppFn1SW27TkN19Z1Xd4aAPHS8Ien19xXP/tPNTrAU/gqhPpQLb5MbvJznMqreRn7OiKeirsBASNYiEBRtAIX+p6/GEf2+bYJnI+hjHt1nmjlwwv58QoFuPnvNE0zjGnU5peRyDWuMY4e5WOkeeAcsA4yEapjDYl7dHB4Mw4Lw+2BB4jfRxNC/Em/+1RGpwA08+FGQUxzouZVZxeRtlKhOOUG5HlMCgfZ0Oa7mXMxc0pEp74ZVQwjp2w0nRfGDlWFrO6iEccEAJUXk0QFiNpCiO8VZr+Y5CRavxSP9LKa5xG8YymxzFzjxHAzPwy6jvWkZFVjjPORiddT3r2zSQjzvn+mPPKoEz57odZdQTT1AvHyWhynE7842AubNpNegKBOk8TIDaKW0vA719+5/Ibelv8ILbJ4rfYrBGv7hGB2Ep2xsxfAoAlD9f2iTvjTB2/72YfsUPsJ0GAsPBpn/Zp28CL+MXDpgnDn2AfzLwmVngt0j1mFXtY9gBu4IUQYfGapZlXBq48vEd0ik1ie9hhttJ/UCbkGbSRZ/6CcphpY7YKEYz99GCe8rPTZjqLmzDhdTDpj0u+waVu+ScGw9g/D/IEGLNkzKKOqMN+mv1idpt88QmEw1X8HvZTPnwMUHk9zqyzsMADRwNHZk0RHPgjVmVRJp9awNYrkQafCB/KYCY8G23xmqL65QOYDa/u5NvgmFfRzFhj67FSNgOQZnsLIz738MfGRTmx0BbEoe2oU6uBNa+uel0xYhnbHzY5l/jEbfY830LZxeVc6sdH1vl68oKJWexEPaKmMjiHh/t9psFidp5r2rLyEgrFY8Fb3g3EOm8WoronJKVOkrY8E6q8wme2PEFNXWpDZjJ6PVXdCG/wkQDHX/WbIF2CkfPK5Z8B6SdeD9QXLGHBR8Rd2Yid0hj9RG1dfNq5uvFKMF9WO1UWZRKXfBB19Rc+s7aHi3rxSQ4Dt16RFF4c8oWd9ORT+bUnbUEdus4vxemLvuiLNrFOvoVT98rjn0BoK9LicxLVXvjCF25CmTbIn3RdvQqvf7pHf5A3+ZTnCF7Kc9uW5Fk9xQePbTguS8Ien19xLC/yGdsVW7YiL3cpzYpfE2ozHWhsoDfZeU6llQ4iT+noinoq7AQEjWIhAQbV6BcHlVEzOmaf40DsYKztm1lkJpB/n8yo+p6W8Ea0GFVOoNFIzgDD6T8GmrEkPqt9TlgWxtBImrhd9/FMo04WjpTRJ06xbxlw/DjdxCHt0Q85QYYTIR8cAWIbhymjjgQcDqvwEco4M0asUl4Cm/sIckbosnAcOAjS960U5VI+ZeUkmXpPXIvYo19wbHDDyYiarbJhhiPHlCPlNQZls3CIPRwoH/HM7DFT7Dne4sLF/ZwpHxs2Eioe57H3DQ4PAcrsFYHUldc6OazuISj6joq8i8u9ZquNTpnXFlK32CibBwb5Unb5VxbfdVFmK3by4DonKnHeZgcn9d/tawho26Ntim14TYjulcDdJbDaP3tYsvqvB3w2mT1gL/y+s89+xz0EZzH7SXgPvR6YY2sNtLAL7KRBGLOqDZoIHzsiDg/mBo7YXqsHfraUgOOYYERAYveyuJ/NMIAjnOsG0Nh67K0EDnbbAzfbqSzj4ljcyiYMPyBhlFEa4rUqt3LETsmzPFpsld/CFxFWfPKOnbgi8Ng6dl7a8k50wEXaRKYs8S3cwx4Tq/ynPHFj5DobTjBxTrrKIqw0XJMfg07qThhb96X+pCcvzqsjceAQ8US5lNWi3oQRX/IjnbAIg9wjbfFI133yJq2Ui69kET7lVlbHtupMXnAye04bIShZ1I24DT76DhwuOLhXGOylh620pSkNTByLL2UQh/ss6hJbHHKvdje2V21AmW3lQR7TTuRFGaUjPWH4Q2Y0aZN8SkIyf03blRd5H9t2GMiPerJKR9zKRPATF3/Wyn/Lpze00dTtmGd1Z5GOupZHM8vEp+2pi4QRh7RwVzZhc00c+LhP3oWJXxqG2Kh74bxhIKx2rn6SJ/vhJg7h5UGdYOkeXMSpTtyX/rYV5Jb8CRP1lWdi+/yh4yVhj8+vOJaXtLHk17bLwxEowYfjt909NsioszfZeU6llQcceUtHl9lTYScgaBSLCKhPBppBZLAYcSvnjeOR43tt3TOGsz86UY4ZQwZS2DhfSdd11+IMHV9n/BlL1zm/xK6MlpmSbaSUMyEN9zKqiYPR9XoDJ0U7tjrmDKV88nrKGMufuKR/zCbOF25Z7MchC4+U29bqPEdKnHG83S991+QpjpatY/fhJm7hkhfX1Inz0hafeMMzcSmH8/KcOrTvnGtWvHBIHqQnHWHspxxj/cWJcS1pneIYPt3eXgLaiL4T2xTbcHtL1JyXwP0T0PbT5tMH9Im7sPgdjy1iA7L47qbZRbGbHvjN1vJbb4mNTfgZW/lgQyw+Ns6+hzchjvCS5RzpJ+5uSyAExnZm3wBuZvL7TTBLixCsH1m03/SnbBPXqa3ZcHklUVs3sErUup97T8XXc+cjkN98v4l5Jo5tOE41YY/Prziu/3Ye6hW/JnBNB7KNsb/JznMqrTh7Y0dX1FNhJyBoFBdAQN0yulb7D1LXuffUPeKLk53rtnEY7tWuhEl4Ycway4fotUuvRpghRaQRl7CEoMRrNMs3v7TlOCymZztPNLIk/JjOduHoj+viTTq57Lw13LLN+YR7rO29wqcs4/3Jh7Q4ZMmTOHLNfhb7qQPX7Y/XhXMOi1M8Eu94n3ik7Zz1eEmax+d7fPsIqMvRNsU23L6SNMcl8OAEtP20+RX+2YPn+P7v8NudB3xbK9vo9SevirGbHvR8MsDrVAaqLOzEjCU2JHGxKxazvfMdI4NdXlkzu8US2zUrD1uk/VMC9yCgj8Q3MsOdEOx3wG8CUdasMj5oFmEdj+dy7Xjr1cq8leB3xsx/AnP6wXH4Hq8jkN8d9VTxa109XErKFb8m1MRq5yqdeixKnL2xo7t+Kux4X/dvFwGGXZ0e1+upc/dbMveK914GfEzreD/3ude+xYi0fR9HzcwvjrFvb3ntzyypLLnHsRlePpzqO2H5AK/vheTbXmPauf94Kz6rsI+2Ht+X49ybY1vxKF8cqjHPuZ7wYx6Fu9c9CX+8He9/kGvHYcfjcBjPHe8Lc1yu4zA9vh0E1CU7kAf/2IbbkfvmsgQejsBq/+zhcv/Yd4/2M6F9a8h3p9LXfbvTbCyzrC2PZlcSx/1u2YnMbE68ZpnlP0Sy30QGr05ZMnB1v/E3XAk8DIHRj/EpC35n+oXXHr06Gt/sQdPhz8au+p0xs4y/ey/f+UHjb/h5BPLbND4TxzYcp5Kwx+dXHMuLfKadpe2uyMtdSrPi14TaTAcaG+hNdp5TaaWDyFNUbkU9FXYCgkZxgQRm1PXxyC4nYXQmGPkxHfvj8djmfEA2H4I3WuY7JD446zsFcRYSt2PfGzDzK/9VR1smfpn5lXAj9qQ9pp9zY7js59pxeHFLP+uptFKuU9dOxZvw4nyse9wvHPaJyz3jmvOJz/Hx4hyxbUzPufH40e4/jq/Ht5OAOh9tU2zD7SxNc10CD0ZA20+bzwPEqd/LB4v1ckJn5nRsta3v+/jGpf9G7DuZ/rmL/8iX1x5n5T72ZOQpPz6k7r8B+qi7D8L75qTvFVnyauSsPDSeErgXAf7NuPgHRc973vO2NumfM/i2q+9qWYSNv8RHGtv0GMe4//znP3/7r6H+c6lv2vpurE9OjD7WGL776wikPsdn4tiG41wl7PH5FcfyUv9tPvmKXxOYpgONDfQmO8+ptOLsyVPFrwmVvNMojtuW43F9NCzCRVwRzqizj8N7/cLI8Ate8ILtvyYKYxV+FHx848p/fCKQ+dfen/zJn7z996CMXnNUxrzYt4znHi1/rnFS7tfRGeNKGuO5cf+xridswo3bXBu3rp/K673uy/kxjuzn2qM5aAmTe7q9vQTU5WibYhtub4ma8xK4fwKr/bP7z+mDhyQ06d+W499z3x6ymintI9ceyrMIez+vdSX8vbZJ23X77LdF3IQ2H/CWvtWSPNr6dmWXEjgnAe0wopZ0tEkfcvcNWn0jA6mjIOueCMmPlTfx+Ji89u2fIIifXxqf9rHu7/WbI5DfqvGZOLbhOBcJe3x+xbG81H+bT77i1wSm6UBjA73JznMqrTzgyFPFrwmVfKFRcCKtMba2jtMmcv1e2xQr1xNPjnM98eXYNudsT6XrnIUzwJnIsXNxSuJ0SM8yil/CC5ewW4Dhzyh+Daevd+Urq/jFZ03Zkub1DffYEcd4/xhHyi4vVuHG8GNaY14Sn+3xItzjWRL/qftPnTuVdtJNXDnu9vYSUJejbYptuL0las5L4P4JrPbP7j+nDx4yYpM72Um/6USufPw+1/P775idmrWwhYk7cTrHrksn6QnjXAWvUOr2Jglok+kTaf/OWbTNU6/iHrfrU/kVl3CjLzXun7qn59YQSH2Oz8SxDcc5Stjj8yuO5aX+23zyFb8mME0HGhvoTXaeU2nlAUeeKn5NqOSdRsGQW7WxrA+CYrxnbKccdUschTgk43H2bV3nPMeJEVfueZD8PFrY5FV6WR8t/DmuJQ/Zyof948U51ywJO24TPuVI2JzPdrxu/1RaCdvt7SSgTkfbFNtwO0vTXJfAgxFY7Z89WG4fLDRxSf/O73juZl9zPueyjd3MNucfZiu9UWiTn4gL0hntivO59jBp9t4SeCwC6QdjuLHtZfDVdW00fUL7HWdKjvef2nffcbuOj3sqfM/dPIH8Bo3PxLENx7lJ2OPzK47lpf7bfPIVvyYwTQcaG+hNdp5TaeUBR54qfk2o5AuNIoJF2oCt9dgZvlf2Gex7xZE4x3udG+/JvcIk3TgBrlkcZ5v9xG2bOIXJPXGYHcchyb1bZCf+JP3kKWkcB02aYzj7We91n3jGe0+Fdz3nbcfj3Jut62Ocx/kcj4/jybXEZXu/y+O5537jbrjLI6C+R9sU23B5OW2OSmA+gdX+2fwSvSZGNiR20X4euEd7kNlXuWu0Ozn3eLfjjBn5EHdEMHEmrdhw57Kfa4837d5XAvdDgMAVkUvbTLs7bqvHbfl+4x7b+7h/P/c3zM0RyG/i+Ewc23Cci4Q9Pr/iuP7beahX/JrANR3IdsUHVU911DzgjB1dUU+FnYCgUZRACZRACVwggTpPF1gpzdKNEVjtn91YQZtQCZRACZTASQJ59h2fiWMbjm9I2OPzK47rv52HesWvCVzTgWwrfk0A2ihKoARKoASmEKjzNAVjI7mlBFb7Z7cUW7NdAiVQAneGQAQt9iBvQ8U2HBcyYY/Prziu/3Ye6hW/JnBNB7Kt+DUBaKMogRIogRKYQqDO0xSMjeSWEljtn91SbM12CZRACdwZAhG02IOKX3emWh93QSp+PW50r7lxtXOVTv2aHB0Ofe1xpNH9EiiBEtgngYpf+6z3lvqKwGr/rPVQAiVQAiWwlkCekyt+ra2HS0m94teEmljtXKVTj0Wp+DXS6H4JlEAJ7JNAxa991ntLfUVgtX/WeiiBEiiBElhLIM/JFb/W1sOlpF7xa0JNrHau0qnHolT8Gml0vwRKoAT2SaDi1z7rvaW+IrDaP2s9lEAJlEAJrCWQ5+SKX2vr4VJSr/g1oSZWO1fp1GNRKn6NNLpfAiVQAvskUPFrn/XeUl8RWO2ftR5KoARKoATWEshzcsWvtfVwKalX/JpQE6udq3TqsSgVv0Ya3S+BEiiBfRKo+LXPem+prwis9s9aDyVQAiVQAmsJ5Dm54tfaeriU1Ct+TaiJ1c5VOvVYlIpfI43ul0AJlMA+CVT82me9t9RXBFb7Z62HEiiBEiiBtQTynFzxa209XErqFb8m1MRq5yqdeixKxa+RRvdLoARKYJ8EKn7ts95b6isCq/2z1kMJlEAJlMBaAnlOrvi1th4uJfWKXxNqYrVzlU49FqXi10ij+yVQAiWwTwIVv/ZZ7y31FYHV/lnroQRKoARKYC2BPCdX/FpbD5eSesWvCTWx2rlKpx6LUvFrpNH9EiiBEtgngYpf+6z3lvqKwGr/rPVQAiVQAiWwlkCekyt+ra2HS0m94teEmljtXKVTj0Wp+DXS6H4JlEAJ7JNAxa991ntLfUVgtX/WeiiBEiiBElhLIM/JFb/W1sOlpF7xa0JNrHau0qnHolT8Gml0vwRKoAT2SaDi1z7rvaW+IrDaP2s9lEAJlEAJrCWQ5+SKX2vr4VJSr/g1oSZWO1fp1GNRKn6NNLpfAiVQAvskUPFrn/XeUl8RWO2ftR5KoARKoATWEshzcsWvtfVwKalX/JpQE6udq3TqsSgVv0Ya3S+BEiiBfRKo+LXPem+prwis9s9aDyVQAiVQAmsJ5Dm54tfaeriU1Ct+TaiJ1c5VOvVYlIpfI43ul0AJlMA+CVT82me9t9RXBFb7Z62HEiiBEiiBtQTynFzxa209XErqFb8m1MRq5yqdeixKxa+RRvdLoARKYJ8EKn7ts95b6isCq/2z1kMJlEAJlMBaAnlOrvi1th4uJfWKXxNqYrVzlU49FqXi10ij+yVQAiWwTwIVv/ZZ7y31FYHV/lnroQRKoARKYC2BPCdX/FpbD5eSesWvCTWx2rlKpx6LUvFrpNH9EiiBEtgngYpf+6z3lvqKwGr/rPVQAiVQAiWwlkCekyt+ra2HS0m94teEmljtXKVTj0Wp+DXS6H4JlEAJ7JNAxa991ntLfUVgtX/WeiiBEiiBElhLIM/JFb/W1sOlpF7xa0JNrHau0qnHolT8Gml0vwRKoAT2SaDi1z7rvaW+IrDaP2s9lEAJlEAJrCWQ5+SKX2vr4VJSr/g1oSZWO1fp1GNRKn6NNLpfAiVQAvskUPFrn/XeUl8RWO2ftR5KoARKoATWEshzcsWvtfVwKalX/JpQE6udq3TqsSgVv0Ya3S+BEiiBfRKo+LXPem+prwis9s9aDyVQAiVQAmsJ5Dm54tfaeriU1Ct+TaiJ1c5VOvVYlIpfI43ul0AJlMA+CVT82me9t9RXBFb7Z62HEiiBEiiBtQTynFzxa209XErqFb8m1MRq5yqdeixKxa+RRvdLoARKYJ8EKn7ts95b6isCq/2z1kMJlEAJlMBaAnlOrvi1th4uJfUC6mUaAAAgAElEQVSKXxNqYrVzlU49FqXi10ij+yVQAiWwTwIVv/ZZ7y31FYHV/lnroQRKoARKYC2BPCdX/FpbD5eSesWvCTWx2rlKpx6LUvFrpNH9EiiBEtgngYpf+6z3lvqKwGr/rPVQAiVQAiWwlkCekyt+ra2HS0m94teEmljtXKVTj0Wp+DXS6H4JlEAJ7JNAxa991ntLfUVgtX/WeiiBEiiBElhLIM/JFb/W1sOlpF7xa0JNrHau0qnHolT8Gml0vwRKoAT2SaDi1z7rvaW+IrDaP2s9lEAJlEAJrCWQ5+SKX2vr4VJSr/g1oSZWO1fp1GNRKn6NNLpfAiVQAvskUPFrn/XeUl8RWO2ftR5KoARKoATWEshzcsWvtfVwKalX/JpQE6udq3TqsSgVv0Ya3S+BEiiBfRKo+LXPem+prwis9s9aDyVQAiVQAmsJ5Dm54tfaeriU1Ct+TaiJ1c5VOvVYlIpfI43ul0AJlMA+CVT82me9t9RXBFb7Z62HEiiBEiiBtQTynFzxa209XErqFb8m1MRq5yqdeixKxa+RRvdLoARKYJ8EKn7ts95b6isCq/2z1kMJlEAJlMBaAnlOrvi1th4uJfWKXxNqYrVzlU49FqXi10ij+yVQAiWwTwIVv/ZZ7y31FYHV/lnroQRKoARKYC2BPCdX/FpbD5eSesWvCTWx2rlKpx6LUvFrpNH9EiiBEtgngYpf+6z3lvqKwGr/rPVQAiVQAiWwlkCekyt+ra2HS0m94teEmljtXKVTj0Wp+DXS6H4JlEAJ7JNAxa991ntLfUVgtX/WeiiBEiiBElhLIM/JFb/W1sOlpF7xa0JNrHau0qnHolT8Gml0vwRKoAT2SaDi1z7rvaW+IrDaP2s9lEAJlEAJrCWQ5+SKX2vr4VJSr/g1oSZWO1fp1GNRKn6NNLpfAiVQAvskUPFrn/XeUl8RWO2ftR5KoARKoATWEshzcsWvtfVwKalX/JpQE6udq3TqsSgVv0Ya3S+BEiiBfRKo+LXPem+prwis9s9aDyVQAiVQAmsJ5Dm54tfaeriU1Ct+TaiJ1c5VOvVYlIpfI43ul0AJlMA+CVT82me9t9RXBFb7Z62HEiiBEiiBtQTynFzxa209XErqFb8m1MRq5yqdeixKxa+RRvdLoARKYJ8EKn7ts95b6isCq/2z1kMJlEAJlMBaAnlOrvi1th4uJfWKXxNqYrVzlU49FqXi10ij+yVQAiWwTwIVv/ZZ7y31FYHV/lnroQRKoARKYC2BPCdX/FpbD5eSesWvCTWx2rlKpx6LUvFrpNH9EiiBEtgngYpf+6z3lvqKwGr/rPVQAiVQAiWwlkCekyt+ra2HS0m94teEmljtXKVTj0Wp+DXS6H4JlEAJ7JNAxa991ntLfUVgtX/WeiiBEiiBElhLIM/JFb/W1sOlpF7xa0JNrHau0qnHolT8Gml0vwRKoAT2SaDi1z7rvaW+IrDaP2s9lEAJlEAJrCWQ5+SKX2vr4VJSr/g1oSZWO1fp1GNRKn6NNLpfAiVQAvskUPFrn/XeUl8RWO2ftR5KoARKoATWEshzcsWvtfVwKalX/JpQE6udq3TqsSgVv0Ya3S+BEiiBfRKo+LXPem+prwis9s9aDyVQAiVQAmsJ5Dm54tfaeriU1Ct+TaiJ1c5VOvVYlIpfI43ul0AJlMA+CVT82me9t9RXBFb7Z62HEiiBEiiBtQTynFzxa209XErqFb8m1MRq5yqdeixKxa+RRvdLoARKYJ8EKn7ts95b6isCq/2z1kMJlEAJlMBaAnlOrvi1th4uJfWKXxNqYrVzlU49FqXi10ij+yVQAiWwTwIVv/ZZ7y31FYHV/lnroQRKoARKYC2BPCdX/FpbD5eSesWvCTWx2rlKpx6LUvFrpNH9EiiBEtgngYpf+6z3lvqKwGr/rPVQAiVQAiWwlkCekyt+ra2HS0m94teEmljtXKVTj0Wp+DXS6H4JlEAJ7JNAxa991ntLfUVgtX/WeiiBEiiBElhLIM/JFb/W1sOlpF7xa0JNrHau0qnHolT8Gml0vwRKoAT2SaDi1z7rvaW+IrDaP2s9lEAJlEAJrCWQ5+SKX2vr4VJSr/g1oSZWO1fp1GNRKn6NNLpfAiVQAvskUPFrn/XeUl8RWO2ftR5KoARKoATWEshzcsWvtfVwKalX/JpQE6udq3TqsSgVv0Ya3S+BEiiBfRKo+LXPem+prwis9s9aDyVQAiVQAmsJ5Dm54tfaeriU1Ct+TaiJ1c5VOvVYlIpfI43ul0AJlMA+CVT82me9t9RXBFb7Z62HEiiBEiiBtQTynFzxa209XErqFb8m1MRq5yqdeixKxa+RRvdLoARKYJ8EKn7ts95b6isCq/2z1kMJlEAJlMBaAnlOrvi1th4uJfWKXxNqYrVzlU49FqXi10ij+yVQAiWwTwIVv/ZZ7y31FYHV/lnroQRKoARKYC2BPCdX/FpbD5eSesWvCTWx2rlKpx6LUvFrpNH9EiiBEtgngYpf+6z3lvqKwGr/rPVQAiVQAiWwlkCekyt+ra2HS0m94teEmljtXKVTj0Wp+DXS6H4JlEAJ7JNAxa991ntLfUVgtX/WeiiBEiiBElhLIM/JFb/W1sOlpF7xa0JNrHau0qnHolT8Gml0vwRKoAT2SaDi1z7rvaW+IrDaP2s9lEAJlEAJrCWQ5+SKX2vr4VJSr/g1oSZWO1fp1GNRKn6NNLpfAiVQAvskUPFrn/XeUl8RWO2ftR5KoARKoATWEshzcsWvtfVwKalX/JpQE6udq3TqsSgVv0Ya3S+BEiiBfRKo+LXPem+prwis9s9aDyVQAiVQAmsJ5Dm54tfaeriU1Ct+TaiJ1c5VOvVYlFH8yr7r3//933/43u/93i3o933f9423dL8ESqAESuAOEXjVq161lWa0UaM9uENFbVFK4CSBJz3pSYfj9s8POuU3nYygJ0ugBEqgBG4lgfhAr3zlK7f8swd8oNd5nde5tgvHBbsk2yAv7NcTnvCE6/w67vJwBErw4fhtd4+OVRroTXaeU2nlAcf2iU984tbR8yMg/Hd/93dPKHmjKIESKIESuGQC3/Ed33F45jOfuTl8bBXn7+lPf/r1IMgl5715K4GHIWCAT5t/8pOfvPlAfKFnP/vZhzwI8YW6lkHbQNtA28DdawOvfvWrN/ORCR8vf/nLN3vAJmT1jHy8aAuXssiLvEZbyLP9peTvtuaj4teEmtMw0yDTQG+y85xKK/mRt9d//dffOo/RTssogrm3axm0DbQNtA3cvTYQp48deMpTnnLt8BEBYg8mmMBGUQIXSYCv84xnPOO63esHVktnvl9klTVTJVACJTCNAB8ofpBI/f6/wRu8wbVNqPg1DfWtiqji14Tq0pkiNl2a+OUhJ3nzcPuyl73susSveMUrrve7UwIlUAIlcPcIGP186lOfus18yStgT3va0+5eQVuiEjgi4KEn/g8/zYzHZz3rWduDD9/Iua5l0DbQNtA2cDfbgEE/M39Tv6M9cM7x8eJZ+VIWeZHPaAvJ/6Xk77bmo+LXhJpLBxob6E12nlNppYPoMNlXVCOh3/M933PIdNAJxW8UJVACJVACF0ggtoFtsnICMyBygdltlkpgOgHtntibPsAfso4PRLnW7d18AG69tl7bBvbXBgz2RTTye2/NcZ6LbY+X+E3H51ccy4u2e5zvFXm5S2lW/JpQmxpmOlIa6E12nlNpJT/ZGvFMBzILIPmsQdifQWidt87bBvbVBp7znOdsNspvf+q+M38nGP9GcdEEvNob4SuzHiN6+eAx/6hrGbQNtA20Ddy9NpDZvX7z84H7+ED5DIR6P15OPVMfh7mp44pf5yFd8WsCVw8TOpBtRKWb7Dyn0kp+bDPNP50+zqBj17uWQdtA20DbwN1rA3H+InjFVnEGu5TAHgjEL/P7ln7gH0Bkv9t9DQS0vlvfbQP7aQMmfnguz2CHus9AiH124Xg59Ux9HOamjit+nYd0xa8JXNOBbC9N/JKnrPIWBzCqd651+xpOZVEWbQNtA3ehDfi9j02Kw+ccR7Af/J5g/BvFRRPwiYfMeicEjz5Q+sVd6OctQ+1V20DbQNvAI9tAZnvF97HNgGC2Fb8u2oSfLXMVvyag9YMTUSkO1U0px9Lx/a78B0dba2Z39cfwkT+G5VEebQNtA3trA5zA/Nc7Tp/j2IwJJrBRlEAJlEAJlEAJlEAJTCTQmV8TYQ5RVfwaYDzeXQ9Sq8Sv8d/Vv/SlL70ugjx5wJGvrmXQNtA20DawvzaQV90z8mnGb2b9XhuL7pRACZRACZRACZRACVwUgYpf56mOil8TuK4Uv2T/JS95yXUp/GvvCGLZXl/sTgmUQAmUwG4ImBXMDsQWvPKVr7zeH+3GboC0oCVQAiVQAiVQAiVwCwhU/DpPJVX8msB1tfilCL5t4cEmr0D6nktfa5lQuY2iBEqgBG4pAfbAMg6KjDOEb2mxmu0SKIESKIESKIESuNMEKn6dp3orfk3gulL8InIRvSzjCH9H9SdUbKMogRIogVtOIIMgBkiIYJZsb3nRmv0SKIESKIESKIESuJMEKn6dp1orfk3gulL8ysg+4cvDjSVimGs6TtcyaBtoG2gb2F8biE3Ia4/aAPtg26UESqAESqAESqAESuAyCfDVaAz5Z3q+3eu4y8MRKMGH47fdvVL8Svbzb+sz4yvHfeDd3wNv67x13jbQNqANWCJ8sQmxC85n4CQ2pNsSKIESKIESKIESKIHLIMCPq/g1vy4qfk1gulL80jHycJPXW/KAk/MTitgoSqAESqAEbiEBdoCdyCywcUbwLSxOs1wCJVACJVACJVACd55Axa/zVHHFrwlcV4pfE7LfKEqgBEqgBEqgBEqgBEqgBEqgBEqgBC6AQMWv81RCxa8JXCt+TYDYKEqgBEqgBEqgBEqgBEqgBEqgBEpg5wQqfp2nAVT8msC14tcEiI2iBEqgBEqgBEqgBEqgBEqgBEqgBHZOoOLXeRpAxa8JXCt+TYDYKEqgBEqgBEqgBEqgBEqgBEqgBEpg5wQqfp2nAVT8msC14tcEiI2iBEqgBEqgBEqgBEqgBEqgBEqgBHZOoOLXeRpAxa8JXCt+TYDYKEqgBEqgBEqgBEqgBEqgBEqgBEpg5wQqfp2nAVT8msC14tcEiI2iBEqgBEqgBEqgBEqgBEqgBEqgBHZOoOLXeRpAxa8JXCt+TYDYKEqgBEqgBEqgBEqgBEqgBEqgBEpg5wQqfp2nAVT8msC14tcEiI2iBEqgBEqgBEqgBEqgBEqgBEqgBHZOoOLXeRpAxa8JXCt+TYDYKEqgBEqgBEqgBEqgBEqgBEqgBEpg5wQqfp2nAVT8msC14tcEiI2iBEqgBEqgBEqgBEqgBEqgBEqgBHZOoOLXeRpAxa8JXCt+TYDYKEqgBEqgBEqgBEqgBEqgBEqgBEpg5wQqfp2nAVT8msC14tcEiI2iBEqgBEqgBEqgBEqgBEqgBEqgBHZOoOLXeRpAxa8JXCt+TYDYKEqgBEqgBEqgBEqgBEqgBEqgBEpg5wQqfp2nAVT8msC14tcEiI2iBEqgBEqgBEqgBEqgBEqgBEqgBHZOoOLXeRpAxa8JXCt+TYDYKEqgBEqgBEqgBEqgBEqgBEqgBEpg5wQqfp2nAVT8msC14tcEiI2iBEqgBEqgBEqgBEqgBEqgBEqgBHZOoOLXeRpAxa8JXCt+TYDYKEqgBEqgBEqgBEqgBEqgBEqgBEpg5wQqfp2nAVT8msC14tcEiI2iBEqgBEqgBEqgBEqgBEqgBEqgBHZOoOLXeRpAxa8JXCt+TYDYKEqgBEqgBEqgBEqgBEqgBEqgBEpg5wQqfp2nAVT8msC14tcEiI2iBEqgBEqgBEqgBEqgBEqgBEqgBHZOoOLXeRpAxa8JXCt+TYDYKEqgBEqgBEqgBEqgBEqgBEqgBEpg5wQqfp2nAVT8msC14tcEiI2iBEqgBEqgBEqgBEqgBEqgBEqgBHZOoOLXeRpAxa8JXCt+TYDYKEqgBEqgBEqgBEqgBEqgBEqgBEpg5wQqfp2nAVT8msC14tcEiI2iBEqgBEqgBEqgBEqgBEqgBEqgBHZOoOLXeRpAxa8JXCt+TYDYKEqgBEqgBEqgBEqgBEqgBEqgBEpg5wQqfp2nAVT8msC14tcEiI2iBEqgBEqgBEqgBEqgBEqgBEqgBHZOoOLXeRpAxa8JXCt+TYDYKEqgBEqgBEqgBEqgBEqgBEqgBEpg5wQqfp2nAVT8msC14tcEiI2iBEqgBEqgBEqgBEqgBEqgBEqgBHZOoOLXeRpAxa8JXCt+TYDYKEqgBEqgBEqgBEqgBEqgBEqgBEpg5wQqfp2nAVT8msC14tcEiI2iBEqgBEqgBEqgBEqgBEqgBEqgBHZOoOLXeRpAxa8JXCt+TYDYKEqgBEqgBEqgBEqgBEqgBEqgBEpg5wQqfp2nAVT8msC14tcEiI2iBEqgBEqgBEqgBEqgBEqgBEqgBHZOoOLXeRpAxa8JXCt+TYDYKEqgBEqgBEqgBEqgBEqgBEqgBEpg5wQqfp2nAVT8msC14tcEiI2iBEqgBEqgBEqgBEqgBEqgBEqgBHZOoOLXeRpAxa8JXCt+TYDYKEqgBEqgBEqgBEqgBEqgBEqgBEpg5wQqfp2nAVT8msC14tcEiI2iBEqgBEqgBEqgBEqgBEqgBEqgBHZOoOLXeRpAxa8JXCt+TYDYKEqgBEqgBEqgBEqgBEqgBEqgBEpg5wQqfp2nAVT8msC14tcEiI2iBEqgBEqgBEqgBEqgBEqgBEqgBHZOoOLXeRpAxa8JXCt+TYDYKEqgBEqgBEqgBEqgBEqgBEqgBEpg5wQqfp2nAVT8msC14tcEiI2iBEqgBEqgBEqgBEqgBEqgBEqgBHZOoOLXeRpAxa8JXCt+TYDYKEqgBEqgBEqgBEqgBEqgBEqgBEpg5wQqfp2nAVT8msC14tcEiI2iBEqgBEqgBEqgBEqgBEqgBEqgBHZOoOLXeRpAxa8JXCt+TYDYKEqgBEqgBEqgBEqgBEqgBEqgBEpg5wQqfp2nAVT8msC14tcEiI2iBEqgBEqgBEqgBEqgBEqgBEqgBHZOoOLXeRpAxa8JXCt+TYDYKEqgBEqgBEqgBEqgBEqgBEqgBEpg5wQqfp2nAVT8msC14tcEiI2iBEqgBEqgBEqgBEqgBEqgBEqgBHZOoOLXeRpAxa8JXCt+TYDYKEqgBEqgBEqgBEqgBEqgBEqgBEpg5wQqfp2nAVT8msC14tcEiI2iBEqgBEqgBEqgBEqgBEqgBEqgBHZOoOLXeRpAxa8JXCt+TYDYKEqgBEqgBEqgBEqgBEqgBEqgBEpg5wQqfp2nAVT8msC14tcEiI2iBEqgBEqgBEqgBEqgBEqgBEqgBHZOoOLXeRpAxa8JXCt+TYDYKEqgBEqgBEqgBEqgBEqgBEqgBEpg5wQqfp2nAVT8msC14tcEiI2iBEqgBEqgBEqgBEqgBEqgBEqgBHZOoOLXeRpAxa8JXCt+TYDYKEqgBEqgBEqgBEqgBEqgBEqgBEpg5wQqfp2nAVT8msC14tcEiI2iBEqgBEqgBEqgBEqgBEqgBEqgBHZOoOLXeRpAxa8JXCt+TYDYKEqgBEqgBEqgBEqgBEqgBEqgBEpg5wQqfp2nAVT8msC14tcEiI2iBEqgBEqgBEqgBEqgBEqgBEqgBHZOoOLXeRpAxa8JXCt+TYDYKEqgBEqgBEqgBEqgBEqgBEqgBEpg5wQqfp2nAVT8msC14tcEiI2iBEqgBEqgBEqgBEqgBEqgBEqgBHZOoOLXeRpAxa8JXCt+TYDYKEqgBEqgBEqgBEqgBEqgBEqgBEpg5wQqfp2nAVT8msC14tcEiI2iBEqgBEqgBEqgBEqgBEqgBEqgBHZOoOLXeRpAxa8JXCt+TYDYKEqgBEqgBEqgBEqgBEqgBEqgBEpg5wQqfp2nAVT8msC14tcEiI2iBEqgBEqgBEqgBEqgBEqgBEqgBHZOoOLXeRpAxa8JXCt+TYDYKEqgBEqgBEqgBEqgBEqgBEqgBEpg5wQqfp2nAVT8msC14tcEiI2iBEqgBEqgBEqgBEqgBEqgBEqgBHZOoOLXeRpAxa8JXCt+TYDYKEqgBEqgBEqgBEqgBEqgBEqgBEpg5wQqfp2nAVT8msC14tcEiI2iBEqgBEqgBEqgBEqgBEqgBEqgBHZOoOLXeRpAxa8JXCt+TYDYKEqgBEqgBEqgBEqgBEqgBEqgBEpg5wQqfp2nAVT8msC14tcEiI2iBEqgBEqgBEqgBEqgBEqgBEqgBHZOoOLXeRpAxa8JXCt+TYDYKEqgBEqgBEqgBEqgBEqgBEqgBEpg5wQqfp2nAVT8msC14tcEiI2iBEqgBEqgBEqgBEqgBEqgBEqgBHZOoOLXeRpAxa8JXCt+TYDYKEqgBEqgBEqgBEqgBEqgBEqgBEpg5wQqfp2nAVT8msC14tcEiI2iBEqgBEqgBEqgBEqgBEqgBEqgBHZOoOLXeRpAxa8JXCt+TYDYKEqgBEqgBEqgBEqgBEqgBEqgBEpg5wQqfp2nAVT8msC14tcEiI2iBEqgBEqgBEqgBEqgBEqgBEqgBHZOoOLXeRpAxa8JXCt+TYDYKEqgBEqgBEqgBEqgBEqgBEqgBEpg5wQqfp2nAVT8msC14tcEiI2iBEqgBEqgBEqgBEqgBEqgBEqgBHZOoOLXeRpAxa8JXCt+TYDYKEqgBEqgBEqgBEqgBEqgBEqgBEpg5wQqfp2nAVT8msC14tcEiI2iBEqgBEqgBEqgBEqgBEqgBEqgBHZOoOLXeRpAxa8JXCt+TYDYKEqgBEqgBEqgBEqgBEqgBEqgBEpg5wQqfp2nAVT8msC14tcEiI2iBEqgBEqgBEqgBEqgBEqgBEqgBHZOoOLXeRpAxa8JXCt+TYDYKEqgBEqgBEqgBEqgBEqgBEqgBEpg5wQqfp2nAVT8msC14tcEiI2iBEqgBEqgBEqgBEqgBEqgBEqgBHZOoOLXeRpAxa8JXCt+TYDYKEqgBEqgBEqgBEqgBEqgBEqgBEpg5wQqfp2nAVT8msC14tcEiI2iBEqgBEqgBEqgBEqgBEqgBEqgBHZOoOLXeRpAxa8JXCt+TYDYKEqgBEqgBEqgBEqgBEqgBEqgBEpg5wQqfp2nAVT8msC14tcEiI2iBEqgBEqgBEqgBEqgBEqgBEqgBHZOoOLXeRpAxa8JXCt+TYDYKEqgBEqgBEqgBEqgBEqgBEqgBEpg5wQqfp2nAVT8msB1pfilY1i+93u/97ok3/d937ftv+pVr7o+150SKIESKIF9EWAfrLEP3//933949atfvUHIdl9EWtoSKIESKIESKIESuBkC8bVe/vKXbwl6NueL3c9S8et+KD14mIpfD87ste5YKX6lUyVTOpUHHdsIY7nWbQmUQAmUwH4IjA7WK1/5ytqF/VR9S1oCJVACJVACJbCIALHLM3oGH2XjJS95yX0LX8JX/DpP5VX8msB1pfiV2V0RwfKwk/M6TtcyaBtoG2gb2F8bGM1bbIRzozM2hul+CZRACZRACZRACZTAwxPIMzn/iw+eJbPAcnyvrXtoDE94whO27Q/6QT9o294rfM/fH4GKX/fH6VFDrRS/ZCydiuBlffGLX7zlN68/Pmrme7EESqAESuBOEjDby/LSl75023LEInxlgOROFryFKoEbINABhf0NKLTOW+dtA20D99MGmCD+Fj/Mczo/bByEvB8TJZ2KX/dD6sHCVPx6MF4nQ68Uv17xildseYq6nAzK05Of/OSt09jvWgZtA20DbQP7agOxAc94xjM2G/DEJz7x8KQnPWnbj63otgRKoARKoARKoARKYB6BDDQez/IigH3P93zPfSVU8eu+MD1woIpfD4zstW/wQJmpiJmaqMHe9BJF+WUve9nBQ07yJW9dy6BtoG2gbWBfbSA2wDa2yf7Tnva0Bx6BvGl71vRK4NIJGHTsWgZtA20DbQNtA6fagG98ZTHzyxtZeVbP+UfbVvx6NDqP/1rFr8fP7vrOUw8YNyV+SUeHyyuPyRTxa3zYkceuZdA20DbQNrCfNhCxU52bBZaZYGxDX3uMtey2BEqgBEqgBEqgBOYS8MqjZ3RLRK+8sXU/KVX8uh9KDx6m4teDM3utOzxYeMiwjeB0U+JXOpNMeZjJsbzk9Rb7XcugbaBtoG1gf22ATYroxSY4tnYpgRJ4OAL9Pd3f72nrvHXeNtA2cD9tgJ+VVx9Zmjyf27/fwceKXw9no+91d8Wve5F5gPM6wSrxSzZPCW3JTzpohLDXeZ3X2YSwzgzrj3faRrdtC20Dd7MN5Pee+MUm5PipT33qNv3+Acxcg5ZACRwR8HDjt1O/4mPF7/JacX9T7+Zvauu19do20DaQNpBna8fsQHysbI9MxvUssOPz9zqu+HUvMg93vuLXw/Hb7tbo4/TEGTolSE1I6mQUp9JKfohcz372szdHbLzZx/ZGFXq81v0SKIESKIG7QSDOU5y1ezlld6O0LUUJ3ByB9KX4W+NxvruaftdtH5jbBtoG2gbubhtgB7LGFhxbo7wCeXz+Xsfx36ItxNbcK3zP3x+Bil/3x+lRQ/kxS4NMAz0lSD1qJA9x8VRayc+YN0mYapl/e+/41Af6eq4fbmwbaBtoG7j9bcD3Jix5EH/Oc56zDYQYrexSAiXwcAT4WXy++H1PecpTtn8mkQdc17uWQdtA20DbwN1rA2bU5/c/n5ZIPccGHFsYfvWDLBW/HoTW/Yet+HX/rO4ZchSY4gSdEqTuGcFDXjiVlg6Yzmf7rGc9a0sl7x+b+eW/TnQpgRIogRK4uwQMdmT2b2xCxa+7W98t2c0RSH/KNiLzM57xjEf4X7ne7d2d9dG6bd22DeyzDeS5P7//Zn1l/9gaVfw6JrLmuOLXBO5+8CI2pROcEqQmJHUyilNpJT++7ZJ3koU7fioGOwgAACAASURBVNXRua5l0DbQNtA2cPfaQAY72CjOmDU2qoMfJ81pT5bAfRPwbS8POvG3bC0vf/nL7zuOBiyBEiiBEri9BPLxen5WnrcjhB6XquLXMZE1xxW/JnC/ZPErndHMr/x7VbO+LMdC2AQUjaIESqAESuBCCOS3PqOQT3/60/va44XUTbNx+wkQkiN85aFnFL46oHD3BhRap63TtoG2AW3A4CIxi/hlMNFASAYX43MdW7mKX8dE1hxX/JrA/ZLFr2c+85nbww4HTWfNEiEsx92WQAmUQAncPQIEsIxC2kYA68yvu1fXLdHNEsjgom0efJKD9q+Q6LYESqAE7i6BCFrsQMQv+9bjJWGPz9/r2HP7GG8GW+4Vvufvj8Br18z93ddQAwENMw0yDX8UmoagZ9k9lVbykw5IhRbOB5DT+bI9S6YaaQmUQAmUwFICfvOtPsSd17Nio5ZmrImXwB0gwM/Sr+Jn5Vt6+UcTd6CILUIJlEAJlMA9CIyDHKMdyP7xbQ/63M1/E1f8tjzbH8fb4wcjUPHrwXidDK1hpkGmgWqwN7WcSiv5kbc4Z/JzKuxN5bPplEAJlEAJ3CyBOk83y7up7YdAHnDGrdI/6APOfoi1pCVQAiVw9wj4zc/z/7E9GEv7oLah/ttIb95+xa8JLDX0iE1p/DcpMp1KK/mRt4pfEyq5UZRACZTALSRQ5+kWVlqzfCsIjA852ZfxB33AuRWFbSZLoARKoAROEqj4dRLLxZ6s+DWhaip+TYDYKEqgBEqgBKYTqPg1HWkjLIGNQASvcetCxa82kBIogRLYD4GKX7errit+Taivil8TIDaKEiiBEiiB6QQqfk1H2ghLYCMwil7Zd6HiVxtICZRACeyHQMWv21XXFb8m1FfFrwkQG0UJlEAJlMB0AhW/piNthCWwEYjgNW5dqPjVBlICJVAC+yFQ8et21XXFrwn1VfFrAsRGUQIlUAIlMJ1Axa/pSBthCWwERtEr+y5U/GoDKYESKIH9EKj4dbvquuLXhPqq+DUBYqMogRIogRKYTqDi13SkjbAENgIRvMatCxW/2kBKoARKYD8EKn7drrqu+DWhvip+TYDYKEqgBEqgBKYTqPg1HWkjLIGNwCh6Zd+Fil9tICVQAiWwHwIVv25XXVf8mlBfFb8mQGwUJVACJVAC0wlU/JqOtBGWwEYggte4daHiVxvIJRB49atfvbVFNsC+1X6WXNdeX/WqV23reD3hui2BEnh0AhW/Hp3PpV2t+DWhRip+TYDYKEqgBEqgBKYTqPg1HWkjLIGNwCh6Zd+Fil9tIJdMIGLXvfIYsexe13v+/7d3FlDWHGX+PoR4ILgEAgR3dxbLsvjiuuwiiy22BHcIS4AAy+Lu7u5OgMUhCZIECwQLBCdCSGBP/89Tf35DfT13vjv3m5o7t28/fU5P9+2uLnnq7a63f1VdIwEJbEtA8WtbHov+S/GrQQ0pfjWAaBQSkIAEJNCcgOJXc6RGKIFCIIJXveWE4pcGskgEJo3m4hijvU499dSJI74mXbNIZTIvElgkAopfi1Qb0/Oi+DWd0dQQil9TERlAAhKQgAS2gIDi1xZAN8lREKhFr+xTcMWvUVT/IAqJLeaTR/bXY5vrDTcIAGZSAnMgwD2z0047dWkHsu0nvZ77r75G/62m0W5f8asBS4z8NKc5TTH6GP88e00mpZX8kLfTnva0JW8UdVLYBgiMQgISkIAEFpCAztMCVopZWgoCecGptxRs1hecpYBhIQZBoLZN2gZ+572ALaPBEMtcJCCB9RPgPsr7f789qGOp77/6+Fr7+m9rkdnYccWvjfErV2PoEZti/GlMGkQ/NYpJaSU/5E3xaypCA0hAAhJYSgI6T0tZrRZqAQjULznZJ1uzvuAsQFHMwhISOOWUUzrW2h4zCizF5Vz9DpFJ8HPerQQkMJ0A91He/9MWsO0v9b3YPzfpt/7bJCobP7a6ZjYe5+hiwMAjNsX468Zks4FMSiv5IW+KX5tdA8YvAQlIYDEJ6DwtZr2Yq+ETqF9ysk+pZn3BGT4JS7CoBLDF7dlj5v1K/mkvFMBCw60E1keAeyzv/2kL2PaX7d2L/bD81n+bRGXjx1bXzMbjHF0MGHjEphj/JEFqs8BMSiv5IW+KX5tF3nglIAEJLDYBnafFrh9zN1wC9UtO9inNrC84wyVgzheZwK9+9avu6KOP7r71rW+V9cgjj+yOOOKIld9HHXVU2f/Od77THXfccd2f//znbUaBLXLZzJsEFomA4tci1cb0vCh+TWc0NYTi11REBpDAmgToeTzppJO6ww47rKxf//rXO9bDDz+8++pXv1q2X/ziF7tDDz20+9nPflb+OxGR4aixcD0v+PzOXBUcy8J/M2KhcYpQfPLJJ5djCc82+5w48cQTy/mEz5aDfEbAQvi85CQ+wuXanCuB/SOBLSKATdJGpWMmHSNblB2TlcDSEIjgVW8pnM/+paniQRfkDW94Q3fZy162u/jFL95d9KIX7fbdd9+yf6lLXao7z3nO013kIhfpLnShC3UXu9jFugMPPLD705/+VMpb+08cyHF8ntoX4lztB3Fd/KP4W/XvxFPHWRKs0uB3/KnEX28j0PXzkXjcSmArCGDv8bH67UGdn1nbBv23ml67fcWvBiwx9LxQxPjn+WCelFbyQ94c+dWgko1iUwjg5NAYfO1rX+v233//br/99ivO2AUucIHiqOGg7bPPPt2FL3zh4rQddNBB3W9/+9ttnKPa/okrIhaiV+1E1ftxwiKMUTiu4zhCXH+Jg8e2dgyJM+nXcU2Kox+nvyUwDwLYJ+1A2qa0DfNI2zQksMwE6pec7FPeWV9wlpmRZds6Ai9+8Yu7s53tbN0uu+xS2oC99967bLHVvfbaq+zn3P3ud7/iL0Wsot1gP35N7Vdh35yPHzXJ30l4tumohATx5Ry+VOLnHPHyu/ax6vwQJmnG79o6uqYsgb8TwHbjY6UtYNtfZm0b9N/6BNv8Xl0zbeIdVSwYeF4oYvzzfDBPSiv5IW+KX6Myx0EW9uMf/3h3jnOcY8Uxw2ZZT3e60604aLvvvnv32Mc+tjhocbbY9p0rRl7VDUxGYgEGpyr3S8SwOGIBh7NFGOLIuTq+nEs8XJdRZ4RjjYOWON1KYKsIYKe0A2mb0jZsVX5MVwLLQoD7qr9Strq9WJayWo7hEXjuc5/bnelMZ+p23XXXYqe77bZbFwGM9gCf6gxnOEM598AHPnDFj4lvRInjA51wwgkrAHIsB/jNiu+EjxWfqxaxCMv5vpjF8dwvbHNN0ohwxvHkgTjqPCYfbiWwVQSw3fhYdZvQz09svX98rd/6b2uR2dhxxa+N8StXY+h5oYjx1y/GDZLYbhST0kp+yJvi13bxeXIBCCB+ne985yvO2BnPeMbugAMO6N72trd1DNt/5zvf2b3pTW/q3vzmN3ff+MY3ioPWt3kaFJyhOE4Uif30KnI++zhOEc8SDker7nGMkxU0iTcOGceJM9clHPmKU9bPY8K4lcA8CWCHtANpm9I2zDMPpiWBZSRQv+Rkn3LO+oKzjGws09YTeMlLXlJGfuWZz/ZlL3tZmUIi00x88pOf7L7yla8UYel3v/vdSucguce/wRf60Y9+1DE/2De/+c2yzxxi7OOPMR0Fc4lxLQvtTXwjjn3ve98r845xPWt8L8Kk0/A3v/lN9+1vf7vMR8b8Y1zzxz/+scT3wx/+sJzj+He/+92O3xHXSgD/SGABCGDP8bHSFrDtL7O2DfpvfYJtfq+umTbxjioWDDyNS4x/ni++k9JKfsib4teozHFQhcURwn4Rv/jUkfvnXOc6V/fRj350YjkIG3EJx4nrjz/++I6JXXGsvvSlL3XMD8YWhw7HjE8qf/3rX5fr4nAhZnEdDhdhcOII94Mf/GDFOSMDpEc4whAfK2mxkDZzkJEezuAhhxzS/fznPy/nENhmbeTKhf6RQGMC2DDtQNqmtA2NkzE6CYyOAPdVfwWCz/7RmcJCFvg5z3lOd+Yzn7k8+/fYY4/ynvK5z32u5DWdgck4v3OMkesRpp75zGd2l7nMZcq0Exe84AWLn4avdslLXrLsX/rSl+5ucYtbFB8Ov4oVv+gd73hH99CHPrS76lWvWuYbY24xprZ42MMe1r361a8uvhJtE37U6173uhKOeJl/7KY3vWn3kY98pAhdd7vb3cq0F0yJQT5udKMbFZEsI8iSf7cS2EoCPPPjY9VtQj9Ps7YN+m99gm1+K3414Iih54Uixo/BzmuZlFbyQ94Uv+ZVE6azowRwdHCssNdznvOc3Qc/+MEiOhFfRnTRaOCUxd6zJczznve8MkcYwhmTueIonfvc5y6TuvI55Vve8paVrOFs0et5//vfv7vBDW5Q0sUxu+Y1r9nd97737Z7xjGes/OcjLmLy/Tvc4Q7FKbvSla7UvepVryp5+uUvf9nd61736nD+SBcHEJGM/EagW0nUHQlsEQHuE+6rtE1pG7YoOyYrgaUhwH3VXyncrC84SwPEgiwUgZe+9KXdWc961vJ+kuf/ve997+7ggw/unvKUp5Qtn0ZGaCLz+cwwBcHHyaeRxMH7xJ577lnsPm3J5S53ue69731v94c//KH7xS9+0T3iEY/oLnGJS3SM4id8Prtkn08t8bfws4455pgyiguRjs8zEx8T9NMhSr6YpD9551571KMeVfyz5M+tBBaBgOLXItTC+vOg+LV+VmuG5IGch3Ye0vWL+ZoXNjoxKa3kh7wpfjUCbTTNCWC79BQidvHZI7aKY/Sud72riFycT28kidPbx1D8fH6YEVZM1opTxYrNs+JwER8TuuIE4tQhnvH5JD2LzH1Bb2jCs8Wp4z8gPf3pTy9OGWkziozeS84zeSxx4eA9//nPXxHsdt5553INo8TIE2Vy3q/m5mKEO0CAewjbTduUtmEHovISCUigIlC3HdnntOJXBcndLSOAjxLhKvZ5+tOfvsylynyqzAGGT8Noq3ve857F16FzMP4VGafDj2vxlfBzWPGrWDNpPmEQv/jM8ZWvfGUZqcV5rqPdwRcjrcTBsbOc5SzlE0z+gdGzn/3sks9Mvs8Ir9e//vUd85ARR3w5RpsdccQRpWPUe2zLzMqEJxBQ/JoAZYEPKX41qBweznmhyAvGJEGqQVITo5iUVvJD3tIIcfGksBMj9aAE5kAgDsxnPvOZIn7FUWI01U1ucpPuZje7WXfzm9+8u8td7lKcqh//+MdFWCJrXIs9IzIxMgtbZ/QYk+K/4hWvKP8lkmOsjNZCyOIzx9vd7nbFgcNxu+ENb1hErPe///3dfe5zn9L7iIPGuQ984ANlSD6jxK5xjWuUeHAUmUfj85//fPkX4sSNU4fjeOyxx66MViN/3mtzMCCTmEoAO8RO0zalbZh6oQEkIIHtEkj7Um+5IO3adi/2pAQ2mcALXvCC8tkjz/yMvmI/bQBtQtoFhCf8nKOPPnql45FOvstf/vLFX8LG8cve/e53d49+9KNXRn9x3fnPf/5yHPELIS0iFtfgvzHynrlbr3vd65a2KP/I6OpXv3qZL4yR+4xQy33ESDL8uCte8YoreaWz8kUvetHKXGB0MLpIYFEIKH4tSk2sLx+KX+vjtN1QPLDrxoTf83zxnZRW8kNeFL+2W32e3EIC6WH8xCc+UT5RxF7pWYz9sp9jzAfBfA/MWYGQhd2z4qzxySHhcJqIi8lRccJi/3GamOyVzyC5J4gP0YueThYmU73tbW9beiBxCBnuzxxeX/7yl7urXOUq5RoctAMPPLC7053uVHoxyeetb33rMhdY4iFP/QnztxCxSY+cAPbIfZCXnNxbI8di8SWwYQLcV/2VSBW/NozWCBoQePGLX7zSCcioeDrqrnWta3W3vOUtS+fihS984eJrpW0gDEIVvgztBh1/+ElpP/B7fvKTn5QOQ0aU5To+ccSXYvL8+F05Rx4YEY8w9sIXvrCM+KINwrdjFNpnP/vZDpGODkeu4Ryj/+mY5FNI0iYsvh9zszKyvv9pZgNURiGBDRFQ/NoQvrlfrPjVADkP57xQ5IFPwzGvZVJayQ95U/yaV02YzqwEsF3WT33qU2XUFj2GODz0EN797nfvmOz0+te/fhGsuLdwlvjEkf/4k4V5Ia597WsXx4k5vPJfgS560Yuu2D4jwXCanvCEJ5Qh/4zuwpnCkcORQkyj8eJzR5w65qpg3gnSYZJ7PnvknmLy2Ctc4QplHgruLYbhM6qs/sQx/4nInsnUkNutJMD9ha2mbUrbsJV5Mm0JLAMB7qv+SrkUv5ahdodfBiarp8Muc3Rhq/hLTEjPqK6HP/zhK514tA+MDqNz7/e//30ZYY/fRGchohnX8hki1zJH1z777FNGeHEdfhD/pOg973lPd97znnfl80auQUxjLjAW9vGh6pFhn/70p8uIrvOc5zzlOq4hbgQw/DTSps26zW1uU/4hEfF4fw3fNpetBIpfw6pRxa8G9cXDOi8UecGYJEg1SGpiFJPSSn7Im+LXRGweXCACjNZigvo4PswbwaTx/Ltr/ptiRnbhNCFEcQy7Z+TYW9/61uIocQ6h7Kc//WlxkujVxHkiTkZ+MUH9AQccsNITSu8nDiCiGAv/ERJnEeeMa/IJAP8FksnwOYYohmPGPk4ZohvnEc9YIoJNuidLAP9IYM4EsEXsNW1T2oY5Z8PkJLB0BLiv+iuF9OV86ap6kAXivypin4hfdByyz+gp/CY66d74xjcW4So2zOeIT3ziE4vAhS+TObc4z8gspnzAJ2OkFnN25d0CX4vPIenExD9KW8N1b3rTm4qYBkDmS6VzM3N4Iawxsf2Tn/zkMvcY4SOmMdqefJMGK3PCIp7F18pI+0FWjJleOgKKX8OqUsWvBvXFAzsvFHnoz/Pld1JayQ95SwNFUSeFbYDAKCSwQwQyMTwOEA4UDhbzdvFvsnOOiBmRlWHx9AgyH1eGvzM3BPNBMB8XThROG6O/+K+PuTcZnUXv4wMe8IASFuGKecT41JElLysHHXRQ6blkmD3zTXz/+98vQhufChAXziFCHHNcEIbfOIg/+tGPVpyygHDkV0i43UoCil9bSd+0l5kAbUJ/pbxpT5a57JZt8QnQ6cdI9vp9gInk8Xv43PCOd7zjyvsB/gy2/JrXvKZ87sgUEfzzH95pEM74/JFJ7RGdOEcnIee4js8e+UdCdCZe+cpXLvHQGcnKPxfCn3vf+97XMccXaSQtOjJ/8IMfdPzHSfy3/NMifDc6Ivfff/8SnncYBLM73/nORZjz/lp82xtbDhW/hlXjil8N6ouHeRoXxa8GQI1iVARoNOqRX/TwMTlq5gNDgLrrXe9anCDutatd7Wpl3i8gMVE+o70YkcXw/jhn9G7y2SJOE0IX/02IBacNZ5BjhGeYPs4co8yYDJ95JuJoPexhDyv/UpvPHvNZJb2dT3va08pkrJm0lZ5ORqqxUJaMJFNoLkj8s8UEFL+2uAJMfmkJ0B71Vwrry/nSVvmgCoaodK5znau8n/BuwkgqfuNjsZ797Gcv9ss5RsnTqYcPxQh5RmXFtvGJ+OzwmGOOKSPG8KcQq3jvQchirtW3v/3txfd55CMfuc05whAvnZr5jJF4z3nOc5a5wxDM+K+U+GNJjykriI9PMDN6nzzi5334wx9emad1UJVhZpeagOLXsKpX8atBffHAVvxqANIoRkcA0QmR65BDDikOEvcSDs5973vfMsSeuSXucY97lElUcX4QnDjHJPSvfe1rS8/lfvvtV5wmJqtHKGNYPP8VknkoiA/njGH6HP/Wt75VeiJx5hCybnzjG3ePecxjyhwW9ILuu+++ZYQZcZIn8nbooYeWTy2JC4cQxy/x4EzSW8m/+v7617++MrdF5v0aXYVa4IUjoPi1cFVihpaEAG1Cf6Voil9LUsEDL8bLX/7y8pkh/k5tp/nPjxxDXOI8vg9iGf9AiP/QyEh7/BvCcI648GtY6eyjEzFxMlKLCe/p+MM3Yq7WCGv4RwmXDkOufdCDHlRGoDGH2LOe9awVsY28XeYyl+k+9KEPlQn060n58eXwB/lHRI6sH7hxLln2Fb+GVaGKXw3qiwe74lcDkEYxSgK8nPMZIw4Ww+RxxHCScLyYHyJzVXCfXec61ymjxL73ve91l73sZVc+hUQY++AHP1j4ER8iGJ9HcpwVZy2C1Lve9a6V/2CEM5V0cPZIg7nHcMb470TExfxizP9FvuitRPzivzkyzJ/PArgGB5IJ+nHkWBhNpnM2SnNeuEIrfi1clZihJSHAs7+/UjTFryWp4IEXg5Hu+E/4VYzUwtfhXQV/BX+HDkA+Z+RzQub/YqL74447rghMiFaEZ75TOiGPPfbY4vf89re/7V73uteVawlD/HT+8Wlj/sv1EUccUeZZJV46EkmfcIwAYwQZ84Dx6WXmSGUuMUZ+IYrhkzFKjAn08dludatbFT8QP46OUfy6j33sY07hMnDbXLbsK34Nq0YVvxrUF86P4lcDkEYxOgL8p0UajS984QtlPgicI4bjI4ThALHP54vXu971uoMPPrj0KvJvs+n5Y8J6hsfTS8lQeBy3TILK5PZ8qsh/HuK/COFssZAec38xJ9hTn/rU8skkcZAuAhfzh/HvunEAs/DZ4+1vf/viJNLDiZNHOr/5zW9KnhDAiIP/Atn/z4+Jw60EtoqA4tdWkTfdZSfQF774zaL4tew1P4zy/epXv+qOOuqoMlKef8yDL/PNb36z++pXv1r+UQ+j1Y888siOcLFbRuPzX7CZBoLziF75748pNSPrEa84T3yHH3546SzkfHwwfC3++RDnSYO0yQufOSJ60S6xMFoMXypxHXbYYcU/S2clHYpczwh8/ER8NwS4nE+e3EpgKwkofm0l/dnTVvyandmqKxS/ViHxgATWRQAHiBFSOFdMGo9zhHPDSu9h9jmXf5dNxPQw4ljhFOFM4bARD/GxIpDhwOF4MaEqzlU9EgvHjDCMEMOJYyQZ4XGq8ilmXmBIC2ePvJAPRoTxCSXpEJ5jOIqcRzTLfyNaFwADSWCTCWCntFH0nNdt1SYna/QSWHoC3E/9lUKn7Vh6ABZQAhKQgATKMz8+Vt0m9NHM2jbov/UJtvmt+NWAY/1CEePHYOe1TEorI9HIW773Jz+Tws4rn6YjgT6B2h6ZXyuT3BMu59jSYOR3HUc/fB0GEYrza11bx4MwFvEsx+u4iCfx5Txbjq83jfo69yUwLwLYMe1A2qa0DfNK33QksKwE6pec7FPWWV9wlpWP5ZKABCQwBgI88+NjpS1g219mbRv03/oE2/xeXTNt4h1VLBh4Xihi/PWL82bDmJRW8kPeFL82uwaMf0cJIBxloVFgxZ45zuis/sJxRKp+A8I1EbByrn9fcJzr65UwHM/aT484Jy3J46Q0uIY0+ucmxeMxCWw2AeyQdiBtU9qGzU7X+CWw7AS4r/orZU4btOzlt3wSkIAEJPD/n/nxseo2oc9m1rZB/61PsM1vxa8GHDH0vFDE+Of54jspreSHvCl+Nahko9gSAoy2YkVQqu2c/Zzrj8jiHA0MW+aT6F9LQTiPQJVwhM11HMvKsSwcIy629UI8CHV8Lkle6mvqcO5LYCsIYI+0A2mb0jZsRV5MUwLLRKB+yck+5eu3EctUZssiAQlIQALbEuCZHx8rbQHb/jJr26D/1ifY5vfqmmkT76hiwcDzQhHjn+cL8KS0kh/ypvg1KnMcVGFrAQuhit80Dn2bjlBVF26tRoTjk84RZz/eOr56P+EmxZNwOUfY7Occ20nH6vPuS2AeBLBP2oG0TWkb5pG2aUhgmQlwX/VXyuuzf5lr3bJJQAIS2JYAz/z4WHWbsG2o2dsG/bc+wTa/Fb8acMTQ80IR48/Lc4Pop0YxKa3kh7wpfk1FaIAFIoA905Dk08HYN1uO5bNCwiTspDAZ8ZUwXJuVa1kR2zKai3CJJzgIn7wkXH2uf4xziZutiwS2mgA2TTuQtiltw1bny/QlMHQC9UtO9imTz/6h16z5l4AEJLB+Ajzz42OlLWDbX2ZtG/Tf+gTb/F5dM23iHVUsGHheKGL8/ZfozQQyKa3kh7wpfm0mfePeCIGM/EJkmmTHnO8f53eOReCalAcaGdaE7YfZ3nGuI0/1EiGsPtaPY1KYOrz7Epg3AWyUdiBtU9qGeefD9CSwbAS4r/orZZz1BWfZuFgeCUhAAmMiwDM/PlbdJvQZzNo26L/1Cbb5rfjVgCOGnheKGH//pbhBMmtGMSmt5Ie8KX6tic4TC0YAW6Zx6Nt0jie7/d8cR3iqBas6joSPODXp3KRGqY4vabNNfNnndx0ncSHMuUhgqwlgl7QDaZvSNmx1vkxfAkMnUL/kZJ8yTWpLhl5W8y8BCUhAApMJ8MyPj5W2gG1/mbVt0H/rE2zze3XNtIl3VLFg4HmhiPHXL8KbDWNSWskPeVP82uwa2Lz4qdtJ9dtPMQ9UwkZ0Wc91/XgW8Tejv1jqMi5L2RaRt3laLgLcK7QDaZvSNixXKS2NBOZPgPuqv5KLtFXzz5EpzptA/is1z1n+6U291H5KvR8fLVuuqffj89RxuS8BCSwuAZ758bHqNqGf41nbBv23PsE2vxW/GnDE0PNCEeOvG7oGSWw3iklpJT/kTfFru/gW+iQPyoxWIqM4SBxLnWefMAmXc7UztdCF3E7mKB9ryl6XMce3c7mnJDB6AjwPaAfSNqVtGD0YAUhggwTql5zsE6Vt0wbBDujy+Ft1lqn/448/vhzi/O9+97uV0wkfG4nvlikgEjDn89utBCSwuAS4X+NjpS1g219mva/13/oE2/xeXTNt4h1VLBh4Xihi/Gng5gFiUlrJD3lT/JpHLWxOGnGM8sCkl5F9jlPvOU7qEcY2JydbE+taZaLs9o5uTZ2Y6rAIcK/QDqRtStswrFKYWwksHgHuq/5KLut2efFypgNR4wAAIABJREFUbY5aEqCuGfGFr8KzlnWthTDxW3JdPVos//Ga67cXz1rxe1wCEtgaAtzP8bHqNqGfm1nbBv23PsE2vxW/GnDE0PNCEeOfZ8M1Ka3kh7wpfjWo5C2OArGL5U9/+tM2OeF4HqYJQwCcqBzf5oKB/ojTyDafGQy0KGZbAnMloPM0V9wmNiIC9UtO9in+MrW9I6rODReVekfcOumkk1Y+Y4y/EtErifRFL57TsRu22U94txKQwOIS4H7N+3/aArb9Zdb7Wv+tT7DN79U10ybeUcWCgUdsivFPEqQ2C8qktJIf8qb4tVnkNz/ePCgjbOU3jhMCFwtOFcfze5I9bH5ONyeFlPtXv/pV9/GPf7x717ve1X3iE5/ofvvb324zuf3mpG6sEhg+AZ2n4dehJVhMAvVLTvbJadrpxcy1uWpFgM44/C46Jb/0pS91b3/727v3ve993Vvf+tay//Wvf7074YQTSnI8h7/2ta91b3rTm7o3v/nN3Tve8Y7uda97XXfsscd2J5544sqIMAITr4sEJDAcAjzz8/6ftoBtf5m1bdB/6xNs83t1zbSJd1SxYOARm2L88xQgJqWV/JA3xa/hmmMELUrAQ/MPf/hDEX/+53/+p3vKU57S/dd//Vd34IEHdk9+8pO7xz/+8d1Tn/rU7iUveUn3gx/8YLiFrnJOmVk/9KEPdZe73OW6M5/5zN0///M/d4cddpifBVSc3JXAWgR0ntYi43EJbIxA/ZKTfWKc9QVnY7nw6q0m8Otf/7p72tOe1l3iEpfozna2s3VnPetZu7Of/ezdrW51q+7nP/958VV+9rOfdf/yL//Snetc5+r22Wefsl7hClfoPv/5z69kP758RoutnHBHAhJYaAI88/P+n7aAbX+ZtW3Qf+sTbPN7dc20iXdUsWDgEZti/GnE5gFiUlrJD3lT/JpHLWx+Goz2+t73vtfd/e53705/+tN3O++8c6nbvffeuzvTmc5U9nfffffuGte4Rve///u/m5+hOaSQHtBPf/rT3X777VfmV7na1a7WHXroodv0lM4hKyYhgUES0HkaZLWZ6QEQqF9ysk+2Z33BGUBRzeIEAvWni1/4whe6m9/85sVHif9NZ91nP/vZMvn9u9/97iKO7bbbbithHv7wh5eRX/Hh4+8w4j37E5L1kAQksGAEFL8WrEKmZEfxawqg9ZxW/FoPJcPsCAGcojhBfN5IL+Id7nCHInTttddexZliRNQFLnCBbpdddiki7JWvfOUyBJ+h9ENfKD+Nykc/+tFu33337XbdddfuSle6Uhn5lU8ih15G8y+BzSSg+LWZdI17zAQieNVbeCh+jccqqGtG6OOP/Pd//3dHZySdkLGJgw46qDviiCO6Bz7wgaXTkuP4ate5znWKMAap+Hj1PzQaD0FLKoHhE1D8GlYdKn41qC8as/T0OPKrAVCjWCGQHkEO4CDxOeP1rne9Murr3Oc+d/eBD3yg+9GPflSG3DPcntFgV7ziFTtGSmWpeydzLJ9TRkDKb84nPOmRPiv7fYe+Psd1ceDYT3w5lnnJiINjk9LINZkYNtcQH/N8neUsZ+n23HPP7prXvGZ3yCGHrHz2yHW///3vCVbm3kg+SSdxJU/15wScC99aKMw/Fci1uQZWf/zjH0s6/OF3wtTXhClx59qkz5ZrwoW8Jr8pfxJIGOKrw3E+59gnHa5NukmT41yXsMkjvzmX4/lN2MSRciVvbBMvYZjQ12UYBKhr2qi0TWmrhpF7cymBxSUQgaPekts8Nxc35+asJQHaRp6zP/nJT7p/+qd/WhG+eObir7zoRS/q+MSRUV88f895znOWKSqOP/740q4eddRR3Yc//OHu1a9+dZkT7IMf/GB3zDHHFH+PfY7TAXj00UeX+cHIOz4UbTfzoX71q1/tPvaxj3VvfOMby3xj73nPe0oHIdNkxNcirU9+8pNlrrHXv/713dve9rbuK1/5SokP/4evBZiz7LWvfW05x4g1rv3mN7/ZEd+rXvWq7i1veUv3uc99rqSLD4AvwFyszGH2yle+sqT93e9+t5QJHizMz8p8aKTHHGfEQRrMi8b8Z+SFdBk5h39FBy9zu+Y8c6jhj8T/+MxnPrNSTuKj7Myr9uMf/7j7yEc+UvJJWsSNb0yczL3GyDvKAKMvf/nLpWycf//731/yT1yU46c//WnJN2XDryIMabzzne8s5wlDmb/zne+UfMVXin9VLvbP6AjwzI+P1W8Pahiztg36bzW9dvuKXw1YYuh5oYjx58HfIPqpUUxKK/khb372OBXhwgeIMIKDcKlLXao4V1e/+tVLw0zmX/GKV5Q5JqhvxC8cBJY4DDg+NOZHHnlkCctwe+YKw0ngGEsEDRyVRz/60WVOsRe+8IXdL37xi3KeOSuYU+yxj31sOY+zwfLLX/6yODOPetSjSs/nF7/4xeIc4VA9+9nP7h73uMeVeciY2LVeXvayl3VPeMITSj5wSGLHmSD2+9//fnFUnv70p3d3vOMdy3xflA/H8S53uUtH3nB2cP5YcHKIg8YFhyrzoeG44dDgXDJPGvOjveY1r+l+97vfrfDhesrPteQT54t51R7zmMeUMsPphz/8YUkHoY2ykRZxHnzwwSVemD3kIQ/pnvjEJ5YVVoiQOE9p8LiG3zhfz3ve80rcpEFazGNGHlLXOI04a0960pNKnpkslzyzsjz3uc/tYE45EQOpX9jhxHGMOCk3zhnpEi+OJ3OTkMe6bgmDo4wDDG/yhH1Qd+yTh5e//OXF4YuTR3oui0+Auue+SduUtmHxc24OJbDYBLiv+is5zvN+sXNv7jZKIG018SBE0Y7iW/C5I6O7sA328V+YqiK2cstb3rIIKjybsRXa7Ete8pKlg4/5whjNz0ixO9/5zuX4+c9//o71+te//spnlKT5rW99q/gA1772tburXvWqJQwdhOc973m7G9zgBmUeWPwN2mr8t3vd617Ff+KrAUao3frWt+6YrwzR7h73uEeZh4z0GWX/7//+72WaDcpz0YtetDvDGc7QneMc5yh5YvoNFvyby1zmMmWeM+YxY/oNfAv8I8qFr4A/xSg3/DZY0EnLfGis/OYaVvJGHhH58HE5R16ue93rlpFzpIdI+I//+I+lfGc84xnLeTiRf8QppsSgXIkX3w//EN+M9DPXGnOvHXfccUUwvPjFL17iIT46lIkn/h0CHNOM7L///t2FLnShki5h2Gc+t+c///mlztORWKD0OidzzO1yE8De42PlPmfbX2ZtG/Tf+gTb/F5dM23iHVUsGHheKGL8GOy8lklpJT/kTfFrXjXRPp3UbYQGeq+YMJV6xaGid5AwCEk0+BzHAUDEyLXkCqcMMYZPBnFscMRwOGj46alkBFlEDXrwcBKwoatc5SplQlZ6AOlZvOAFL9id7nSnKzaF48NxesVueMMblqH+OGiIJwhRjFIjL9wTOAv0IFIOrkGsISwj1XDEMjEs57mW/4T0D//wDyWvOHN87siW8u2xxx7FEaMM5zvf+YrTRh7SqMDkpje9aYkbBxRO97znPYtjEwcOJw4H6Nvf/nYRkyg7acMBh/DCF75w4UPe6K3FmURsxEkNJ5ynBz3oQSU/fOZAOPJEGvwmv3yO+uAHP3hFQGSuMpw8nFucP/IHT+qEHmIEq9/85jdFBENsu+1tb1vKQZmpvzjbiFyw5d4mPUQ9xDI+r8CxJh9MvksdIYDCHMENpxLnEI7whRULQiaONr3TOKdcT70RN2FZL3/5yxe7imPY3tqNcTMI8Byg/tI2pW3YjLSMUwJjIpBnY72l/GmLxsRijGWt65k2lgWxCZEKnwW7wC+gjef5i79D+8vIJ9pwRBM6nei8RHyJHREGn4NruSbHiQM/AT+ChRFlCET4coSh3SZdRsnzm+0zn/nMInAhcuHzcJwwrLe//e3LOUQlxK8IdoQhLB2jL37xi1fiJT+3uc1tir9A5yQCGT4IKz4PbQsdb3S2xlc5/PDDix+EL0W8Cc8+4cOJ6TwQyvD9YMFxyo7Pwmgy/KIHPOAB5XjiShnwxehAzdQYKQcddpxDIKMO4rviIyGKIXThN5MP8gV3Rpqlszi84EicqSPC4xshCn7qU58q4UuF/G0kfl8Myzm3y0uAZ0F8LGw7a7/E9TOjf27Sb/23SVQ2fkzxa+MMi5HzMMTYY/y18NAgie1GMSmt5Ic88VBnyzIp7HYj9+SWEqC+0pDiXOHIxLFh9BYNOGEiWGF/THjPyC+cD4QPxJrnPOc5RTSjwUY8Q+RAkOI3DgZCCiOLiIv/Fkka2BCjyBgJxsJ/XKSxj2OR/1KEc8OnmBxHVGIkFHmmFw9xDdvjOobss+BoIbTgiCQuxC9GmDHyCecjwg7OCAIXolucK+yZ+BCPyD8OEL2BiG2UlXQZGQYLyobDgpiFeMWWYzhxOIz/8R//UUQj8sXnBYhSnCNuevi4hrQQA0kXQekNb3hDEcxwxqiDsOIarqcnlPwiflE+GFAf1AWfDOB4IfwhLNJjS5xxXgnLaDI4IEzxny3JL2ngVDLqjMYTh466yf0Nc0QpemQR78jrRS5ykZIuTHB873a3uxVHOcxJnzRwvhnKT91xHY7lxS52sVL2lAP2sKPOSZ/6jV2WSvXPwhLgnsZO0jalbVjYDJsxCQyEAPdVfyXrs77gDKS4ZnMCAfwsnrFZaefpJIuvgX3go+S5i8iEmJMFEYzRVXQ6EY7whKXNxR/A/8EHoN2mbcYnopOMEeCkQ4cmo634fO8b3/hG96xnPav4dsTDNXRa0SmGKHeLW9xim7YAv4vR4YhcCFmki//DdXS88Qki8eFnxc6Z1B8fjtHgmWojbQthmOMsXwvgs+LPnOc851m5nvLg/yDaUV6uJV06KeFCB286RokPjnRSImThsyYfbLmeMkXIynXER7x8Tkle8PPSecp1d73rXYvQxoh+fJw6Tvw76pAFsY2RZ8zlRkcin4kecMABxVfiGuoFv4q6yD2PHbiMjwD1X98Hsak+idhJ//hav/Xf1iKzseOKXxvjV67GyHnYso3xz/MBOCmt5Ic88ULLlmVS2AYIjGITCURkoIGnJwrRiPqktzAjwhj5xbBujiNq0BtFXXMto6IYEo8IRBiEEpwMRmIhlODAYC/0IjLqik8VI+jgOGWOB8QhHBHSIDzzR7AgjjF6DEeANPisDocOZyvOCmIbI4/oUcOZQuwhDq5hSw8k4hV5+td//deSBs4KohbOE05eet3o+eSzxNrJI0/0UCIAIQzhuHGMFccLR43RTXySifNJDyHnEAoRdHBeYIvDiUNFGoh9CHawhBP5Ib83u9nNStkQv+573/uu1Adh+CyV3ktGacGQNHBOmXOCBe70+sISh5TeU0RHHDicWnpu+ZQRTulBJk3yhPhF3Cw0oAhtsCMN0qPucGIjflFXfBaKA4qtZGQgcXENNpFPOfm0ETvg+YWohlNI2XH6yBPOMI44nySkR7dkxD8LT4DnAPWdtik2s/AZN4MSWHAC3Ff9lSzP+oKz4MU0e9shQHvIyHqW+GN0dtGBRLuJfeCz5fn7iEc8orTvCCxch63gu6SzjHC01fgW+G74Oog6sTPaY3wkRnojxjCKng5I/DT8Cvw4Ro0hlKUzC78E/we/iPafNMgbeURUYgoF/Mb4Y6TFSCx8EHwLOsY4x0qHHP4mPh3haE8SH3EzrQRTYeB70vbgT+JbIKoRjqku8CNudKMbrbybcJwOUfwjRt/HzyT/5BGf6VrXutZKJ2HNFN8RkY5RXHRUhhP5olOYzr3//M//LAIeI+g5f7vb3a50knINnZYcQ+AjH/g+LNQrn03i3zIlBQypC/yz+I/UGT4yflnu+bxjZVsi88/SE6D+sZ/YX7b9gsdO+sfX+q3/thaZjR1X/NoYv3I1Rp4Xihj/PB98k9JKfsib4leDSt6iKOq6RRxCmMhnfzhYPEgRN5i/KY14xC+yjHPFxJ8RPvbbb7/iVNF7hXPFvBA04NgtvxlZhCNGrxy2g4ODYMToISZAxaniOI4TohALohafPXIcAecFL3hBGbmEeMKQdWwRZ4ZeST7HRCjDScqnlThUjIbCOeM8ZcRxo5wIdYhZOETknesQpsgTPZYIWThmOFb0YjKSiXgQqDhG2nzyyOSkcIIXohajosgvTiXzgyFO0SNJeJygjF5DTGOhVxURDXGMkXPEQb747BEhj3zhpDE/BM4RI9dggWOEo0ieYEj6OIbUJWVlIlt48R864UCe6JVE6MQRhCscSJe6Yvg+o83uf//7lzrK84b84kzTI0vPLHEhViFQUg+MzMMBjx2QDmnChSWfzVIO6oeeVpxXHMHYFXOSYHPYVMpSLvbPQhPQeVro6jFzAybAc7S/UpxZX3AGjMCsV3M8IX7R8UdHFe1tfG9shLaV9pp2lA4vxBXaWNaXvvSlK+0sYfE1OEYHG8LOTW5yk9L5l/aeTkHmuWKUO+EYtcUIJUaS0+6ng5S48Nn4lBAhC9EnAhBxxSdgy/H6un/7t38rfgpzk+I35J0Cn44R8XRGEgd+Gb5W7oPHP/7xRXCKEIiPhGDHeeKgQw5fkJFe+J5cCxvELzrjGK2VkfZcQ4ctQlk6dylPuOLn4C/h42RuMo4lTuZMxadl5Bc+a8RIOjo5zsT16fylLFyLIIZ/w4Loxag6BDZ8KHxP/KHUJfnDRyZclvjs2ea42+UmwDM/92fuBbb9Zda2Qf+tT7DN79U10ybeUcWCgadhiPHP88E3Ka3kh7yloaBSJoUdVWUNrLA4Riw8MJnTgE/xaMCZUyKTjlKn9IzhFGB/jGbivyMiUjCiiQnqcQZwbBBRsAkEG+yCxp6VYzg09GAhfiU8DTs9Xjh0Eb9Ig2vzHxdx5HAMiAPhCDEH0QiHBNGL8GwJj5OGsEUe+TQxn/sh7CD4MMqLfBI/YlTmtsBJifODA0IvJ3miVzEOG04ZYg6iFAIQ+SFthCI+I2TB4UQ4I31YkD6Tlr73ve8tThzpIvyR13phlBYOKfcVcWaiU3oU40wSH3VAvokDhnzSSM8qTiwLjizXUgYEOEaFERZHMnUDFz5TxBFEFCQeysJKWuSRfFDu3Od8aoD4xcgvHGWcM8Q4hE+G7lMv/L7f/e5X0uE3n2ciICIKIhoiEhIGe+AcNoY4SHmJjzqM4FmzcX+xCfB8yL3ANjaz2Lk2dxJYfAJ5Ltdbcj3rC87il9QcTiIQgSfnqHfEHTogEXZiF3xah99GW4r/QzscnwBfCQGL0UQ8mwmHQEbbzcLocIQizrHSPiMG5dNDfA7iJC38GcLEl+AY5/E5Mio8AhDnyE/yyHXZ53o6E/F78OcYxU66XFsLWcxpykhz/AmuJY7M+UW7g99FZybx4bcQB/4ieUHs4nfSpIx8okhHI74eccX3wP9gpZz4Rxl5xbXxl+ioq0fIcQ6G+IP4aeQ7vhOj2vBP+QdAme6B8JSDzy7xm+F+pzvdqRzjWspOh2byG3b4yPjbLNhD3rGyLSf8s/QEuPdjE7ERtv1l1rZB/61PsM3v1TXTJt5RxYKBp+GI8c/zwTcpreSHvPHAz004KeyoKmughcVBoiGOU8PQcUYQUZ+IXAzvphGnnpnIHPGGhpjP5xC/6N3iHOIJPYT89x22DCWnt5B9wiFAMQooceG48FkgcdHA4+wQDysCFAu9eFyPc0APIRPeky5CWkZ+8fkjI5a4nrgRrQiHU4W4w2d/jI5i2D5huI9w2hiBxOd8pEUZsGXyzKgphCw+fYwoRo8n4XF2GPmFs0Q+Uy44sSB+4Zxyjh5GPgnkv/qQHsfIKyO7EB7TUBEvZSFfiE6M2CKdhz70oSviF5Psw4iwOFX5xwTEx3EELUaFIaLh9OHs0auKuIhAxzFEMARCnEN6dhEFqXPSxYFGtKN+EaZqUQyHE0cThxjBjDwiwjHCj+vIC6PD4IWASjkZnZaRX5QVoZHJbHHwcNxxwBHBwhFbQPyiPljCpvzwz8IS4BlBfadtStuwsBk2YxIYCAHuq/5K1n02DqQCG2QzfgXPWdp4/DRsgvacZy2+ESPCM+qadpvP8+jMxK/DVvC5EF7SkUaHGH4JAhmdYExxkE4+fCDEM4QdRm+TFr7XpS996fLJIaO86FRDKCJ9tszjSjyMYCJ83gnwNxBvLnvZy5b8kee094wS45p8tpgysaUtwXfjk0j+2Q6iG3lgZQoFPjWEC35PBCnKjf+C6MSItfhoxMV1fMqJP8LIL3wXjqet4lrCMIoMLoy+4jxl41NOfE18OEahcZzysY2fhh+EH5X44ID/xmeMCGmEpexcR72QdzqB8S3Dis89ESnpaM5oeFhRl3TOsnBd7v2+MNrA1IxigQlQ79gR90e99rMc++gfX+u3/ttaZDZ2XPFrY/zK1Rh6Hqoxfgx2XsuktJIf8paHN/mZFHZe+TSd1QTq+qj3CZmHJMcRoBhFhHOEOIQDUJ+nZw/nCmcAkYLP3RA0cK6e8YxnrDhenEM4QqBBbMK5QWRh5A8raeUTOGyHz/b4rJHRQUz4iXATB414OM7neZnwHoeIeaIQYogbAYV4yBsiEMIKThW9aswzgaCFA4GYg5iHaIc4hviCY8ZcX5STOSIQqoiLsHx+h4P1yEc+sjhFiSOfAiCmRRzic07EuAxlZ1g7Dhn3BeIOziLpwpX7hnTjAGXiU9LHSSIdHB8cLcqY/yLEfc9QehwqRDlGpeFQ4rCRZxxE5uXgcwV+48gi9OEs4yQhDBIH4Rmiz2eR8MPh4jiOG04lw+sZPUb94ewSF+VknjXi4tMGxC+OUw5Gl8ESB5x/i85krhHlcERxQrETykkeccApI8IYPbD8gwUcceLD0Ub8os5ZdO5W38+LeIR7mvpL25S2YRHzap4kMCQC3Ff9lfynbR5SWczr7ARo61nwLWhHmUKhHpWEbdCuIrIgSPEbkYUVP4jR+3Qm4c/hC+UZjY/F6C46qxi1lM5IrsN3QJBC/MK/ov3Hl6Hdxz/AV6SDjHYcv4H2G/+QtAiT9wHaAaZVIDz+D9MdEJ7z+CGMjsJHZHJ9/DrOkX+uYx/xCp+G8kUM4hwdcXSk8RkiI/A5Rl7YMrqczw3xbSg/5eE4K/4T/hvzbFHenCNNyohPQkchPiEdleSTeBEb8XtIjw7KhOf6e9/73qVjOH5XRuPhyzBVCKPi4U5YriM+eOPvIbTxm+P4Rfho+F74UJmyg/oiTb6KiH/JvR9BdHaL8oqhEqDec/9iM1n75Zm1bdB/6xNs81vxqwFHjJyHN9sYPwY7r2VSWskPeUpjR34mhZ1XPk1nNYG6Pup9QiIuIF7R+8dIL4Qt6pOGnMae8whALPy3vjggOAkZlcU5xCwcMhwWGnriohHHWWNhGDpCFmIOxxiNlJ48BBYcDhaG8+c/4+As0OCzMEk9n/GRNxwtHDbyhZiGYIcDwYpNIoAhqiBG8R8oceS4Z+iJQ7yh5y9D/CkvI9TIW3oQcV74PBNxjzLj/OGYkTajqhCdcNgYUs8xyowAhGPEwjB+nLoMgUcUwlGDc0aDkR8cO0Q9FsrByKwM98eBxJHEgYuDxDX0XMKVhdFw9EKSBxw3BEg4Zt4ynFtEN5gj5N34xjdeccAYxh9hkpFfXE/8fNpIPllgRW8wx0kDBxTm5JnPFbjnOQdzHDVY4ajDASGS+kD4o+5YEMaID77ULfFRR4iA2AxpIBjSwxk7nbURLwn5Z+4EqC/qL7aStmHuGTFBCSwZAe6r/koRfTYuWUWvozi0+bTjPF8zSoupAmjfGZn04Ac/uPgjaZvxBfikkHY2/2E7nWURY/Bt8qkd17EiouET4UfRwRaBBj8HgQbBKb4itomQhNCDb4BQlHaA6whL3vBx8JkiDnEdYhTX4M/Fx8JvoXyIT8zDStuCb0Ma5I3r6KRDmIsQleOwoNMQH4aR7fhhKSd5wu8jPUbdx88kPvKEX0lnKZ8j0nmJX8k5VkQ0BESO19dxDv+P0VvEwX6uoWOQOkq54J7zCF10OjICnzD4X/BEUGQEH/53mBMfnab4pxFCYyoKYCExjq3i17DqWfGrQX3xAMwLRRqWvCA2iH5qFJPSSn7IWxofIpoUdmoCBpgLAeom9cMWcYseKJwQBAwacOqVkTt8+ocTRG/d/vvvX0QlHAkaZVZEK0Y/MVKHTxkf8pCHlMadOHAGuBaRjNE/iBoZtURBEcviPCGoIYqQDo4Wzg9xYFOIJ8SDaBRBBWeCnkKcEXrx4ozgWBDmwAMPLPM6ILLxX4nSg4agxPxT/Acj5m7AkSMNhBeGlROOPFE2nBFGpDEKDfvGccExwaGCG6OmcIhyD+DMMIyesrIlHlbKhuOGk8JoJobIM+cV+eRaygcjPqdEDKQMXE8vLaIVQhsObV32sIILrLiO+sJRRDCjN5fw5Dt5In6YUg7qEBENcRN+9MySV87xiQGOMuwYqcUovjhhmfMLcQ+HFkakwbX0bjKXBs4ZziflJh3ySJ5YmNSV8Dy/qOcIm/Rk4wDCkDpBVMUufbmbyyOhSSLcE6lbtrkvmkRuJBIYMQHup/4KDp+P4zAK2mHaQ0Z849tkhFZsglFEjK7GX2D0F51/eUcgDL4TnY98Yke7nGcz4hLiEe0u4RDAaLPpxGTkEws+AqPEOY+vwXn28WFoq/Ep8APwN+jQpGOx/m+PhMVHpCMNnwkxCp8Ln4I8EpYR+uQNv468cZw8PfrRjy4ddPgU/HfHiF/4KfzGb8BnI33ygQ9xt7vdrUzLkLzjp5BnriFu0ueTSEQsysk15BG/i2vxVRDOmJMrU11wDt8RAY8RWfnskXgpC9swrbfpyCQMaWSFI/v4inziiF9Zn8Of4xjiWXjgvzFyjgVfMqIXduEyHgKKX8Oqa8WvBvXFwzEP1jRsETEaRD81iklpJT/kLQ94IpoUdmoCBpgLAeom9cODFJGD+QVoaNPW5Q1fAAAgAElEQVQAs00DzTZ1m/M4A+xT/zgfjC4iHhwfhoAjbEQYIV6cAMQlRjYhkODMZf6JxJk067QiuuCgYPNxvHBkEL9winD6cOByT9CbRj4QmjiPU4W4RV7pMSU8CyOYEMboYSN/lCmiF3nhN+lRfhwPnCg+yYQZcSP2ZW4LwjM6DGcGHsSDI4nwhGBETyLOCk4Vw9ZxeGBEvKSRXleuZZQYwhfCHvknn3xSGUeKcnBN+JI/nDT+tTlD/RGuGIGFQAY3yoEjifBIGeLsUU84gTieiGXES1yIX4iDlBNnGraco4yUhfwzggtnENGLc8znxr9DJ7/YAeJXRnIxgg7mjHzDCSff5J8ycZzw9OCSL+oepxrxC16ccxkGAZ4p2Ejuw9jMMHJvLiWwuAS4r/orueUZ7TIeArSxfNJHe4s4gg/B6HEEL9pqFtp/RCM6Lum4Ihyf3zG6GnEKwSd+FZ2GzNHJ6HhG1eO/0IlFfPg4+Gks/JdqRmkzFQRtOJ2c/NMg/gs2o+bJB52jdL4hED3sYQ8radKpR3jyg79ExyMdYKRDp9hVr3rVMlcqI8IQshiBzjl8F0aIMeo9n/nxmSLn8Q9Ik/+wyDHELMqIH4fvwihz/BAWxELSS9mYd4z/EomfhI9BeTjG9XS8whcxiZUR9PhFXMvKSDO+jmBUOoIdbOkcZaUDkzAwp8zkj3LABfaslJfzdFLiv9JO4o/yOSidx3CnXpnaA2GPstEpSTykga+JgJkl937KmuNul5sA9R4fq24T+qWOffSPr/Vb/20tMhs7rvi1MX7lagw9LxQx/ogYDaKfGsWktJIf8hbRgogmhZ2agAHmQoC6ycoDEpGB0UiMcEIooVHHqUGcYMJTBKt73eteZY4CnB7mn0JIYdQXdY5ww6eKODcsODJMxI5QwvX0SjJnFv+NkEngSZP02UewQYQhLRwk4r/Pfe5TRjqRLvtMIkocDAVny2+G3X/pS18q4ggCypOe9KTinPBvsxnOjnDEQjqMLiJ9rkNwwznMQjhGvSGCkVccSRggNMGD/zD0uMc9rvBh3gkcDZxCFsrLee5F7gOGr8MB5wpeOGL0nuKA4ZimMULQYTQXThqcCEu+ca7IH84QC+FIjzzy6QGfW1KGMA03nDvER+YyI14WBMb3ve99hSkMmasLZw+nljhIE4EMUQ4efA5BHeC0wi8OFXnGEUuaOLw4xMRPXhmRxkovKflMbyRpUbekRdoIeNQX9UQdU4/MRUb9sMCWOiUduOH0kgfSD7cS0D8LS4C6pB1I25S2YWEzbMYkMBAC9UtO9sm6z8aBVOAGs4kvQF3T9jLlASOo6Lhiy++M/qFzDR+AY/hF+GK0pfxm5BX/sCgjzrEjfBzabkZ/0+HFKC+EoQhOpBsRDF+BDiwEINpz0uQYI6XwhUiPa/EBSIs4+byQtPFNyDt+EOIYPhHn6XgjXRauYZ94KBvhKE/O4adwjvJQ7qSFoJYy5n4g36QFC/IGB8rG9eSfMlFG8sUx4mOt/TvKxjXkkbwSljKTR9KkXCkHeSUc+aDM/EMgppRgJW2up0MWEZF/9pN7GMGNUfT4TuQDP4j8UVY4kgZxkjZxkOf4RfGdCiD/jIYANh4fK3bEtr/kXugfX+u3/ttaZDZ2fHXNbCy+UV6NgeeFIsY/zwfgpLSSH/Km+DUMs+ShSF2ysk8ji0iTeQkQvmiwcUZwPmiIaXD5TSOMQ8GEp3e9613LUHNG+CDOEB9x0UDHVgjLdRxjH6eEBecD54T4cSZwItjHUWElLOlGnCEOjnENjgIrcbKykC+OxZEiv3EIcbqIG2eJfVbymTAwSH7e+973lnkfGELPiCfm/CIPXMOS/LOPA0TPIKOl6MlD6CENVvLJmjyUi/82XJ19ysZCuUg/fLiGvHEsS84jOBEeVuSdMnEd+SNfKQ/XkQcW4mOf8sXhI36uJQ/kj9+Egy/Hw5AyU4+kwTHiYT954xrSTlpcW9c750mD86RDfLmGshAP4ck7aeNQcz7lCPNwcLvYBKhL2oG0TWkbFjvX5k4Ci0+A+6q/kus8ixe/BOZwowRoF+N/0DZmP21/4k8bzJZrWNLmM/cXfh4dfPjrjMZn+oeEw0dgyZb9+DDEF3vjGCINC8drv4BzyQPHEybXlgNdt5ImeaM8SZPfWWofgHiTF+LKPmESd3wirq/zwXnKyJa1voZ0k1+uT7x1PvBL+gvHuLbPjnCpm/4+Pioj9/iskRHwjIqnEzRlT1wpT+LhN/kiT8kfcbOfsP38+Xs5CVDf8bHqNqFf2lntgntA/61PceO/Fb82zrAYZl4oYvx5aDeIfmoUk9JKfrhpFL+mItyyAHXd8VBk5RhbGlSGkOMU8ekZI4XoyWIhDGsa5xSAHi1GOiH80JDzb6NxKJIO8dLQJw4aaRrynE88bONk1A17HTYOQcLWDkHtlMRRypa0EpY4kk6OEV/2I0Z97GMfK/NlYMs4JkwumyVh+Y2gg/DDpO9pgBg1VTuB4RF2ST8OYZwYHC6W5IH9lIsy9B0c2JKXlJP9Om+UNdfU8ZRE/uYw5VqOkb+6XhIX6SQc+yyEy34dH2VLuXIN57OfbdJJHFzHfn4nfvKQsNkmPbeLSYB60nlazLoxV8MmkDam3lKiPDeHXTpzP40A7XnaxrrOaSfT7nKccKwstOvxnbiWlRH+TK0QO2JCd8QvzsVf49rEmbg4Fv8kW45xXZb4NxyLD8E52v46z+QrPhHnk0f2U876+oSND0G4utxck7Tr/GafsEk/26SbdHI82xyv06zzx369hEPKTjzkqc4D4enYpXM5U4wwxQUjv1jCnP0Ii+wTF/kg7uSP4ykz+y7jIYAN5P0/9zHb/lLbSv/cpN/YF/Ek7rzbTwrrsfUTWF0z67/WkH8jgGHGIGOgeejOA9KktJIf8qb4NY9a2LE0UndseSjmwciWhh4HKJON8hkbI4yyJCy/aYQJzxBtJgdlhBTiF5/YpTHONtfRqMeJwNGJY0F8EWfYTx5zXe3UcK52kthPOOLPtWzjLBFn7VBwLtcQd+JLfsgL8znwX3WwZ+Zw4FO9XMO2dmgYks5Ermkw+Awx5SSuxBsHKPnKb+JKmOQ/7Mh77Ywm7wlHHNknbJaUid/ZZ5s0OZ590kp+OV73epKvxJ/wbMOC/ZQnabPlujrOep/z5CVxRPTL75otYZN+GNXpuL94BKiv3Ats0zYsXk7NkQSGRYD7qb9Sgjw7h1Uac7sjBNIOpt3meZtjaYvTZhJ/2v/YCKO3mWuU+UHx1Vn5z4hMf5Dr4ysQT9p92vCkQ7zsc541/kqdbt3m53zKW/8m/sSbuNiS34SLj0CcKUeuSRjirtPnPOE5lrAJk3ApG8fjP+YY6dTX5Xh4ck3S5hwr8bLWYeq0kndErac//ellXlfm8eK/ePOJZJ1Grkse8pt0Ew/nklau5bzL8hPABvL+X7cJ/ZLHVvrH1/qNnRFf4tZ/W4vUbMcVv2bjNTE0hhmDjIHWD8aJFzU8OCmt5Ie8KX41hD3nqJjckzm6mIuJ+aPSu0cjy0M0D1JsgMaWRpzRXszTxFxUzHcQISvOAEXIdXMuzszJkWfKylxV/Ccf7JlJUJmXjDKnHHE0OMbnh0yuj91zHzBhKQw4VztHM2fGCyQwQALYvc7TACvOLC88Ae6r/kqm0y4tfAHM4JYTQEiiMw/BhcnT6bxk/k2O4dewYk88x102hwCiHL5z5gNjP8Lj5qRorMtGgHs07/91m9Av56xtg/5bn2Cb34pfDThi6BGbYvzzbKgmpZX8kDfFrwaVvIVRINww91IemvQsIQix5BiiTo4RlmHcOE3sZ+E3tsLK/lAW8sqkoq95zWtKDymj2XBOWFJ+ys5+fjNHGP+ZkfUzn/lMCZtys617QYfCwXxKYEcIYO+0A2mb0jbsSFxeIwEJ/J1A/ZKTfc6mHfp7SPckMJkA/g32wvyo+G2MLGf0evyV+DX8dmlLYBJTeE863jZlY1s2AthNfKy0BWz7C+FmWbBF4knc+m+z0Fs77OqaWTusZ9YggGHGIGOg83x4Tkor+SFvil9rVNwADiPSIOxQx/1Gmd8RvOqicBwxjGtiG2wTD2FnfQDX8c97n7xGrMt+8s/xsKnLVffaZRh6rmE7idu8y2V6EpgHAe4Pnad5kDaNsRHgvuqvMEhbMzYelnd2AvUUEPFz4q9hR6z87i+TjvXD+Hv7BGBYr9sP7VkJrE2A+zTv/3Wb0L9i1rYB+9R/61Pc+G/Fr40zLIYZsSnGP8+GaVJayQ83jeJXg0peoChwkCL6ZLtW9hB5stZ2MusDeK34N/t4X6RKGVJuysF+ysP5fNpY540wrPXSj7s+574EloUA94TO07LUpuVYJAL1S072yV/ao0XKq3lZfAJ01GVUOs/trP2cr3W8H87f6yOAb4jfyOq9uz5mhtqWAHaT9/+0BWz7y6z2pf/WJ9jm9+qaaRPvqGLBwCM2xfgx2Hktk9JKfsib4te8aqJ9OoxgyugvYqeu+yIOD1OOsxKWNY051/QftvzONe1z3DbG2rZTrqQQDpSlHukWUQtHMqO+CEtcdblzfeJzK4FlJIDd0w6kbUrbsIxltUwSmCcB7qv+Svq0My4SmEYA/4Tnc/yUOjx+TO3/1Oc4vta5Opz72ydQ+4PbD+lZCWyfALYUH6tuE/pXzdo2cJ/rv/Upbvy34tfGGRbDzAtFjH+eDdOktJIfbhrFrwaVvGBRUOcIYzhIiEKTbCBZrh+27A9N9EnZku+UJ8cpJ8f4nS3HEp79ejRYP1w4uZXAMhLA3nWelrFmLdNWE6hfcrJPntJGbXX+TH8YBPBP8ONYsJ0IX7WPU5eE42udq8O5v30CcMdPrFmyTx14D2+fnWe3JYC95P0/bQHb/jKrXWGPxJO4827fj9ffsxFYXTOzXW/orlP80go2jUA9HwSJ9BvqJMxxGvKMdqobdfbTuNf7OZY4FnHbd0LIM0xqYavOd8qE88i1/CZsv2c1zmV9rfsSWEYC3AM6T8tYs5ZpqwnULznZJ0+zvuBsdTlMf2sI9P0ScsHzOvYTf2ZrcjeuVGEt73HVecvScs9GoEpbwLa/5N7uH1/rNzZJPIlb8WstUrMdX10zs11vaMUvbWAOBCLmJCkeiDxEaxGo33Dndx2m3q8nhU+8i7alDKzkmzVlIp8pCxzgw5Lz6UXtlyfOJtckbD+MvyWwTASwc52nZapRy7IoBOqXnOyTt1lfcBalPOZj/gTik5AynZMsPLPj7+inbF6dhHNY1yl5D9c03J9GAHuJQJW2gG1/mdWu9N/6BNv8Xl0zbeIdVSwYeNTYGP88G6xJaSU/5M3PHkdljhZWAhKQwAoBnacVFO5IoCmB+iUn+yQw6wtO00wZmQQkIAEJzJWA4tdccW84McWvDSP0s8cGCI1CAhKQgAQ2gYDi1yZANUoJ/G3Uf0SvbAGj+KV5SEACEhgPAcWvYdW14leD+sLpyUgrR341AGoUEpCABCTQhIDiVxOMRiKBVQQieNVbAil+rULlAQlIQAJLS0Dxa1hVq/jVoL4UvxpANAoJSEACEmhOQPGrOVIjlEAhUIte2eeE4pcGIgEJSGA8BBS/hlXXil8N6kvxqwFEo5CABCQggeYEFL+aIzVCCRQCEbzqLScUvzQQCUhAAuMhoPg1rLpW/GpQX4pfDSAahQQkIAEJNCeg+NUcqRFKoBCoRa/sc0LxSwORgAQkMB4Cil/DqmvFrwb1pfjVAKJRSEACEpBAcwKKX82RGqEECoEIXvWWE4pfGogEJCCB8RBQ/BpWXSt+Nagvxa8GEI1CAhKQgASaE1D8ao7UCCVQCNSiV/Y5ofilgUhAAhIYDwHFr2HVteJXg/pS/GoA0SgkIAEJSKA5AcWv5kiNUAKFQASvessJxS8NRAISkMB4CCh+DauuFb8a1JfiVwOIRiEBCUhAAs0JKH41R2qEEigEatEr+5xQ/NJAJCABCYyHgOLXsOpa8atBfSl+NYBoFBKQgAQk0JyA4ldzpEYogUIggle95YTilwYiAQlIYDwEFL+GVdeKXw3qS/GrAUSjkIAEJCCB5gQUv5ojNUIJFAK16JV9Tih+aSASkIAExkNA8WtYda341aC+FL8aQDQKCUhAAhJoTkDxqzlSI5RAIRDBq95yQvFLA5GABCQwHgKKX8Oqa8WvBvWl+NUAolFIQAISkEBzAopfzZEaoQQKgVr0yj4nFL80EAlIQALjIaD4Nay6VvxqUF+KXw0gGoUEJCABCTQnoPjVHKkRSqAQiOBVbzmh+KWBSEACEhgPAcWvYdW14leD+lL8agDRKCQgAQlIoDkBxa/mSI1QAoVALXplnxOKXxqIBCQggfEQUPwaVl0rfjWoL8WvBhCNQgISkIAEmhNQ/GqO1AglUAhE8Kq3nFD80kAkIAEJjIeA4tew6lrxq0F9KX41gGgUEpCABCTQnIDiV3OkRiiBQqAWvbLPCcUvDUQCEpDAeAgofg2rrhW/GtSX4lcDiEYhAQlIQALNCSh+NUdqhBIoBCJ41VtOKH5pIBKQgATGQ0Dxa1h1rfjVoL4UvxpANAoJSEACEmhOQPGrOVIjlEAhUIte2eeE4pcGIgEJSGA8BBS/hlXXil8N6kvxqwFEo5CABCQggeYEFL+aIzVCCRQCEbzqLScUvzQQCUhAAuMhoPg1rLpW/GpQX4pfDSAahQQkIAEJNCeg+NUcqRFKoBCoRa/sc0LxSwORgAQkMB4Cil/DqmvFrwb1pfjVAKJRSEACEpBAcwKKX82RGqEECoEIXvWWE4pfGogEJCCB8RBQ/BpWXSt+Nagvxa8GEI1CAhKQgASaE1D8ao7UCCVQCNSiV/Y5ofilgUhAAhIYDwHFr2HVteJXg/pS/GoA0SgkIAEJSKA5AcWv5kiNUAKFQASvessJxS8NRAISkMB4CCh+DauuFb8a1JfiVwOIRiEBCUhAAs0JKH41R2qEEigEatEr+5xQ/NJAJCABCYyHgOLXsOpa8atBfSl+NYBoFBKQgAQk0JyA4ldzpEYogUIggle95YTilwYiAQlIYDwEFL+GVdeKXw3qS/GrAUSjkIAEJCCB5gQUv5ojNUIJFAK16JV9Tih+aSASkIAExkNA8WtYda341aC+FL8aQDQKCUhAAhJoTkDxqzlSI5RAIRDBq95yQvFLA5GABCQwHgKKX8Oqa8WvBvWl+NUAolFIQAISkEBzAopfzZEaoQQKgVr0yj4nFL80EAlIQALjIaD4Nay6VvxqUF+KXw0gGoUEJCABCTQnoPjVHKkRSqAQiOBVbzmh+KWBSEACEhgPAcWvYdW14leD+lL8agDRKCQgAQlIoDkBxa/mSI1QAoVALXplnxOKXxqIBCQggfEQUPwaVl0rfjWoL8WvBhCNQgISkIAEmhNQ/GqO1AglUAhE8Kq3nFD80kAkIAEJjIeA4tew6lrxq0F9KX41gGgUEpCABCTQnIDiV3OkRiiBQqAWvbLPCcUvDUQCEpDAeAgofg2rrhW/GtSX4lcDiEYhAQlIQALNCSh+NUdqhBIoBCJ41VtOKH5pIBKQgATGQ0Dxa1h1rfjVoL4UvxpANAoJSEACEmhOQPGrOVIjlEAhUIte2eeE4pcGIgEJSGA8BBS/hlXXil8N6kvxqwFEo5CABCQggeYEFL+aIzVCCRQCEbzqLScUvzQQCUhAAuMhoPg1rLpW/GpQX4pfDSAahQQkIAEJNCeg+NUcqRFKoBCoRa/sc0LxSwORgAQkMB4Cil/DqmvFrwb1pfjVAKJRSEACEpBAcwKKX82RGqEECoEIXvWWE4pfGogEJCCB8RBQ/BpWXSt+Nagvxa8GEI1CAhKQgASaE1D8ao7UCCVQCNSiV/Y5ofilgUhAAhIYDwHFr2HVteJXg/pS/GoA0SgkIAEJSKA5AcWv5kiNUAKFQASvessJxS8NRAISkMB4CCh+DauuFb8a1JfiVwOIRiEBCUhAAs0JKH41R2qEEigEatEr+5xQ/NJAJCABCYyHgOLXsOpa8atBfSl+NYBoFBKQgAQk0JyA4ldzpEYogUIggle95YTilwYiAQlIYDwEFL+GVdeKXw3qS/GrAUSjkIAEJCCB5gQUv5ojNUIJFAK16JV9Tih+aSASkIAExkNA8WtYda341aC+FL8aQDQKCUhAAhJoTkDxqzlSI5RAIRDBq95yQvFLA5GABCQwHgKKX8Oqa8WvBvWl+NUAolFIQAISkEBzAopfzZEaoQQKgVr0yj4nFL80EAlIQALjIaD4Nay6VvxqUF+KXw0gGoUEJCABCTQnoPjVHKkRSqAQiOBVbzmh+KWBSEACEhgPAcWvYdW14leD+lL8agDRKCQgAQlIoDkBxa/mSI1QAoVALXplnxOKXxqIBCQggfEQUPwaVl0rfjWoL8WvBhCNQgISkIAEmhNQ/GqO1AglUAhE8Kq3nFD80kAkIAEJjIeA4tew6lrxq0F9KX41gGgUEpCABCTQnIDiV3OkRiiBQqAWvbLPCcUvDUQCEpDAeAgofg2rrhW/GtSX4lcDiEYhAQlIQALNCSh+NUdqhBIoBCJ41VtOKH5pIBKQgATGQ0Dxa1h1rfjVoL4UvxpANAoJSEACEmhOQPGrOVIjlEAhUIte2eeE4pcGIgEJSGA8BBS/hlXXil8N6kvxqwFEo5CABCQggeYEFL+aIzVCCRQCEbzqLScUvzQQCUhAAuMhoPg1rLpW/GpQX4pfDSAahQQkIAEJNCeg+NUcqRFKoBCoRa/sc0LxSwORgAQkMB4Cil/DqmvFrwb1pfjVAKJRSEACEpBAcwKKX82RGqEECoEIXvWWE4pfGogEJCCB8RBQ/BpWXSt+Nagvxa8GEI1CAhKQgASaE1D8ao7UCCVQCNSiV/Y5ofilgUhAAhIYDwHFr2HVteJXg/padPFrjz326MjjX//611JablKdswYVbxQSkIAEFpjAqaeeWnLH83/XXXftTnOa05S2YKedduoQxVwkIIEdJ3Da05623E/cVzvvvHPZzz2347F6pQQkIAEJLDqBPOvZRvxKO7DLLruU9qBfhlnfve287BNs81vxqwHHRRa/cgOSR24iBLC//OUvK0JYg+IbhQQkIAEJLCABHC2e9zz/WRG9cM5Y0xmygNk2SxIYBAHuqT333LPcWwhhu+2220q+jz/++JV9dyQgAQlIYPkI/PnPfy6FQgDDv6JNiADGfn9R/OoT2Zrfq2tma/Ix6FQx8LpHnd/z7FWflFbyQ15Y45Rxg9YvPVzrKgNtQBvQBpbPBmhYEb8Y/YtjRruQleMuEpDAjhPIyw6jKuNn/eEPf+jyQrTjMXulBCQgAQksMoGTTz55JXuIWrXolU6RlQB/21H86hPZmt+KXw244/REbIozxIvkvJZJaSU/5G3vvfcujlnyk/AZspnjbiUgAQlIYHkInHLKKaUwtANZ86nW8pTSkkhgawjgZ2V0PS8++H8sdiQsX0eCdWqdagPaQG0DPOvpRExHIj4WbUB0AH73F8WvPpGt+b26ZrYmH4NOFQOP2BSj5waZ1zIpreQnLzwRwPKbfMZpyzG3f39BlIUstAFtYOg2kGf8XnvtVUb/8tynbeBFve61nFdbZToSWCYCPB/S25/RX4z8YrFzcZlq2rJIQAIS2JYAPlTev+loTFtAu5D2YNsrZv9nKMRPfNEW8m7fj9ffsxFQ/JqN18TQGGYMMgaaG2LiBY0PTkor+eFmzE1IPvn8sX8jEdZVBtqANqANLJcN8KyPQxYhjJFf1LOLBCSwMQLcX6ynO93pVjoTiTE+Gb38rjLQBrQBbWD5bCBTCKUjkbZg9913L21C/K5+C4MdzLIofs1Ca/1hFb/Wz2rNkBg8LxNsF038Ik/chHnxyTYiGOddZaANaAPawPLZAO0Sz/9Mxl3X8ZoNmickIIF1EcCPyn/Tzr3FhU52vy58BpKABCQwaAL1/I5pAxDAogX0C6f41SeyNb8Vvxpwx+AXVfzK/C68AOVmJL/1aLDcsG6X7+XXOrVOtYHx2kB6HzPaC1vIs39WJ6xBU2kUElgqAnm25j7LvUUnY3zChHE73uewdW/dawPLZwN57lO3eddmm32O95dZ/S5HfvUJtvm9umbaxDuqWDDwODoRmDLsfbNBZEJj0qlvKvIUR4x9VxloA9qANjA+G6Btol3KqF9sgGPzaqM2uw00fglsFQGfp+N7nlrn1rk2oA2s1wbSNmWEGFt8r/X6X4QjrWgL0RoSr9sdI6D4tWPctrkKw4xBxkDXa9jbRLSBH/XkqrnJ8j3yBqL1UglIQAISGCiBtEMnnHBCKUG2/DjxxBMHWiqzLYHFILDeFyDD+bKsDWgD2sD4bCA+GNu8k7Nfv7NvrzUjLHYTbSFaw/au8dx0Aopf0xlNDYFhxiBjoDH4qRdvMADp1PNL5F+uEi03GqPBXGWgDWgD2sD4bCATsVL3tAe0FyeddNIGWx0vl4AEIIDf5yoDbUAb0Aa0gb4NoA3U/lYEr4hg62lFFb/WQ2n2MIpfszNbdcVWil/JDKO9uKEy6qu+4RLGrQQkIAEJjIvAn/70p1LgtA38oMMkwti4aFhaCbQjgO/nKgNtQBvQBrSBvg0wGIaFd/MIXxlxT4fkehbFr/VQmj2M4tfszFZdgcGj+LKd98iv3FC1khzhi5cbbhxXGWgD2oA2MD4boLFiNHDaBxyv7K9qyDwgAQlIQAISkIAEJLBhAghcEbuILO/rdUfktETw22ttIVrDtOs8v30Cil/b57Ous1spfpHBP/7xjyWf3FjcKFnqyfBzzK0EJCABCYyLQD3KC/GLDpL6E/lx0bC0EmhDwA6F8XUoWOfWuTagDazHBupWJoIXfleurc+vtU9Yxa+16Oz4ccWvHWe3cuVWil/9FxhebHjRUfhaqR53JCABCYySAA5XnC56IdNRMkoYFloCEpCABCQgAQnMiRvTZzEAABAWSURBVADv5Lyn5zNH/LFZRt8rfm1ORSl+NeC6leIX2c9njrXgxY2Wm61BEY1CAhKQgAQGSqDvcOGM9TtOBlo0sy0BCUhAAhKQgAQWjkDtZ+WzR8Wvra8mxa8GdbDV4leDIhiFBCQgAQlIQAISkIAEJCABCUhAAltMwJFfm1MBil8NuCp+NYBoFBKQgAQkIAEJSEACEpCABCQggZETUPzaHANQ/GrAVfGrAUSjkIAEJCABCUhAAhKQgAQkIAEJjJyA4tfmGIDiVwOuil8NIBqFBCQgAQlIQAISkIAEJCABCUhg5AQUvzbHABS/GnBV/GoA0SgkIAEJSEACEpCABCQgAQlIQAIjJ6D4tTkGoPjVgKviVwOIRiEBCUhAAhKQgAQkIAEJSEACEhg5AcWvzTEAxa8GXBW/GkA0CglIQAISkIAEJCABCUhAAhKQwMgJKH5tjgEofjXgqvjVAKJRSEACEpCABCQgAQlIQAISkIAERk5A8WtzDEDxqwFXxa8GEI1CAhKQgAQkIAEJSEACEpCABCQwcgKKX5tjAIpfDbgqfjWAaBQSkIAEJCABCUhAAhKQgAQkIIGRE1D82hwDUPxqwFXxqwFEo5CABCQgAQlIQAISkIAEJCABCYycgOLX5hiA4lcDropfDSAahQQkIAEJSEACEpCABCQgAQlIYOQEFL82xwAUvxpwVfxqANEoJCABCUhAAhKQgAQkIAEJSEACIyeg+LU5BqD41YCr4lcDiEYhAQlIQAISkIAEJCABCUhAAhIYOQHFr80xAMWvBlwVvxpANAoJSEACEpCABCQgAQlIQAISkMDICSh+bY4BKH414Kr41QCiUUhAAhKQgAQkIAEJSEACEpCABEZOQPFrcwxA8asBV8WvBhCNQgISkIAEJCABCUhAAhKQgAQkMHICil+bYwCKXw24Kn41gGgUEpCABCQgAQlIQAISkIAEJCCBkRNQ/NocA1D8asBV8asBRKOQgAQkIAEJSEACEpCABCQgAQmMnIDi1+YYgOJXA66KXw0gGoUEJCABCUhAAhKQgAQkIAEJSGDkBBS/NscAFL8acFX8agDRKCQgAQlIQAISkIAEJCABCUhAAiMnoPi1OQag+NWAq+JXA4hGIQEJSEACEpCABCQgAQlIQAISGDkBxa/NMQDFrwZcFb8aQDQKCUhAAhKQgAQkIAEJSEACEpDAyAkofm2OASh+NeCq+NUAolFIQAISkIAEJCABCUhAAhKQgARGTkDxa3MMQPFrg1z/7//+r0P82mmnnbrTnOY03S677FJ+E+1f/vKXDcbu5RKQgAQkIAEJSEACEpCABCQgAQmMgUA0BDQGtAU0BrQGfqM9uOw4AcWvHWdXrsQ4995772KMu+22W9limDFaVFtXGWgD2oA2oA1oA9qANqANaAPagDagDWgD2sD2bACRAS0BTYE1GgOaQzSGDUoYo71c8atB1WOUO++8czHObIn21FNPVfhS/NMGtAFtQBvQBrQBbUAb0Aa0AW1AG9AGtIGpNoCGwLKWxtBAvhhtFIpfG6z6E044odtzzz1XhiLuvvvuRZ3luIsEJCABCUhAAhKQgAQkIAEJSEACElgvAbQERnyhLSCC8dkjmoMaw3oJTg6n+DWZy0xHMch6Pe1pT1uGJJ5yyikzxWNgCUhAAhKQgAQkIAEJSEACEpCABMZJAA2BzxvRFGqNgX2XjRGQ4Mb4lU8bMwHdHnvssTICjGidkG6DcL1cAhKQgAQkIAEJSEACEpCABCQwEgLREBC70BnQGLKfTyJHgqJ5MRW/GiDFGKPM8t8YGJKYY/x2lYE2oA1oA9qANqANaAPagDagDWgD2oA2oA1szwaiK6ApEC66AluXjRGQ4Mb4ldFd/AtSjDHf5LK/1157lWPsu8pAG9AGtAFtQBvQBrQBbUAb0Aa0AW1AG9AGptlArSVEY0BzyKiwDUoYo71c8WuDVc+/Kd11112LwBUFF2PGOKPUTjNuz/sA1Aa0AW1AG9AGtAFtQBvQBrQBbUAb0AbGbQNoCBlcU+sLaA5oDy47TkDxa8fZrVzJAyqKbASviF8xWLcOb9UGtAFtQBvQBrQBbUAb0Aa0AW1AG9AGtIHt2UAtftVaw4oA4c4OEVD82iFs216EQe68884rI8AihMVoVe/Hrd5b/9a/NqANaAPagDagDWgD2oA2oA1oA9rANBuIhhBNgRFfaA1c57IxAhLcGL9truYb3JNPPnnl2EknnbSy744EJCABCUhAAhKQgAQkIAEJSEACEliLQK0hoC04z9dapGY/rvg1O7NVV5xyyikrotdf//rXct5/Q7oKkwckIAEJSEACEpCABCQgAQlIQAIS2A6BaAnRFhDB0BxcNkZA8Wtj/FaMEGP8y1/+UmI74YQTVmJlUjpXGWgD2oA2oA1oA9qANqANaAPagDagDWgD2sD2bCBCQjQFNIYIX9kmjNvZCCh+zcZrYugTTzyxHMcwUWWj1GY78SIPSkACEpCABCQgAQlIQAISkIAEJCCBvxGIhsAWbSEDbKI5CGrHCSh+7Ti7cmW+wcUYs58o+79z3K0EJCABCUhAAhKQgAQkIAEJSEACEqgJ9DUEfkf46p+rr3N/OgHFr+mMDCEBCUhAAhKQgAQkIAEJSEACEpCABCQwUAKKXwOtOLMtAQlIQAISkIAEJCABCUhAAhKQgAQkMJ2A4td0RoaQgAQkIAEJSEACEpCABCQgAQlIQAISGCgBxa+BVpzZloAEJCABCUhAAhKQgAQkIAEJSEACEphOQPFrOiNDSEACEpCABCQgAQlIQAISkIAEJCABCQyUgOLXQCvObEtAAhKQgAQkIAEJSEACEpCABCQgAQlMJ6D4NZ2RISQgAQlIQAISkIAEJCABCUhAAhKQgAQGSkDxa6AVZ7YlIAEJSEACEpCABCQgAQlIQAISkIAEphNQ/JrOyBASkIAEJCABCUhAAhKQgAQkIAEJSEACAyWg+DXQijPbEpCABCQgAQlIQAISkIAEJCABCUhAAtMJKH5NZ2QICUhAAhKQgAQkIAEJSEACEpCABCQggYESUPwaaMWZbQlIQAISkIAEJCABCUhAAhKQgAQkIIHpBBS/pjMyhAQkIAEJSEACEpCABCQgAQlIQAISkMBACSh+DbTizLYEJCABCUhAAhKQgAQkIAEJSEACEpDAdAKKX9MZGUICEpCABCQgAQlIQAISkIAEJCABCUhgoAQUvwZacWZbAhKQgAQkIAEJSEACEpCABCQgAQlIYDoBxa/pjAwhAQlIQAISkIAEJCABCUhAAhKQgAQkMFACil8DrTizLQEJSEACEpCABCQgAQlIQAISkIAEJDCdgOLXdEaGkIAEJCABCUhAAhKQgAQkIAEJSEACEhgoAcWvgVac2ZaABCQgAQlIQAISkIAEJCABCUhAAhKYTkDxazojQ0hAAhKQgAQkIAEJSEACEpCABCQgAQkMlIDi10ArzmxLQAISkIAEJCABCUhAAhKQgAQkIAEJTCeg+DWdkSEkIAEJSEACEpCABCQgAQlIQAISkIAEBkpA8WugFWe2JSABCUhAAhKQgAQkIAEJSEACEpCABKYTUPyazsgQEpCABCQgAQlIQAISkIAEJCABCUhAAgMloPg10Ioz2xKQgAQkIAEJSEACEpCABCQgAQlIQALTCSh+TWdkCAlIQAISkIAEJCABCUhAAhKQgAQkIIGBElD8GmjFmW0JSEACEpCABCQgAQlIQAISkIAEJCCB6QQUv6YzMoQEJCABCUhAAhKQgAQkIAEJSEACEpDAQAkofg204sy2BCQgAQlIQAISkIAEJCABCUhAAhKQwHQCil/TGRlCAhKQgAQkIAEJSEACEpCABCQgAQlIYKAEFL8GWnFmWwISkIAEJCABCUhAAhKQgAQkIAEJSGA6AcWv6YwMIQEJSEACEpCABCQgAQlIQAISkIAEJDBQAopfA604sy0BCUhAAhKQgAQkIAEJSEACEpCABCQwnYDi13RGhpCABCQgAQlIQAISkIAEJCABCUhAAhIYKAHFr4FWnNmWgAQkIAEJSEACEpCABCQgAQlIQAISmE5A8Ws6I0NIQAISkIAEJCABCUhAAhKQgAQkIAEJDJSA4tdAK85sS0ACEpCABCQgAQlIQAISkIAEJCABCUwnoPg1nZEhJCABCUhAAhKQgAQkIAEJSEACEpCABAZKQPFroBVntiUgAQlIQAISkIAEJCABCUhAAhKQgASmE1D8ms7IEBKQgAQkIAEJSEACEpCABCQgAQlIQAIDJaD4NdCKM9sSkIAEJCABCUhAAhKQgAQkIAEJSEAC0wkofk1nZAgJSEACEpCABCQgAQlIQAISkIAEJCCBgRJQ/BpoxZltCUhAAhKQgAQkIAEJSEACEpCABCQggekEFL+mMzKEBCQgAQlIQAISkIAEJCABCUhAAhKQwEAJKH4NtOLMtgQkIAEJSEACEpCABCQgAQlIQAISkMB0Aopf0xkZQgISkIAEJCABCUhAAhKQgAQkIAEJSGCgBBS/BlpxZlsCEpCABCQgAQlIQAISkIAEJCABCUhgOgHFr+mMDCEBCUhAAhKQgAQkIAEJSEACEpCABCQwUAKKXwOtOLMtAQlIQAISkIAEJCABCUhAAhKQgAQkMJ2A4td0RoaQgAQkIAEJSEACEpCABCQgAQlIQAISGCgBxa+BVpzZloAEJCABCUhAAhKQgAQkIAEJSEACEphOQPFrOiNDSEACEpCABCQgAQlIQAISkIAEJCABCQyUgOLXQCvObEtAAhKQgAQkIAEJSEACEpCABCQgAQlMJ6D4NZ2RISQgAQlIQAISkIAEJCABCUhAAhKQgAQGSkDxa6AVZ7YlIAEJSEACEpCABCQgAQlIQAISkIAEphNQ/JrOyBASkIAEJCABCUhAAhKQgAQkIAEJSEACAyWg+DXQijPbEpCABCQgAQlIQAISkIAEJCABCUhAAtMJKH5NZ2QICUhAAhKQgAQkIAEJSEACEpCABCQggYESUPwaaMWZbQlIQAISkIAEJCABCUhAAhKQgAQkIIHpBBS/pjMyhAQkIAEJSEACEpCABCQgAQlIQAISkMBACSh+DbTizLYEJCABCUhAAhKQgAQkIAEJSEACEpDAdAKKX9MZGUICEpCABCQgAQlIQAISkIAEJCABCUhgoAQUvwZacWZbAhKQgAQkIAEJSEACEpCABCQgAQlIYDoBxa/pjAwhAQlIQAISkIAEJCABCUhAAhKQgAQkMFACil8DrTizLQEJSEACEpCABCQgAQlIQAISkIAEJDCdgOLXdEaGkIAEJCABCUhAAhKQgAQkIAEJSEACEhgoAcWvgVac2ZaABCQgAQlIQAISkIAEJCABCUhAAhKYTkDxazojQ0hAAhKQgAQkIAEJSEACEpCABCQgAQkMlIDi10ArzmxLQAISkIAEJCABCUhAAhKQgAQkIAEJTCeg+DWdkSEkIAEJSEACEpCABCQgAQlIQAISkIAEBkrg/wGWLz0aEsNgtAAAAABJRU5ErkJggg==;" vertex="1" parent="1">
          <mxGeometry x="30" y="170" width="1215" height="623" as="geometry" />
        </mxCell>
      </root>
    </mxGraphModel>
  </diagram>
</mxfile>
